<svg width="100" height="100" viewBox="0 0 100 100" fill="none" xmlns="http://www.w3.org/2000/svg">
<path fill-rule="evenodd" clip-rule="evenodd" d="M50 100C77.6143 100 100 77.6143 100 50C100 22.3857 77.6143 0 50 0C22.3857 0 0 22.3857 0 50C0 77.6143 22.3857 100 50 100ZM39.6624 49.789C39.6624 44.1963 44.1963 39.6624 49.789 39.6624C55.3818 39.6624 59.9156 44.1963 59.9156 49.789C59.9156 55.3818 55.3818 59.9156 49.789 59.9156C44.1963 59.9156 39.6624 55.3818 39.6624 49.789ZM49.789 34.5992C41.3999 34.5992 34.5992 41.3999 34.5992 49.789C34.5992 58.1781 41.3999 64.9789 49.789 64.9789C58.1781 64.9789 64.9789 58.1781 64.9789 49.789C64.9789 41.3999 58.1781 34.5992 49.789 34.5992ZM35.865 23.2068C28.874 23.2068 23.2068 28.874 23.2068 35.865V63.7131C23.2068 70.7041 28.874 76.3713 35.865 76.3713H63.7131C70.7041 76.3713 76.3713 70.7041 76.3713 63.7131V35.865C76.3713 28.874 70.7041 23.2068 63.7131 23.2068H35.865ZM18.1435 35.865C18.1435 26.0777 26.0777 18.1435 35.865 18.1435H63.7131C73.5004 18.1435 81.4346 26.0777 81.4346 35.865V63.7131C81.4346 73.5004 73.5004 81.4346 63.7131 81.4346H35.865C26.0777 81.4346 18.1435 73.5004 18.1435 63.7131V35.865ZM70.0422 33.3333C70.0422 35.4306 68.342 37.1308 66.2447 37.1308C64.1474 37.1308 62.4473 35.4306 62.4473 33.3333C62.4473 31.236 64.1474 29.5359 66.2447 29.5359C68.342 29.5359 70.0422 31.236 70.0422 33.3333Z" fill="white"/>
</svg>
