<svg width="100" height="100" viewBox="0 0 100 100" fill="none" xmlns="http://www.w3.org/2000/svg">
<path fill-rule="evenodd" clip-rule="evenodd" d="M50 100C77.6142 100 100 77.6143 100 50C100 22.3857 77.6142 0 50 0C22.3858 0 0 22.3857 0 50C0 77.6143 22.3858 100 50 100ZM80.9349 29.1994C82.011 30.278 82.7859 31.6196 83.1824 33.0906C84.6688 38.5419 84.5992 49.9074 84.5992 49.9074C84.5992 49.9074 84.5887 61.2102 83.1476 66.658C82.7451 68.1278 81.966 69.4671 80.8872 70.5435C79.8084 71.6198 78.4673 72.3959 76.9966 72.7951C71.5454 74.2223 49.7368 74.1979 49.7368 74.1979C49.7368 74.1979 27.9875 74.1735 22.4805 72.6767C19.4938 71.8726 17.1441 69.516 16.3435 66.5327C14.9162 61.1371 14.9302 49.7751 14.9302 49.7751C14.9302 49.7751 14.9441 38.4688 16.3818 33.0175C16.79 31.5454 17.5699 30.2031 18.6464 29.1192C19.7229 28.0354 21.06 27.2465 22.5292 26.8283C27.984 25.3976 49.789 25.4219 49.789 25.4219C49.789 25.4219 71.5976 25.4463 77.0488 26.9431C78.519 27.343 79.8588 28.1209 80.9349 29.1994ZM42.8305 39.3634L42.8131 60.2495L60.9561 49.8238L42.8305 39.3634Z" fill="white"/>
</svg>
