<svg xmlns="http://www.w3.org/2000/svg" width="24" height="24" fill="none"><g clip-path="url(#a)"><path fill="#000" d="M12 24C5.372 24 0 18.628 0 12S5.372 0 12 0s12 5.372 12 12-5.372 12-12 12Zm-.835-4.24c.756 0 1.598-.346 2.635-1.75l1.093-1.464a.4.4 0 0 0-.089-.567.455.455 0 0 0-.606.072l-1.77 2.015a.29.29 0 0 1-.334.073.254.254 0 0 1-.144-.293l2.23-8.935a.6.6 0 0 0-.69-.735l-4.02.735a.42.42 0 0 0-.332.31l-.103.4a.3.3 0 0 0 .291.375h2.076l-1.77 7.106c-.066.281-.174.756-.174 1.102 0 .8.476 1.555 1.707 1.555ZM13.36 7.115c.842 0 1.49-.497 1.663-1.253.043-.173.065-.367.065-.497 0-.604-.475-1.166-1.361-1.166-.842 0-1.49.497-1.663 1.253-.04.162-.062.33-.065.497 0 .604.475 1.166 1.36 1.166Z"/></g><defs><clipPath id="a"><path fill="#fff" d="M0 0h24v24H0z"/></clipPath></defs></svg>