<svg xmlns="http://www.w3.org/2000/svg" width="27" height="24" fill="none"><g clip-path="url(#a)"><path fill="#000" fill-rule="evenodd" d="M19.428 13.139v9.164a1.35 1.35 0 0 1-1.325 1.325H1.441A1.441 1.441 0 0 1 0 22.328V11.823a1.441 1.441 0 0 1 1.408-1.408H18.07a1.356 1.356 0 0 1 1.324 1.408l.034 1.316Zm5.665-2.724c.608-.417 1.116-.209 1.116.6v12.23c0 .716-.508 1.007-1.116.5l-3.241-2.417a3 3 0 0 1-1.108-2.24v-4.033a2.935 2.935 0 0 1 1.108-2.124l3.24-2.516ZM4.449 3.033a3.19 3.19 0 0 0-3.233 3.241A3.182 3.182 0 0 0 4.45 9.498a3.183 3.183 0 0 0 3.24-3.224 3.19 3.19 0 0 0-3.24-3.24ZM14.262.001a4.857 4.857 0 1 0-.2 9.712 4.857 4.857 0 0 0 .2-9.712ZM4.75 20.104a1.367 1.367 0 0 0-1.417-1.4 1.366 1.366 0 0 0 0 2.724 1.367 1.367 0 0 0 1.417-1.324Z" clip-rule="evenodd"/></g><defs><clipPath id="a"><path fill="#fff" d="M0 0h26.667v24H0z"/></clipPath></defs></svg>