<svg xmlns="http://www.w3.org/2000/svg" width="24" height="24" fill="none"><g fill="#000" clip-path="url(#a)"><path d="M12.007 0a12 12 0 1 0-.014 24 12 12 0 0 0 .014-24Zm0 21.333a9.34 9.34 0 1 1-.013-18.679 9.34 9.34 0 0 1 .013 18.68Z"/><path d="M18.13 5.882a8.673 8.673 0 1 0 2.537 6.131 8.607 8.607 0 0 0-2.536-6.13ZM4.524 12.007A7.418 7.418 0 0 1 5.941 7.62a.87.87 0 0 1 1.412 0L9.04 9.94a1.307 1.307 0 0 1-.653 2l-2.745.889a.856.856 0 0 1-1.118-.823Zm6.3 6.294a.87.87 0 0 1-1.136.83 7.563 7.563 0 0 1-3.726-2.7.87.87 0 0 1 .431-1.346l2.726-.889a1.307 1.307 0 0 1 1.706 1.235v2.87Zm.131-9.739L9.262 6.216a.87.87 0 0 1 .444-1.307 7.523 7.523 0 0 1 4.575 0 .87.87 0 0 1 .445 1.34l-1.647 2.293a1.308 1.308 0 0 1-2.125 0v.02Zm7.092 7.843a7.536 7.536 0 0 1-3.726 2.7.868.868 0 0 1-1.137-.804v-2.89a1.305 1.305 0 0 1 1.101-1.28c.203-.033.41-.017.605.045l2.726.89a.868.868 0 0 1 .43 1.346v-.007Zm.314-3.595-2.745-.888a1.307 1.307 0 0 1-.654-2l1.686-2.32a.868.868 0 0 1 1.412 0 7.424 7.424 0 0 1 1.425 4.385.865.865 0 0 1-1.124.83v-.007Z"/></g><defs><clipPath id="a"><path fill="#fff" d="M0 0h24v24H0z"/></clipPath></defs></svg>