<svg xmlns="http://www.w3.org/2000/svg" width="24" height="24" fill="none"><g fill="#000" clip-path="url(#a)"><path d="M11.026 17.6a.282.282 0 1 0 .038.39.277.277 0 0 0-.038-.39ZM11.998 17.882a.282.282 0 0 0-.25.31.276.276 0 0 0 .493.14.282.282 0 0 0-.04-.393.272.272 0 0 0-.203-.057ZM13.111 15.472a.287.287 0 0 0-.032-.397.285.285 0 0 0-.313-.023.283.283 0 0 0-.084.072.277.277 0 1 0 .43.348ZM10.462 15.77a.281.281 0 0 0 .43-.08.283.283 0 0 0-.332-.404.283.283 0 0 0-.188.189.275.275 0 0 0 .09.295ZM8.013 8.452a.434.434 0 0 0 .543-.673.434.434 0 0 0-.543.673ZM11.748 15.233a.288.288 0 0 0 .255-.31.277.277 0 0 0-.304-.266.281.281 0 0 0-.25.31.265.265 0 0 0 .187.256.266.266 0 0 0 .112.01ZM10.25 16.46a.282.282 0 0 0-.054.548c.035.01.072.015.109.01a.287.287 0 0 0 .218-.413.28.28 0 0 0-.273-.145ZM13.29 17.339a.283.283 0 0 0-.43.077.283.283 0 1 0 .43-.077ZM12.259 16.08a.614.614 0 1 0 .081.857.604.604 0 0 0-.081-.858ZM15.337 10.168a.81.81 0 1 0-.163-1.157.822.822 0 0 0 .163 1.157Z"/><path d="M13.42 14.657a2.448 2.448 0 1 0-3.082 3.804 2.448 2.448 0 0 0 3.082-3.804Zm.076 3.225a2.09 2.09 0 1 1-.277-2.975 2.112 2.112 0 0 1 .277 2.97v.005Z"/><path d="M13.197 16.405a.271.271 0 0 0 .299.25.293.293 0 0 0 .255-.31.278.278 0 0 0-.304-.25.287.287 0 0 0-.25.31ZM1.418 4.994a.163.163 0 0 0 .233 0l4.582-3.963a.163.163 0 0 0 0-.233L6.016.543a.168.168 0 0 0-.234 0l-.63.543-.265-.31A1.048 1.048 0 0 0 3.41.673l-.108.098-.158-.228a.109.109 0 0 0-.152 0l-1.086.95a.109.109 0 0 0 0 .152l.158.184-.315.277a1.042 1.042 0 0 0-.147 1.471l.272.31-.673.602a.163.163 0 0 0 0 .234l.217.271ZM21.932 5.01a.164.164 0 0 0 .234 0l.239-.27a.168.168 0 0 0 0-.234l-.717-.62.271-.309a1.045 1.045 0 0 0-.103-1.47l-.32-.278.152-.2a.109.109 0 0 0 0-.152L20.602.543a.108.108 0 0 0-.152 0l-.157.184-.114-.097a1.043 1.043 0 0 0-1.471.103l-.272.31-.624-.544a.174.174 0 0 0-.239 0l-.233.272a.168.168 0 0 0 0 .233l4.592 4.007Z"/><path d="m1.825 5.043.499.603a.174.174 0 0 0 .239 0l.239-.201a.168.168 0 0 1 .239 0l.287.336a.168.168 0 0 1 0 .24l-.244.211a.168.168 0 0 0 0 .239l.266.326a.168.168 0 0 0 .244 0l.18-.114a.174.174 0 0 1 .238 0l.304.374a.174.174 0 0 1 0 .244l-.222.185a.174.174 0 0 0 0 .239l.255.31a.168.168 0 0 1-.033.054l2.59 11.15v1.455h9.771v-1.455l2.595-11.188.331-.402a.174.174 0 0 0 0-.239l-.152-.125a.18.18 0 0 1 0-.244l.288-.337a.174.174 0 0 1 .239 0l.141.12a.168.168 0 0 0 .244 0l.266-.326a.169.169 0 0 0 0-.239l-.173-.152a.169.169 0 0 1 0-.239l.287-.336a.167.167 0 0 1 .24 0l.168.14a.174.174 0 0 0 .238 0l.45-.542-4.532-3.93-.434.543a.18.18 0 0 0 0 .238l.369.31a.174.174 0 0 1 0 .244l-.288.337a.174.174 0 0 1-.239 0l-.33-.283a.168.168 0 0 0-.245 0l-.272.353a.163.163 0 0 0 0 .234l.266.222a.18.18 0 0 1 0 .245l-.287.336a.174.174 0 0 1-.24 0l-.233-.195a.168.168 0 0 0-.244 0l-.543.684h-.76a.168.168 0 0 0-.168.173v.228a.174.174 0 0 1-.174.174h-.44a.167.167 0 0 1-.043-.065v-.239a.168.168 0 0 0-.168-.168h-.462a.168.168 0 0 0-.168.174v.228a.168.168 0 0 1-.168.173h-.445a.174.174 0 0 1-.217-.168v-.239a.168.168 0 0 0-.169-.168h-.456a.173.173 0 0 0-.174.174v.228a.17.17 0 0 1-.102.16.168.168 0 0 1-.066.013h-.445a.168.168 0 0 1-.168-.168v-.239a.168.168 0 0 0-.174-.168h-.744l-.483-.619a.174.174 0 0 0-.244 0l-.157.136a.174.174 0 0 1-.24 0l-.287-.337a.18.18 0 0 1 0-.244l.195-.163a.168.168 0 0 0 0-.233l-.228-.397a.163.163 0 0 0-.244 0l-.26.223a.174.174 0 0 1-.24 0l-.396-.467.424-.364a.168.168 0 0 0 .027-.233l-.483-.624-4.435 3.794Zm4.712 5.092.065.055c.207.17.44.307.69.407l1.286 4.234a3.85 3.85 0 0 0-.337.923l-1.704-5.619Zm7.996 8.583a3.426 3.426 0 1 1-5.316-4.322 3.426 3.426 0 0 1 5.316 4.322Zm1.026-2.671a3.725 3.725 0 0 0-.293-1.02l1.118-3.448c.262-.065.51-.181.727-.342l-1.552 4.81Zm1.417-7.904a1.792 1.792 0 1 1-2.546.244 1.808 1.808 0 0 1 2.546-.244Zm-1.802-.603a2.047 2.047 0 0 0-.739.418L10.7 6.992a2.665 2.665 0 0 0-.505-.738l4.979 1.286Zm-8.74-.923a2.378 2.378 0 1 1 .347 3.345 2.378 2.378 0 0 1-.342-3.345h-.005Z"/><path d="M15.38 3.002V1.889a.337.337 0 0 0-.337-.336h-3.127a.125.125 0 0 0-.125.119v1.585h-.341V1.672a.12.12 0 0 0-.12-.12h-.347a.125.125 0 0 0-.125.12v1.585h-.57V1.672a.118.118 0 0 0-.035-.084.12.12 0 0 0-.085-.035h-.255a.12.12 0 0 0-.125.119v1.585h-.874V1.553h-.39a.342.342 0 0 0-.343.336v1.113a.738.738 0 0 0 .733.733h5.717a.733.733 0 0 0 .749-.733ZM8.225 1.357h7.117a.19.19 0 0 0 .185-.19.184.184 0 0 0-.185-.184H8.225a.185.185 0 0 0-.184.184.19.19 0 0 0 .184.19ZM8.686.841h6.194a.223.223 0 0 0 .223-.222.619.619 0 0 0-.619-.619H9.083a.619.619 0 0 0-.62.619.223.223 0 0 0 .223.222ZM5.13 13.523l-.499-2.145L1.7 15.83l2.513-.874.918-1.433ZM5.793 16.378l-1.677 2.628 2.155-.576-.478-2.052ZM4.061 8.93.093 15.151a.755.755 0 0 0 1.27.81l3.176-4.979-.478-2.052Zm-.684 1.84c0 .033 0 .076-.038.136-.038.06-.043.12-.076.195-.032.076-.065.163-.103.256a3.35 3.35 0 0 1-.135.287l-.158.299-.092.163-.05.081-.037.103c-.06.114-.13.228-.2.337-.071.108-.142.223-.218.326-.033.054-.07.107-.109.157l-.108.152c-.076.098-.147.195-.223.282l-.228.245-.184.2-.152.152c-.031.033-.064.064-.098.093l-.038.032h-.027l.114-.152.25-.401c.206-.337.488-.782.765-1.222l.776-1.216.26-.418.099-.152.01.065ZM5.234 13.908l-2.714 4.17a.754.754 0 0 0 .228 1.042.748.748 0 0 0 1.042-.223l1.89-2.931-.446-2.058Zm-.69 1.868v.097c-.01.052-.025.103-.043.152 0 .06-.038.125-.06.19-.021.065-.06.141-.092.217l-.108.24-.065.119-.055.038-.032.06c-.044.086-.098.162-.147.244a3.635 3.635 0 0 1-.157.239l-.082.114-.087.108-.162.2-.158.17-.146.14-.12.104-.081.065h-.027l.07-.114.152-.245.543-.89.543-.88c.076-.124.141-.222.19-.292l.07-.11c.02.01.038.02.055.034ZM18.437 13.523l.912 1.433 2.518.874-2.931-4.452-.5 2.145ZM17.296 18.43l2.155.576-1.677-2.628-.478 2.052ZM23.474 15.151 19.517 8.93l-.478 2.052 3.192 4.978a.755.755 0 0 0 1.27-.809h-.027ZM18.333 13.908l-.445 2.058 1.895 2.931a.75.75 0 0 0 1.042.223.755.755 0 0 0 .228-1.043l-2.72-4.169ZM17.177 20.91H6.57a.413.413 0 0 0-.413.413v.902c0 .228.185.412.413.412h10.607a.413.413 0 0 0 .413-.412v-.902a.413.413 0 0 0-.413-.412ZM13.55 3.892h-3.539a.217.217 0 0 0-.217.217v.066c0 .12.097.217.217.217h3.54c.12 0 .217-.097.217-.217v-.066a.217.217 0 0 0-.218-.217ZM15.668 22.849h-7.6a.348.348 0 0 0-.348.348.804.804 0 0 0 .804.803h.787a.11.11 0 0 0 .105-.066.109.109 0 0 0 .009-.043v-.418a.108.108 0 0 1 .114-.108h.331a.115.115 0 0 1 .114.108v.413a.109.109 0 0 0 .109.108h.304a.108.108 0 0 0 .08-.03.107.107 0 0 0 .034-.078v-.418a.108.108 0 0 1 .114-.109h.33a.114.114 0 0 1 .115.109v.418a.109.109 0 0 0 .108.108h.304a.109.109 0 0 0 .114-.108v-.418a.108.108 0 0 1 .114-.109h.331a.114.114 0 0 1 .114.109v.418a.109.109 0 0 0 .109.108h.304a.108.108 0 0 0 .105-.065.109.109 0 0 0 .01-.043v-.418a.108.108 0 0 1 .113-.109h.331a.114.114 0 0 1 .114.109v.418a.109.109 0 0 0 .109.108h.304a.108.108 0 0 0 .08-.03.109.109 0 0 0 .034-.078v-.418a.108.108 0 0 1 .114-.109h.33a.109.109 0 0 1 .11.109v.418a.114.114 0 0 0 .114.108h.776a.797.797 0 0 0 .803-.803.343.343 0 0 0-.347-.342Z"/></g><defs><clipPath id="a"><path fill="#fff" d="M0 0h24v24H0z"/></clipPath></defs></svg>