<svg xmlns="http://www.w3.org/2000/svg" width="24" height="24" fill="none"><g fill="#000" clip-path="url(#a)"><path d="M0 11.254c.19-.47.548-.632 1.043-.616.669.023 1.338 0 2.007 0a.789.789 0 1 1 .018 1.572H1.975c-.327 0-.655-.014-.98 0A.898.898 0 0 1 0 11.612v-.358ZM11.254 22.865c-.47-.19-.633-.547-.617-1.04.023-.646 0-1.295 0-1.941.006-.185.051-.366.133-.532a.745.745 0 0 1 .816-.369.784.784 0 0 1 .612.635c.016.106.024.212.022.319 0 .632-.016 1.264 0 1.895.016.492-.144.85-.616 1.04l-.35-.007ZM17.186 11.433a5.745 5.745 0 1 1-5.747-5.75 5.777 5.777 0 0 1 5.747 5.75Zm-1.579 0a4.17 4.17 0 1 0-4.177 4.17 4.125 4.125 0 0 0 4.173-4.18l.004.01ZM10.66 1.921c0-.408-.02-.818 0-1.226a.763.763 0 0 1 .658-.687.79.79 0 0 1 .827.451.539.539 0 0 1 .06.213c0 .846.02 1.693 0 2.54a.73.73 0 0 1-.672.684.765.765 0 0 1-.827-.504c-.04-.127-.06-.26-.06-.394v-1.07l.014-.007ZM20.924 12.219h-1.16a.766.766 0 0 1-.733-.49.736.736 0 0 1 .137-.81.8.8 0 0 1 .635-.272h2.23a.786.786 0 1 1 0 1.572h-1.114.005ZM19.746 18.855c-.03.428-.174.674-.474.809a.72.72 0 0 1-.844-.154c-.376-.36-.738-.733-1.107-1.1-.183-.183-.37-.364-.55-.552a.77.77 0 1 1 1.103-1.077c.534.527 1.07 1.052 1.588 1.604.114.144.209.302.284.47ZM6.3 5.686a.713.713 0 0 1-.425.566.703.703 0 0 1-.797-.076 4.848 4.848 0 0 1-.422-.399c-.433-.43-.866-.859-1.292-1.294a.768.768 0 0 1-.04-1.119.76.76 0 0 1 1.133.037c.53.523 1.052 1.052 1.579 1.577a.866.866 0 0 1 .263.708ZM16.558 5.457c.055-.155.132-.3.23-.431a63.021 63.021 0 0 1 1.654-1.662.766.766 0 1 1 1.088 1.075 81.86 81.86 0 0 1-1.672 1.673.721.721 0 0 1-.846.158c-.284-.135-.438-.38-.454-.813ZM6.31 17.398c-.053.156-.13.304-.228.437a63.915 63.915 0 0 1-1.67 1.678.764.764 0 0 1-1.096-1.061c.561-.585 1.146-1.146 1.72-1.721a.699.699 0 0 1 .83-.128c.28.125.42.378.445.795Z"/></g><defs><clipPath id="a"><path fill="#fff" d="M0 0h24v24H0z"/></clipPath></defs></svg>