<svg xmlns="http://www.w3.org/2000/svg" width="29" height="24" fill="none"><path fill="#000" d="m27.15.802-.846 1.997a2.816 2.816 0 0 1-2.721 1.82h-6.596v2.278H19.38c1.632 0 2.759 1.055 2.947 2.666.236 2.035.508 4.065.764 6.098.218 1.725.446 3.45.648 5.17a1.675 1.675 0 0 1-.975 1.733c-.216.098-.45.149-.688.15H5.265a2.365 2.365 0 0 1-.969-.2 1.649 1.649 0 0 1-.887-1.74L4.677 10.68c.053-.57.139-1.139.256-1.7a2.748 2.748 0 0 1 2.601-2.084c.779-.022 1.557 0 2.332 0h.297c0-.096.016-.164.016-.234V4.627H3.483C2.049 4.62 1.05 3.903.596 2.543L.109 1.087A2.207 2.207 0 0 0 0 .856V.483A.77.77 0 0 1 .767.094h25.626a.773.773 0 0 1 .768.39l-.011.318ZM13.57 21.59h8.404a.569.569 0 0 0 .629-.708c-.035-.299-.074-.596-.112-.892L21.201 9.63c-.122-.977-.788-1.613-1.716-1.613H7.66a1.649 1.649 0 0 0-1.674 1.434c-.215 1.548-.397 3.099-.593 4.65l-.84 6.704c-.066.544.154.781.69.781l8.326.003ZM25.737 1.237H1.36l.292.892c.318.964.873 1.36 1.904 1.36h20.1a1.579 1.579 0 0 0 1.464-.848c.237-.438.405-.914.618-1.404ZM11.317 6.864h4.505V4.633h-4.497l-.008 2.23Z"/><path fill="#000" d="M13.583 11.408c2.77 0 5.104 2.308 5.083 5.02a.572.572 0 0 1-.832.567.545.545 0 0 1-.249-.28 1.235 1.235 0 0 1-.049-.338c-.106-1.568-.832-2.743-2.244-3.437-2.569-1.26-5.497.523-5.676 3.423 0 .106-.012.212-.036.316a.563.563 0 0 1-1.088-.24c.087-2.092 1.075-3.613 2.941-4.552a4.734 4.734 0 0 1 2.15-.479Z"/><path fill="#000" d="M14.677 14.801a.569.569 0 0 1 .522.838c-.22.471-.462.93-.694 1.396-.138.272-.272.544-.416.816a.565.565 0 0 1-1.051-.053.563.563 0 0 1 .039-.44c.367-.753.745-1.498 1.121-2.247a.545.545 0 0 1 .479-.31Z"/></svg>