<svg xmlns="http://www.w3.org/2000/svg" width="24" height="24" fill="none"><path fill="#000" d="M10.774.587h1.34c.057.016.114.028.172.036 1.764.11 3.473.649 4.982 1.568 2.963 1.822 4.786 4.44 5.425 7.865.08.429.12.864.18 1.297v1.341c-.02.16-.038.321-.056.482a11.247 11.247 0 0 1-2.801 6.388 11.197 11.197 0 0 1-8.096 3.879 10.875 10.875 0 0 1-6.306-1.605C2.64 20.038.818 17.416.179 13.992c-.08-.429-.122-.867-.179-1.3V11.36l.055-.481a11.299 11.299 0 0 1 2.872-6.48A11.218 11.218 0 0 1 9.467.765c.429-.078.867-.119 1.307-.178ZM21.35 12.025a9.914 9.914 0 1 0-9.92 9.912 9.94 9.94 0 0 0 9.92-9.912Z"/><path fill="#000" d="M11.434 15.067a1.52 1.52 0 0 1-1.492-1.809c.057-.294.202-.565.414-.777a1.466 1.466 0 0 1 1.626-.35.39.39 0 0 0 .385-.033c1.208-.733 2.418-1.46 3.628-2.189l.094-.057c.273-.158.48-.14.612.055.133.195.07.396-.176.59l-3.381 2.67a.434.434 0 0 0-.195.385 1.504 1.504 0 0 1-1.515 1.515ZM6.111 15.069v.763H7.23a.378.378 0 0 1 .257.655.374.374 0 0 1-.278.097h-1.1v.763h.823c.119-.003.237.003.355.016a.362.362 0 0 1 .326.365.353.353 0 0 1-.321.364c-.207.02-.415.016-.624.019h-.894c-.298 0-.44-.145-.44-.443v-2.925c0-.305.151-.442.459-.444h1.361c.284 0 .459.155.459.385 0 .229-.17.371-.459.376-.334.011-.676.009-1.043.009ZM16.786 15.069v.763h.864a1.91 1.91 0 0 1 .312.016.362.362 0 0 1 .328.383.358.358 0 0 1-.358.353c-.325.014-.653 0-.98 0-.051 0-.102 0-.18.016v.871c.004.111-.002.222-.018.332a.335.335 0 0 1-.341.294.342.342 0 0 1-.377-.277 1.007 1.007 0 0 1-.025-.243v-2.751c0-.417.129-.541.553-.541h1.2a1.05 1.05 0 0 1 .23.018.371.371 0 0 1-.055.736c-.298.011-.594 0-.892 0l-.26.03ZM16.373 7.922a.777.777 0 0 1-.751-.403.667.667 0 0 1 .057-.796 18.51 18.51 0 0 1 1.26-1.25.75.75 0 0 1 1.046 1.046c-.397.44-.825.855-1.258 1.26a.972.972 0 0 1-.354.143ZM7.335 7.082a.775.775 0 0 1-.408.757.67.67 0 0 1-.795-.062c-.433-.394-.85-.81-1.245-1.242A.75.75 0 0 1 5.96 5.492c.429.39.832.804 1.229 1.228.071.11.12.234.146.362ZM12.195 4.415v.759a.759.759 0 0 1-1.515 0V3.613a.758.758 0 1 1 1.515 0c.009.268 0 .534 0 .802ZM3.8 12.781h-.758a.758.758 0 0 1 0-1.515c.52-.01 1.04-.01 1.56 0a.76.76 0 0 1-.018 1.515c-.263.007-.525 0-.784 0ZM19.053 12.784h-.758a.759.759 0 0 1 0-1.518c.505-.007 1.01-.007 1.515 0a.76.76 0 0 1 0 1.518c-.252.005-.505 0-.757 0Z"/></svg>