<svg xmlns="http://www.w3.org/2000/svg" width="32" height="24" fill="none"><path fill="#000" d="M14.541 19.771h-4.76c-.47 0-.846-.188-.846-.432v-.188c0-.225.377-.413.847-.413h4.76V16.37H9.706a.847.847 0 0 1-.847-.827v-1.222a.845.845 0 0 1 .847-.826h4.834v-3.101H5.4a14.579 14.579 0 0 1 1.88-3.665c2.376-.47 4.786-.74 7.206-.808v-.526A20.899 20.899 0 0 0 6.96 6.503a21.182 21.182 0 0 0-2.953 3.928l-.734-.282v-.507a.751.751 0 0 0-.752-.733H.752A.753.753 0 0 0 0 9.642v.545a.733.733 0 0 0 .752.733h1.769a.715.715 0 0 0 .451-.15l.395.15-1.486.94c-.51.394-.987.828-1.43 1.296v.733a.79.79 0 0 0-.3.62v6.71a.864.864 0 0 0 .865.845h4.872a.847.847 0 0 0 .846-.845v-.545h7.807v-.903ZM5.87 18.55a.6.6 0 0 1-.64.583H2.428a.622.622 0 0 1-.659-.583v-.244a.62.62 0 0 1 .659-.583H5.23a.622.622 0 0 1 .64.583v.244Zm.828-3.007a.808.808 0 0 1-.771.827H2.558a.81.81 0 0 1-.79-.827v-1.222a.807.807 0 0 1 .79-.826h3.368a.81.81 0 0 1 .77.826v1.222ZM29.082 3.534h-1.881a1.88 1.88 0 0 0-1.637-1.052h-.15a2.574 2.574 0 0 0-3.52-2.3c-.324.13-.617.324-.863.57a2.517 2.517 0 0 0-.753 1.73h-.225a1.882 1.882 0 0 0-1.637 1.052h-2.878V24H30.23V3.534h-1.148ZM22.084 1.75a1.167 1.167 0 0 1 1.637 0c.197.196.317.456.338.733h-2.313c.03-.275.148-.533.338-.733Zm6.697 20.804h-11.85V5.15h1.354v.696h9.067V5.15h1.373l.056 17.403Zm-4.044-11.276-.583.883-.377.583-.564.845h-.696l-.94-.883-1.148-1.033-.771-.715 1.373-.827 1.486 1.166 3.31-3.101.753.244-1.843 2.838Zm-5.098 6.24 1.373-.828 1.561 1.166 3.311-3.101.753.244-1.881 2.725-.979 1.485-.564.827-.696.112-2.878-2.63Z"/></svg>