<svg xmlns="http://www.w3.org/2000/svg" width="24" height="24" fill="none"><path fill="#000" d="M11.436 0a11.436 11.436 0 0 1 0 22.872C5.153 22.872 0 17.747 0 11.49A11.45 11.45 0 0 1 11.436 0ZM.673 10.64l.086.028.636-.51c.229-.174.417-.179.551-.016.135.162.087.363-.123.535-.336.272-.68.53-1.006.82a.4.4 0 0 0-.13.278c0 .31.031.624.068.933a10.58 10.58 0 0 0 2.447 5.647c.04.04.084.077.13.11.037-.318.062-.604.103-.89.035-.245.179-.36.385-.33.206.03.3.186.274.43-.043.43-.098.86-.128 1.29a.428.428 0 0 0 .108.305 10.62 10.62 0 0 0 5.67 2.795c.3.05.603.073.972.119l-.542-.686c-.19-.23-.202-.428-.037-.57.165-.142.368-.09.567.153.263.325.52.652.79.97.063.074.154.12.25.128a10.62 10.62 0 0 0 6.588-2.497c.049-.047.094-.096.137-.147-.331-.039-.624-.066-.915-.107a.333.333 0 0 1-.31-.232c-.014-.044-.02-.09-.014-.137a.346.346 0 0 1 .423-.29c.43.043.862.08 1.29.14a.356.356 0 0 0 .352-.129 10.75 10.75 0 0 0 2.763-5.599c.055-.315.078-.633.123-1.018l-.697.56c-.215.172-.419.177-.551.015-.133-.163-.087-.364.125-.536.337-.272.687-.537 1.007-.819a.37.37 0 0 0 .121-.256 10.656 10.656 0 0 0-2.48-6.569.717.717 0 0 1-.08-.192l-.086.08c-.035.293-.062.588-.103.88a.325.325 0 0 1-.239.306.339.339 0 0 1-.423-.396c.042-.43.079-.863.14-1.29a.374.374 0 0 0-.135-.373A10.665 10.665 0 0 0 13.687.915c-.478-.103-.968-.156-1.453-.229L12.21.75c.174.217.35.432.522.65.171.217.167.418 0 .549-.167.13-.357.084-.52-.12-.279-.34-.546-.685-.834-1.022a.37.37 0 0 0-.259-.12 10.668 10.668 0 0 0-6.381 2.337c-.11.087-.213.178-.36.304.358.041.648.069.939.11a.332.332 0 0 1 .183.607.343.343 0 0 1-.275.054c-.43-.044-.862-.08-1.29-.14a.355.355 0 0 0-.352.13 10.585 10.585 0 0 0-2.564 4.696C.865 9.394.785 10.02.673 10.64Z"/><path fill="#000" d="M3.904 11.436a7.534 7.534 0 1 1 7.486 7.548 7.548 7.548 0 0 1-7.486-7.548Zm.67 0a6.862 6.862 0 1 0 6.862-6.862 6.875 6.875 0 0 0-6.862 6.862Z"/><path fill="#000" d="M11.436 17.55a6.109 6.109 0 1 1 .01-12.218 6.109 6.109 0 0 1-.01 12.218Zm0-7.795a1.686 1.686 0 1 0 .005 3.371 1.686 1.686 0 0 0-.005-3.371Zm2.258 2.42c.352.656.7 1.278 1.022 1.912a.797.797 0 0 0 .522.434c.58.176.58.19.887-.343a5.36 5.36 0 0 0 .741-2.822c-.272-.085-.53-.17-.789-.245a.283.283 0 0 0-.185 0c-.72.355-1.446.705-2.19 1.064h-.008Zm-4.524 0c-.74-.357-1.457-.705-2.178-1.048a.25.25 0 0 0-.16-.023c-.281.08-.558.17-.837.257a5.407 5.407 0 0 0 .844 2.984c.229.364.229.362.627.23.128-.044.26-.081.384-.136a.382.382 0 0 0 .176-.142c.387-.697.762-1.395 1.153-2.12l-.01-.002Zm.869-2.66c.114-.824.229-1.624.331-2.422a.245.245 0 0 0-.043-.154c-.158-.228-.32-.457-.49-.686a5.42 5.42 0 0 0-2.611 1.752c-.24.293-.23.295-.019.59.068.108.144.21.229.304a.686.686 0 0 0 .304.188c.76.15 1.514.29 2.299.428Zm1.397 4.302c-.427.457-.807.896-1.242 1.283a1.4 1.4 0 0 0-.519 1.276c.018.167.062.23.217.277.95.282 1.959.297 2.917.044.393-.103.393-.106.384-.499v-.432a.338.338 0 0 0-.066-.195c-.56-.579-1.114-1.162-1.69-1.754Zm1.4-4.302c.638-.117 1.24-.254 1.85-.327a1.267 1.267 0 0 0 1.023-.625c.126-.203.174-.338-.014-.503a.804.804 0 0 1-.075-.094 5.455 5.455 0 0 0-2.583-1.722c-.169.229-.331.457-.49.686a.245.245 0 0 0-.043.153l.337 2.434-.005-.002Zm1.018 6.79a5.39 5.39 0 0 0 1.45-1.054c-.215-.075-.384-.149-.56-.192a.688.688 0 0 1-.474-.398c-.171-.352-.368-.686-.553-1.036l-.376-.686-1.065.777c.027.03.075.09.13.147.382.4.75.812 1.144 1.191a.867.867 0 0 1 .304.762c-.01.142.002.29.002.49h-.002Zm0-4.956c.602-.288 1.221-.597 1.855-.883a.772.772 0 0 1 .43-.032c.225.053.447.117.665.195a5.127 5.127 0 0 0-.548-1.69 2.825 2.825 0 0 0-.209.274 1.099 1.099 0 0 1-.899.574c-.583.068-1.16.203-1.706.302l.412 1.26Zm-4.312 1.587c-.02.035-.061.099-.098.167-.281.52-.567 1.039-.837 1.565a.685.685 0 0 1-.457.386c-.188.048-.369.128-.577.202.418.429.908.782 1.448 1.043v-.64a.613.613 0 0 1 .208-.511c.27-.263.522-.542.782-.814l.597-.61-1.066-.788Zm.98-6.889c.082.124.17.244.267.357a.991.991 0 0 1 .229.926c-.11.595-.167 1.199-.243 1.778h1.327c-.085-.627-.167-1.277-.266-1.924a.724.724 0 0 1 .145-.627c.12-.141.228-.306.37-.521l-1.83.011Zm-1.094 4.044c-.645-.119-1.32-.25-1.997-.364a.597.597 0 0 1-.425-.274c-.114-.17-.247-.33-.391-.52a5.173 5.173 0 0 0-.545 1.693c.114-.027.226-.062.334-.105a1.097 1.097 0 0 1 1.085.075c.507.284 1.045.51 1.537.746l.402-1.25Z"/></svg>