<svg xmlns="http://www.w3.org/2000/svg" width="19" height="24" fill="none"><g clip-path="url(#a)"><path fill="#000" d="M17.729.754 15.343.197a.41.41 0 0 0-.39.111l-1.23 1.21L12.505.325a1.114 1.114 0 0 0-1.57 0L2.533 8.727a1.104 1.104 0 0 0 0 1.57l1.439 1.438-.978.973a3.43 3.43 0 0 0 0 4.847 1.465 1.465 0 0 1 0 2.072l-2.801 2.8c-.385.38-.137.756.243 1.135.38.38.755.629 1.14.249l2.8-2.801a3.43 3.43 0 0 0 0-4.843 1.466 1.466 0 0 1 0-2.071l.978-.978 1.434 1.434a1.1 1.1 0 0 0 1.21.242 1.1 1.1 0 0 0 .36-.242l8.403-8.404a1.105 1.105 0 0 0 0-1.57l-1.215-1.215 2.289-2.285a.193.193 0 0 0-.106-.324Z"/></g><defs><clipPath id="a"><path fill="#fff" d="M0 0h18.546v24H0z"/></clipPath></defs></svg>