<svg xmlns="http://www.w3.org/2000/svg" width="16" height="24" fill="none"><g fill="#000" clip-path="url(#a)"><path d="M11.626 17.545a40.929 40.929 0 0 1-8.539 0A2.788 2.788 0 0 0 0 20.318a1.566 1.566 0 0 0 1.476 1.56 96.5 96.5 0 0 0 5.791.166c2.084 0 4.071-.057 5.963-.166a1.559 1.559 0 0 0 1.47-1.56 2.79 2.79 0 0 0-1.922-2.65 2.786 2.786 0 0 0-1.152-.123ZM5.458 3.835c.645.1 1.297.146 1.95.14a12.483 12.483 0 0 0 1.847-.14 1.278 1.278 0 0 0 .971-1.406c0-.307-.05-.735-.095-1.132A1.234 1.234 0 0 0 9.165.141a11.78 11.78 0 0 0-3.63 0 1.22 1.22 0 0 0-.946 1.137c-.051.39-.115.818-.115 1.125a1.278 1.278 0 0 0 .984 1.432ZM3.119 17.257c1.395.148 2.796.223 4.199.224h.038a40.707 40.707 0 0 0 4.232-.224c.43-.047.865-.003 1.278.128a16.488 16.488 0 0 0-.333-4.519c-.294-1.355-.786-2.71-.594-4.672.047-.483.13-.962.25-1.432a1.962 1.962 0 0 0-.129-1.361 2.059 2.059 0 0 0-2.07-1.157c-.871.09-1.746.134-2.62.134a25.756 25.756 0 0 1-2.64-.153 2.058 2.058 0 0 0-2.071 1.157 2 2 0 0 0-.103 1.361c.122.47.208.949.256 1.432.185 1.962-.307 3.317-.6 4.672a16.523 16.523 0 0 0-.327 4.519c.4-.12.82-.156 1.234-.109ZM12.994 22.287H1.713a.358.358 0 0 0-.268.594l.083.096A2.952 2.952 0 0 0 3.765 24h7.17a2.98 2.98 0 0 0 2.18-.953l.14-.16a.357.357 0 0 0-.261-.6Zm-.716.678a2.908 2.908 0 0 1-1.738.556H4.148a2.877 2.877 0 0 1-1.732-.556.076.076 0 0 1 .045-.141h9.766a.077.077 0 0 1 .051.14Z"/></g><defs><clipPath id="a"><path fill="#fff" d="M0 0h15.6v24H0z"/></clipPath></defs></svg>