<svg xmlns="http://www.w3.org/2000/svg" width="24" height="24" fill="none"><g fill="#000" clip-path="url(#a)"><path d="M21.076 15.318c-.55.06-1.208.139-1.885.248a38.87 38.87 0 0 0-7.6 2.03A890.02 890.02 0 0 0 1.397 21.28a1.275 1.275 0 0 0-.834 1.209l21.841-6.471a1.366 1.366 0 0 0-1.33-.701ZM23.922 16.387a.542.542 0 0 0-.677-.368L.413 22.755a.544.544 0 0 0-.294.866.547.547 0 0 0 .578.18l22.886-6.737a.544.544 0 0 0 .339-.677ZM9.833 8.847l.271-.036a.212.212 0 0 1 .236.151l.707 2.477a.217.217 0 0 0 .236.157l.247-.03a.206.206 0 0 1 .236.181l.604 5.172c.574-.2 1.209-.405 1.843-.604l-.556-4.815a.212.212 0 0 1 .187-.242.211.211 0 0 0 .181-.223l-.175-2.707a.212.212 0 0 1 .079-.181c.652-.55.44-1.982.338-4.586 0-.399-.06-.84-.12-1.317v-.018A2.542 2.542 0 0 0 11.3.02L8.183.437a2.507 2.507 0 0 0-2.09 3.208c.368 1.245 2.453 5.366 3.74 5.202ZM6.812 2.842l.157-.042.568-.151c.23-.067.501-.145.78-.236l.217-.073.217-.078.441-.17c.151-.054.296-.12.435-.18l.212-.079.205-.097.2-.096.187-.097.344-.181.29-.157.224-.121.145-.079.066-.042-.042.042a.96.96 0 0 1-.115.121c-.058.065-.12.126-.187.181l-.115.11-.145.108-.151.12-.17.122c-.054.042-.114.078-.18.12l-.194.121a6.75 6.75 0 0 1-1.329.592l-.236.067-.223.06-.441.085c-.14 0-.272.036-.393.042a4.277 4.277 0 0 1-.604 0h-.23l.067-.012ZM15.826 20.991a.525.525 0 0 1 .332-.223.054.054 0 0 0 .04-.023.054.054 0 0 0 .009-.02 1.929 1.929 0 0 0-.081-.406.054.054 0 0 0-.058-.023.526.526 0 0 1-.605-.284l-.942.29a1.444 1.444 0 1 1-2.48 1.476 1.463 1.463 0 0 1-.172-.684l-1.456.429c.018.116.042.23.072.344a.06.06 0 0 0 .073.043.52.52 0 0 1 .574.284.525.525 0 0 1-.03.525l-.091.103a.067.067 0 0 0 0 .084c.074.097.155.187.242.272a.066.066 0 0 0 .084 0 .52.52 0 0 1 .64-.048.538.538 0 0 1 .207.625c0 .008.002.015.005.022a.052.052 0 0 0 .012.018c.005.005.011.009.018.012.115.048.23.084.345.12a.066.066 0 0 0 .078-.042.325.325 0 0 1 .06-.12.525.525 0 0 1 .955.187.067.067 0 0 0 .066.048c.12-.018.24-.042.357-.073a.072.072 0 0 0 .048-.072.526.526 0 0 1 .278-.574.526.526 0 0 1 .604.12c.005.006.012.01.018.013a.054.054 0 0 0 .043 0 2.09 2.09 0 0 0 .296-.254.052.052 0 0 0 .017-.04.054.054 0 0 0-.017-.038.532.532 0 0 1 .568-.852.055.055 0 0 0 .044-.002.055.055 0 0 0 .028-.035 2.1 2.1 0 0 0 .119-.366.055.055 0 0 0-.02-.04.053.053 0 0 0-.02-.01.526.526 0 0 1-.363-.532.52.52 0 0 1 .103-.254ZM21.257 21.462a2.248 2.248 0 0 0 .218-3.165l-.037-.037-3.866 1.142a2.242 2.242 0 0 0 3.685 2.06Z"/><path d="M23.62 19.716a.701.701 0 0 1-.417-1.208.638.638 0 0 1 .157-.103.078.078 0 0 0 .036-.102 4.218 4.218 0 0 0-.211-.441.084.084 0 0 0-.109 0 .695.695 0 0 1-.344.072l-.997.211a2.526 2.526 0 1 1-4.465 1.318l-1.208.356a.706.706 0 0 1 .29 1.209.65.65 0 0 1-.151.096.09.09 0 0 0-.043.103c.067.15.14.296.218.44a.079.079 0 0 0 .103 0 .714.714 0 0 1 .845.176.7.7 0 0 1 .049.852.084.084 0 0 0 0 .109c.128.101.264.194.404.278a.084.084 0 0 0 .11-.03.602.602 0 0 1 .12-.134.712.712 0 0 1 .743-.072.701.701 0 0 1 .447.737.084.084 0 0 0 .073.085c.16.009.322.009.483 0a.085.085 0 0 0 .085-.085.684.684 0 0 1 .241-.483.658.658 0 0 1 .327-.157.694.694 0 0 1 .767.38.079.079 0 0 0 .103.037c.15-.062.298-.133.44-.212a.079.079 0 0 0 .031-.103.7.7 0 0 1 1.027-.894.09.09 0 0 0 .109 0c.1-.128.19-.264.272-.405a.078.078 0 0 0 0-.108.707.707 0 0 1-.067-1.118c.141-.12.323-.18.508-.17a.091.091 0 0 0 .09-.072c.01-.16.01-.322 0-.483a.084.084 0 0 0-.066-.079Z"/></g><defs><clipPath id="a"><path fill="#fff" d="M0 0h24v24H0z"/></clipPath></defs></svg>