<svg xmlns="http://www.w3.org/2000/svg" width="24" height="24" fill="none"><g clip-path="url(#a)"><path stroke="#000" stroke-linecap="round" stroke-linejoin="round" stroke-width="2" d="M10.209 2.584H5.39c-1.42 0-2.13 0-2.673.274-.477.24-.865.625-1.108 1.097-.277.537-.277 1.24-.277 2.646v12.05c0 1.405 0 2.108.277 2.645.243.472.63.856 1.108 1.097.542.274 1.253.274 2.673.274h12.172c1.42 0 2.13 0 2.673-.274.477-.24.865-.625 1.108-1.097.276-.537.276-1.24.276-2.646v-5.397m-5.705-8.786 3.586 3.55m-9.593 2.396 8.43-8.344c.99-.98 2.596-.98 3.586 0 .99.98.99 2.57 0 3.55l-8.7 8.612c-.966.957-1.45 1.434-2 1.815a7.643 7.643 0 0 1-1.568.832c-.624.244-1.294.377-2.632.645l-.619.123.06-.417c.213-1.475.32-2.213.562-2.901a7.5 7.5 0 0 1 .873-1.73c.411-.604.944-1.131 2.008-2.185Z"/></g><defs><clipPath id="a"><path fill="#fff" d="M0 0h24v24H0z"/></clipPath></defs></svg>