<?xml version="1.0" encoding="utf-8"?><svg xmlns="http://www.w3.org/2000/svg" xmlns:xlink="http://www.w3.org/1999/xlink"><symbol viewBox="0 0 30 24" id="icon-boxes" xmlns="http://www.w3.org/2000/svg"><g clip-path="url(#aaa)"><path d="M0 23.802V3.114A3.134 3.134 0 0 1 3.114 0h23.524a3.134 3.134 0 0 1 3.114 3.114v20.688h-1.983V3.114a1.032 1.032 0 0 0-1.032-1.031H3.114a1.031 1.031 0 0 0-1.031 1.031v20.688H0Zm25.11-3.809v3.273a.675.675 0 0 1-.674.675h-2.221a.674.674 0 0 1-.674-.675v-.317c-1.23 0-3.095.198-5.752.198h-.913a.138.138 0 0 1-.119 0c-2.697 0-4.661 0-5.95-.139H8.27v.318a.674.674 0 0 1-.674.674h-2.28a.674.674 0 0 1-.675-.674v-3.352a.159.159 0 0 1 0-.14c-.139-2.141 0-3.47.238-3.728.105-.064.199-.145.278-.238v-.397c.238-.655.912-.774 1.19-.952l-.119-.278H6.03a5.092 5.092 0 0 1-.595 0 .694.694 0 0 1-.595-.674c.139-.793 1.09-.853 1.19-.853a.674.674 0 0 1 .515.159c.205.2.332.468.357.753v.318c.715-1.428 1.29-2.42 1.31-2.44a2.122 2.122 0 0 1 1.705-1.368 36.062 36.062 0 0 1 4.8-.219h.238a36.07 36.07 0 0 1 4.76.298s.873 0 1.528 1.29c0 0 .595.99 1.309 2.419v-.337a1.25 1.25 0 0 1 .337-.734.754.754 0 0 1 .536-.159s1.051 0 1.19.853a.695.695 0 0 1-.615.674 4.09 4.09 0 0 1-.575 0h-.199l-.119.278c.298.179.953.298 1.19.952v.258c.057.116.13.223.219.317.158.14.436.794.238 3.71a.214.214 0 1 1 .357.238v.02Zm-18.446 0a.496.496 0 0 0-.495-.476.494.494 0 0 0-.595.486.496.496 0 0 0 .595.486.496.496 0 0 0 .495-.436v-.06Zm1.984-2.32a1.19 1.19 0 1 0-1.19 1.19 1.19 1.19 0 0 0 1.13-1.13l.06-.06Zm6.228-3.57s4.383 0 6.764.238h.178c-.357-1.25-1.17-3.253-1.765-3.372a24.88 24.88 0 0 0-5.177-.338c-1.71-.084-3.426.01-5.117.278-.595.12-1.409 2.122-1.766 3.372h.14c2.36-.159 6.703-.179 6.743-.179Zm5.078 3.966s-.12-.218-.992-.376a30.067 30.067 0 0 0-4.086-.298 30.065 30.065 0 0 0-4.086.298c-.873.158-.873.357-.992.416.444.728.671 1.567.655 2.42 1.459.196 2.933.262 4.403.198 1.47.064 2.944-.002 4.403-.198a4.483 4.483 0 0 1 .695-2.42v-.04Zm2.4.814a1.19 1.19 0 1 0 0-2.38 1.19 1.19 0 0 0 0 2.38Zm1.706 1.13a.496.496 0 1 0-.972.197.496.496 0 0 0 .971-.197Zm2.935-17.236H2.598v1.706h24.397V2.777Zm0 2.28H2.678v1.726h24.396l-.079-1.725Z"/></g><defs><clipPath id="aaa"><path d="M0 0h29.76v24H0z"/></clipPath></defs></symbol><symbol viewBox="0 0 24 24" id="icon-brakes" xmlns="http://www.w3.org/2000/svg"><g clip-path="url(#aba)"><path d="M11.073 7.497a5.436 5.436 0 1 0 5.436 5.43 5.424 5.424 0 0 0-5.436-5.43Zm0 1.135a.766.766 0 1 1-.766.766.76.76 0 0 1 .766-.738v-.028Zm-3.547 3.892a.767.767 0 1 1 .965-.488.76.76 0 0 1-.965.517v-.029Zm2.122 3.643a.765.765 0 1 1-1.242-.895.765.765 0 0 1 1.242.895Zm1.43-1.765a1.475 1.475 0 1 1 1.364-.908 1.467 1.467 0 0 1-1.37.908h.006Zm2.491 1.935a.766.766 0 1 1-.857-1.27.766.766 0 0 1 .857 1.27Zm1.544-4.743a.766.766 0 1 1-.384-.443.759.759 0 0 1 .378.443h.006Z"/><path d="M23.999 12.155A12.95 12.95 0 0 0 11.844.001a.732.732 0 0 0-.771.726v3.638a.727.727 0 0 0 .658.743 7.87 7.87 0 0 1 7.184 7.16.72.72 0 0 0 .72.66h3.632a.719.719 0 0 0 .732-.773Z"/><path d="M18.466 12.309a7.376 7.376 0 0 0-6.77-6.77 1.18 1.18 0 0 1-1.072-1.174V1.868A11.07 11.07 0 1 0 22.132 13.38h-2.497a1.176 1.176 0 0 1-1.169-1.072Zm-7.376 6.928a6.31 6.31 0 1 1 2.398-.479 6.306 6.306 0 0 1-2.415.479h.017Z"/></g><defs><clipPath id="aba"><path d="M0 0h24v24H0z"/></clipPath></defs></symbol><symbol viewBox="0 0 27 24" id="icon-camera" xmlns="http://www.w3.org/2000/svg"><g clip-path="url(#aca)"><path d="M19.428 13.139v9.164a1.35 1.35 0 0 1-1.325 1.325H1.441A1.441 1.441 0 0 1 0 22.328V11.823a1.441 1.441 0 0 1 1.408-1.408H18.07a1.356 1.356 0 0 1 1.324 1.408l.034 1.316Zm5.665-2.724c.608-.417 1.116-.209 1.116.6v12.23c0 .716-.508 1.007-1.116.5l-3.241-2.417a3 3 0 0 1-1.108-2.24v-4.033a2.935 2.935 0 0 1 1.108-2.124l3.24-2.516ZM4.449 3.033a3.19 3.19 0 0 0-3.233 3.241A3.182 3.182 0 0 0 4.45 9.498a3.183 3.183 0 0 0 3.24-3.224 3.19 3.19 0 0 0-3.24-3.24ZM14.262.001a4.857 4.857 0 1 0-.2 9.712 4.857 4.857 0 0 0 .2-9.712ZM4.75 20.104a1.367 1.367 0 0 0-1.417-1.4 1.366 1.366 0 0 0 0 2.724 1.367 1.367 0 0 0 1.417-1.324Z"/></g><defs><clipPath id="aca"><path d="M0 0h26.667v24H0z"/></clipPath></defs></symbol><symbol viewBox="0 0 24 24" id="icon-check" xmlns="http://www.w3.org/2000/svg"><path d="m10 15.586-3.293-3.293-1.414 1.414L10 18.414l9.707-9.707-1.414-1.414z"/></symbol><symbol viewBox="0 0 21 24" id="icon-clip" xmlns="http://www.w3.org/2000/svg"><g clip-path="url(#aea)"><path d="M6.15 24c-.953 0-1.885-.28-2.678-.806a4.796 4.796 0 0 1-1.775-2.15 4.765 4.765 0 0 1 1.046-5.223l6.816-6.778a1.611 1.611 0 0 1 2.272 0 1.593 1.593 0 0 1 0 2.26L5.015 18.08a1.598 1.598 0 0 0-.477 1.132 1.59 1.59 0 0 0 .471 1.133 1.607 1.607 0 0 0 1.756.344c.195-.081.373-.2.521-.35l9.089-9.036a4.79 4.79 0 0 0 1.412-3.39 4.768 4.768 0 0 0-1.412-3.388 4.949 4.949 0 0 0-3.409-1.359c-1.269 0-2.49.487-3.407 1.359l-6.816 6.777a1.607 1.607 0 0 1-1.751.347 1.608 1.608 0 0 1-.87-.865 1.59 1.59 0 0 1 .349-1.74l6.815-6.779c3.041-3.02 8.332-3.02 11.36 0a7.948 7.948 0 0 1 0 11.296L9.56 22.6A4.812 4.812 0 0 1 6.15 24Z"/></g><defs><clipPath id="aea"><path d="M0 0h21v24H0z"/></clipPath></defs></symbol><symbol viewBox="0 0 24 24" id="icon-close" xmlns="http://www.w3.org/2000/svg"><path d="M19.28 18.22a.75.75 0 1 1-1.06 1.06L12 13.06l-6.22 6.22a.75.75 0 1 1-1.06-1.06L10.94 12 4.72 5.78a.75.75 0 1 1 1.06-1.06L12 10.94l6.22-6.22a.75.75 0 1 1 1.06 1.06L13.06 12l6.22 6.22Z"/></symbol><symbol viewBox="0 0 23 24" id="icon-coating" xmlns="http://www.w3.org/2000/svg"><path d="M15.222 0a.31.31 0 0 0 .044.044c.41.27.385.719-.046.957-.752.417-1.515.832-2.25 1.27a6.066 6.066 0 0 0-1.687 1.446c-.63.813-.582 1.542.16 2.257a6.733 6.733 0 0 0 2.27 1.358c.916.356 1.832.649 2.749.986a8.72 8.72 0 0 1 3.57 2.314c1.173 1.313 1.698 2.878 1.746 4.615.048 1.737-.367 3.45-.997 5.087a25.096 25.096 0 0 1-.687 1.574 1.51 1.51 0 0 1-1.496.958H12.37a1.032 1.032 0 0 1-.23 0 .332.332 0 0 1 0-.655c.077-.008.153-.008.23 0h4.264a.356.356 0 0 0 .261-.106c1.043-1.533 1.9-3.157 2.351-4.97.082-.332.128-.671.2-1.006a.319.319 0 0 1 .243-.268.315.315 0 0 1 .128-.002.328.328 0 0 1 .281.366c0 .03 0 .06-.013.09a10.457 10.457 0 0 1-.594 2.323 17.676 17.676 0 0 1-1.684 3.313 3.797 3.797 0 0 0-.137.23c.419 0 .818.02 1.212 0a.689.689 0 0 0 .547-.415c.967-1.991 1.669-4.058 1.673-6.301 0-1.604-.435-3.085-1.517-4.322a7.868 7.868 0 0 0-3.26-2.154c-.883-.33-1.785-.61-2.665-.948a8.479 8.479 0 0 1-2.44-1.364c-.496-.41-.917-.884-1.018-1.549a5.67 5.67 0 0 1 0-.868c-.32.343-.387 1.145-.09 1.73.285.5.688.924 1.174 1.232 1.074.757 2.291 1.226 3.517 1.657 1.375.486 2.667 1.134 3.71 2.193a5.676 5.676 0 0 1 1.604 3.355v.112a.329.329 0 0 1-.287.383.338.338 0 0 1-.362-.319c-.052-.29-.091-.589-.167-.873a5.154 5.154 0 0 0-1.856-2.713 9.944 9.944 0 0 0-2.995-1.551 16.039 16.039 0 0 1-3.086-1.375A5.376 5.376 0 0 1 9.81 6.769a2.413 2.413 0 0 1-.23-2.78 5.916 5.916 0 0 1 1.868-2c.585-.42 1.208-.786 1.815-1.176.06-.039.122-.073.23-.135-.711-.025-1.35-.025-1.971.298-1.65.857-3.25 1.744-4.684 2.908a8.204 8.204 0 0 0-1.732 1.82c-.882 1.333-.729 2.602.458 3.666.355.313.768.56 1.146.85.553.387 1.083.807 1.585 1.258 1.405 1.374 1.685 3.054.86 4.841a10.155 10.155 0 0 1-2.223 2.965 23.763 23.763 0 0 1-3.352 2.684 1.004 1.004 0 0 0-.257.229h7.142c.082-.01.164-.01.246 0a.333.333 0 0 1 .19.535.331.331 0 0 1-.19.116.723.723 0 0 1-.18 0H.78a.728.728 0 0 1-.718-1.022c.09-.161.218-.297.374-.395 1.13-.78 2.291-1.523 3.398-2.337a11.324 11.324 0 0 0 2.763-2.798 3.993 3.993 0 0 0 .688-1.654c.12-.836-.181-1.533-.71-2.152A7.149 7.149 0 0 0 5.2 11.345a13.375 13.375 0 0 1-1.542-1.215 2.91 2.91 0 0 1-.972-2.442 3.64 3.64 0 0 1 .687-1.744A9.143 9.143 0 0 1 5.777 3.62a44.63 44.63 0 0 1 5.64-3.329A6.78 6.78 0 0 1 12.276 0h2.946ZM.654 22.117l.032.073H1.97a.315.315 0 0 0 .138-.067 26.17 26.17 0 0 0 4.264-3.185c.9-.854 1.718-1.778 2.216-2.935.568-1.338.447-2.587-.475-3.73A7.792 7.792 0 0 0 6.3 10.738a10.265 10.265 0 0 1-1.34-1.032C4.19 8.98 3.73 8.102 3.881 7c.06-.318.136-.633.23-.944-.21.276-.391.57-.544.88a2.17 2.17 0 0 0 .287 2.427c.263.321.563.611.893.864.488.375 1.022.687 1.515 1.063a4.326 4.326 0 0 1 1.482 1.833c.459 1.113.209 2.16-.357 3.162-.614 1.084-1.48 1.95-2.417 2.75A33.203 33.203 0 0 1 .846 21.96a2.04 2.04 0 0 0-.192.156Z"/><path d="M10.209 10.501a8.243 8.243 0 0 1-.754-.458.245.245 0 0 1 0-.378.474.474 0 0 1 .364-.112c.207.06.4.163.566.3a.426.426 0 0 1 .112.362c-.027.096-.174.179-.288.286Zm1.627.003c.259.169.507.353.744.552.053.048.02.28-.05.348a.43.43 0 0 1-.371.08 1.516 1.516 0 0 1-.527-.32.458.458 0 0 1-.099-.37c.025-.098.17-.169.303-.29ZM6.515 6.487c0-.35.243-.552.5-.417.256.135.311.917.11 1.093a.323.323 0 0 1-.52-.151 4.202 4.202 0 0 1-.09-.525Zm7.823 6.383c-.044.051-.108.193-.209.23a.427.427 0 0 1-.357-.076 1.682 1.682 0 0 1-.371-.492.402.402 0 0 1 .03-.36.457.457 0 0 1 .348-.108c.17.012.554.555.559.807Zm-.067 1.903v-.312a.305.305 0 0 1 .307-.293.29.29 0 0 1 .335.268c.022.228.022.459 0 .687a.287.287 0 0 1-.332.26.303.303 0 0 1-.285-.176.302.302 0 0 1-.027-.114 2.494 2.494 0 0 1 0-.309l.002-.011ZM8.206 4.228a1.408 1.408 0 0 1-.108.245 6.454 6.454 0 0 1-.334.415.337.337 0 0 1-.475.057.33.33 0 0 1-.052-.458c.103-.163.227-.312.369-.443a.44.44 0 0 1 .355-.075c.1.032.167.172.245.259Zm4.244 15.249a.321.321 0 0 1-.314-.459c.138-.21.308-.397.504-.554a.376.376 0 0 1 .355.034.372.372 0 0 1 .101.34 4.484 4.484 0 0 1-.513.602c-.04.037-.108.037-.133.037Zm2.037-2.695a5.934 5.934 0 0 1-.458.738.385.385 0 0 1-.374 0 .406.406 0 0 1-.117-.36c.065-.212.17-.41.312-.582a.427.427 0 0 1 .369-.08c.098.018.165.165.268.284ZM8.559 8.886c-.053.064-.105.188-.195.229a.392.392 0 0 1-.328-.014 1.945 1.945 0 0 1-.478-.458.401.401 0 0 1 0-.376.385.385 0 0 1 .355-.11 4.1 4.1 0 0 1 .59.527c.038.023.033.099.056.202Zm.662-5.449a.346.346 0 0 1-.328-.355.662.662 0 0 1 .569-.458.32.32 0 0 1 .323.355.701.701 0 0 1-.564.458Zm2.205 16.97a.645.645 0 0 1-.548.5.33.33 0 0 1-.328-.324.658.658 0 0 1 .55-.5.326.326 0 0 1 .326.324Z"/></symbol><symbol viewBox="0 0 32 24" id="icon-config" xmlns="http://www.w3.org/2000/svg"><path d="M14.541 19.771h-4.76c-.47 0-.846-.188-.846-.432v-.188c0-.225.377-.413.847-.413h4.76V16.37H9.706a.847.847 0 0 1-.847-.827v-1.222a.845.845 0 0 1 .847-.826h4.834v-3.101H5.4a14.579 14.579 0 0 1 1.88-3.665c2.376-.47 4.786-.74 7.206-.808v-.526A20.899 20.899 0 0 0 6.96 6.503a21.182 21.182 0 0 0-2.953 3.928l-.734-.282v-.507a.751.751 0 0 0-.752-.733H.752A.753.753 0 0 0 0 9.642v.545a.733.733 0 0 0 .752.733h1.769a.715.715 0 0 0 .451-.15l.395.15-1.486.94c-.51.394-.987.828-1.43 1.296v.733a.79.79 0 0 0-.3.62v6.71a.864.864 0 0 0 .865.845h4.872a.847.847 0 0 0 .846-.845v-.545h7.807v-.903ZM5.87 18.55a.6.6 0 0 1-.64.583H2.428a.622.622 0 0 1-.659-.583v-.244a.62.62 0 0 1 .659-.583H5.23a.622.622 0 0 1 .64.583v.244Zm.828-3.007a.808.808 0 0 1-.771.827H2.558a.81.81 0 0 1-.79-.827v-1.222a.807.807 0 0 1 .79-.826h3.368a.81.81 0 0 1 .77.826v1.222ZM29.082 3.534h-1.881a1.88 1.88 0 0 0-1.637-1.052h-.15a2.574 2.574 0 0 0-3.52-2.3c-.324.13-.617.324-.863.57a2.517 2.517 0 0 0-.753 1.73h-.225a1.882 1.882 0 0 0-1.637 1.052h-2.878V24H30.23V3.534h-1.148ZM22.084 1.75a1.167 1.167 0 0 1 1.637 0c.197.196.317.456.338.733h-2.313c.03-.275.148-.533.338-.733Zm6.697 20.804h-11.85V5.15h1.354v.696h9.067V5.15h1.373l.056 17.403Zm-4.044-11.276-.583.883-.377.583-.564.845h-.696l-.94-.883-1.148-1.033-.771-.715 1.373-.827 1.486 1.166 3.31-3.101.753.244-1.843 2.838Zm-5.098 6.24 1.373-.828 1.561 1.166 3.311-3.101.753.244-1.881 2.725-.979 1.485-.564.827-.696.112-2.878-2.63Z"/></symbol><symbol viewBox="0 0 22 24" id="icon-date" xmlns="http://www.w3.org/2000/svg"><path d="M4.92.947h.447a.459.459 0 0 0 .073.044 1.07 1.07 0 0 1 .775 1.075v.3h8.589a3.502 3.502 0 0 1 0-.5 1.146 1.146 0 0 1 .834-.916h.447a.228.228 0 0 0 .053.036 1.073 1.073 0 0 1 .795 1.126v.266h1.685c1.146 0 1.889.756 1.889 1.89V21.93c0 1.133-.759 1.889-1.891 1.889H2.387a2.21 2.21 0 0 1-.355-.02 1.779 1.779 0 0 1-1.534-1.85V4.13a1.76 1.76 0 0 1 1.316-1.687c.195-.045.396-.066.596-.064h1.671a3.746 3.746 0 0 1 0-.511c.085-.493.401-.761.839-.922Zm14.865 5.73H1.218v13.066c0 .773.426 1.2 1.204 1.202h13.086v-2.552a1.74 1.74 0 0 1 1.44-1.694c.242-.034.488-.047.733-.04h2.102l.002-9.981ZM4.076 3.094h-1.78a1.059 1.059 0 0 0-1.082 1.093v1.586c0 .058 0 .113.013.163h18.567V4.177a1.059 1.059 0 0 0-1.09-1.084h-1.752c-.083.983-.395 1.403-1.04 1.428a1.054 1.054 0 0 1-.725-.243c-.376-.303-.422-.727-.397-1.171H6.23c-.103.994-.408 1.398-1.06 1.414a1.05 1.05 0 0 1-.719-.252c-.36-.305-.408-.72-.374-1.176ZM1.214 21.307v.626c0 .728.437 1.169 1.164 1.169h16.254c.726 0 1.164-.44 1.164-1.172v-4.025c-.094.09-.153.142-.208.197-1.112 1.11-2.224 2.217-3.329 3.333a.76.76 0 0 1-.588.243H2.604a2.18 2.18 0 0 1-1.391-.371Zm18.014-3.915h-1.923a1.06 1.06 0 0 0-1.082 1.09v1.784a.95.95 0 0 0 0 .117l3.005-2.991ZM4.788 2.733v.688a.358.358 0 0 0 .49.356.353.353 0 0 0 .217-.345v-1.4a.348.348 0 0 0-.36-.37.353.353 0 0 0-.35.381c-.003.232.002.46.002.69Zm10.72 0v.688a.357.357 0 0 0 .696.148.357.357 0 0 0 .014-.148V2.045a.355.355 0 0 0-.71 0c-.005.223 0 .454 0 .683v.005Z"/><path d="M6.93 9.525V8.81a.706.706 0 0 1 .709-.713h1.428a.704.704 0 0 1 .717.701c.01.484.01.968 0 1.451a.687.687 0 0 1-.688.701h-1.45a.704.704 0 0 1-.709-.712c-.02-.236-.007-.475-.007-.713Zm.725.687h1.402V8.821H7.655v1.391Zm6.422-.68v.715a.703.703 0 0 1-.687.703c-.49.011-.982.011-1.474 0a.688.688 0 0 1-.688-.687c-.01-.49-.01-.982 0-1.474a.687.687 0 0 1 .704-.688h1.45a.706.706 0 0 1 .688.688c.014.252.007.497.007.743Zm-.724-.709h-1.394v1.403h1.403l-.009-1.403Zm-.726 6.419h-.688a.706.706 0 0 1-.713-.709v-1.45a.7.7 0 0 1 .701-.688c.485-.008.969-.008 1.451 0a.701.701 0 0 1 .702.687v1.474a.702.702 0 0 1-.688.688c-.259.005-.516-.002-.765-.002Zm-.688-2.135v1.403h1.403v-1.402h-1.403Zm4.994 2.135h-.715a.708.708 0 0 1-.708-.713V13.1a.707.707 0 0 1 .447-.668.703.703 0 0 1 .28-.048h1.407a.704.704 0 0 1 .72.711v1.408a.712.712 0 0 1-.74.728c-.23.012-.461.01-.69.01Zm.706-.725v-1.405h-1.402v1.405h1.402ZM6.93 18.1v-.715a.704.704 0 0 1 .709-.713h1.45a.7.7 0 0 1 .688.7c.01.482.01.966 0 1.45a.688.688 0 0 1-.687.701H7.639a.706.706 0 0 1-.709-.712c-.013-.234 0-.473 0-.711Zm2.134-.7h-1.4v1.404h1.403L9.064 17.4Zm3.583-.728h.688a.712.712 0 0 1 .736.73v1.408a.705.705 0 0 1-.704.718c-.483.01-.967.01-1.451 0a.702.702 0 0 1-.654-.444.7.7 0 0 1-.048-.274v-1.428a.704.704 0 0 1 .713-.706c.246-.009.49-.004.72-.004Zm-.706 2.131h1.408v-1.402h-1.406l-.002 1.402Zm6.425-9.273v.714a.703.703 0 0 1-.442.655.705.705 0 0 1-.273.051h-1.428a.702.702 0 0 1-.713-.708v-1.45a.701.701 0 0 1 .701-.688h1.451a.704.704 0 0 1 .701.687c.014.248.003.493.003.738Zm-.724-.709h-1.406v1.403h1.405V8.82ZM4.076 12.383h.715a.702.702 0 0 1 .706.688c.011.49.011.982 0 1.474a.699.699 0 0 1-.706.687c-.476.008-.952.008-1.428 0a.704.704 0 0 1-.717-.726v-1.408a.703.703 0 0 1 .717-.724c.237.005.475.01.713.01Zm.688 2.139v-1.41h-1.39v1.41h1.39ZM6.93 13.8v-.716a.706.706 0 0 1 .688-.687c.484-.01.968-.01 1.45 0a.686.686 0 0 1 .704.687c.011.49.011.982 0 1.474a.701.701 0 0 1-.708.688H7.636a.71.71 0 0 1-.717-.727c-.003-.243.011-.481.011-.72Zm.724.715H9.06v-1.4H7.657l-.003 1.4ZM4.083 8.094h.688a.708.708 0 0 1 .724.72v1.428a.702.702 0 0 1-.713.708c-.475.008-.951.008-1.428 0a.706.706 0 0 1-.713-.708V8.791a.706.706 0 0 1 .702-.688c.247-.013.495-.009.74-.009Zm.688 2.134V8.823H3.373v1.405H4.77Zm-2.127 7.87v-.688a.713.713 0 0 1 .713-.731c.475-.01.951-.01 1.428 0a.705.705 0 0 1 .715.706v1.428a.709.709 0 0 1-.724.72H3.37a.709.709 0 0 1-.727-.739c-.005-.236 0-.465 0-.696Zm.724.701h1.4v-1.403h-1.4V18.8ZM10.48 4.878h-2.5a.341.341 0 0 1-.338-.366.335.335 0 0 1 .339-.356h4.999c.23 0 .379.136.383.344a.34.34 0 0 1-.383.367c-.832.014-1.666.011-2.5.011Z"/></symbol><symbol viewBox="0 0 24 24" id="icon-edit" xmlns="http://www.w3.org/2000/svg"><g clip-path="url(#aja)"><path d="M10.209 2.584H5.39c-1.42 0-2.13 0-2.673.274-.477.24-.865.625-1.108 1.097-.277.537-.277 1.24-.277 2.646v12.05c0 1.405 0 2.108.277 2.645.243.472.63.856 1.108 1.097.542.274 1.253.274 2.673.274h12.172c1.42 0 2.13 0 2.673-.274.477-.24.865-.625 1.108-1.097.276-.537.276-1.24.276-2.646v-5.397m-5.705-8.786 3.586 3.55m-9.593 2.396 8.43-8.344c.99-.98 2.596-.98 3.586 0 .99.98.99 2.57 0 3.55l-8.7 8.612c-.966.957-1.45 1.434-2 1.815a7.643 7.643 0 0 1-1.568.832c-.624.244-1.294.377-2.632.645l-.619.123.06-.417c.213-1.475.32-2.213.562-2.901a7.5 7.5 0 0 1 .873-1.73c.411-.604.944-1.131 2.008-2.185Z"/></g><defs><clipPath id="aja"><path d="M0 0h24v24H0z"/></clipPath></defs></symbol><symbol viewBox="0 0 24 24" id="icon-engine" xmlns="http://www.w3.org/2000/svg"><g clip-path="url(#aka)"><path d="M11.026 17.6a.282.282 0 1 0 .038.39.277.277 0 0 0-.038-.39Zm.972.282a.282.282 0 0 0-.25.31.276.276 0 0 0 .493.14.282.282 0 0 0-.04-.393.272.272 0 0 0-.203-.057Zm1.113-2.41a.287.287 0 0 0-.032-.397.285.285 0 0 0-.313-.023.283.283 0 0 0-.084.072.277.277 0 1 0 .43.348Zm-2.649.298a.281.281 0 0 0 .43-.08.283.283 0 0 0-.332-.404.283.283 0 0 0-.188.189.275.275 0 0 0 .09.295ZM8.013 8.452a.434.434 0 0 0 .543-.673.434.434 0 0 0-.543.673Zm3.735 6.781a.288.288 0 0 0 .255-.31.277.277 0 0 0-.304-.266.281.281 0 0 0-.25.31.265.265 0 0 0 .187.256.266.266 0 0 0 .112.01ZM10.25 16.46a.282.282 0 0 0-.054.548c.035.01.072.015.109.01a.287.287 0 0 0 .218-.413.28.28 0 0 0-.273-.145Zm3.04.879a.283.283 0 0 0-.43.077.283.283 0 1 0 .43-.077Zm-1.031-1.259a.614.614 0 1 0 .081.857.604.604 0 0 0-.081-.858Zm3.078-5.912a.81.81 0 1 0-.163-1.157.822.822 0 0 0 .163 1.157Z"/><path d="M13.42 14.657a2.448 2.448 0 1 0-3.082 3.804 2.448 2.448 0 0 0 3.082-3.804Zm.076 3.225a2.09 2.09 0 1 1-.277-2.975 2.112 2.112 0 0 1 .277 2.97v.005Z"/><path d="M13.197 16.405a.271.271 0 0 0 .299.25.293.293 0 0 0 .255-.31.278.278 0 0 0-.304-.25.287.287 0 0 0-.25.31ZM1.418 4.994a.163.163 0 0 0 .233 0l4.582-3.963a.163.163 0 0 0 0-.233L6.016.543a.168.168 0 0 0-.234 0l-.63.543-.265-.31A1.048 1.048 0 0 0 3.41.673l-.108.098-.158-.228a.109.109 0 0 0-.152 0l-1.086.95a.109.109 0 0 0 0 .152l.158.184-.315.277a1.042 1.042 0 0 0-.147 1.471l.272.31-.673.602a.163.163 0 0 0 0 .234l.217.271Zm20.514.016a.164.164 0 0 0 .234 0l.239-.27a.168.168 0 0 0 0-.234l-.717-.62.271-.309a1.045 1.045 0 0 0-.103-1.47l-.32-.278.152-.2a.109.109 0 0 0 0-.152L20.602.543a.108.108 0 0 0-.152 0l-.157.184-.114-.097a1.043 1.043 0 0 0-1.471.103l-.272.31-.624-.544a.174.174 0 0 0-.239 0l-.233.272a.168.168 0 0 0 0 .233l4.592 4.007Z"/><path d="m1.825 5.043.499.603a.174.174 0 0 0 .239 0l.239-.201a.168.168 0 0 1 .239 0l.287.336a.168.168 0 0 1 0 .24l-.244.211a.168.168 0 0 0 0 .239l.266.326a.168.168 0 0 0 .244 0l.18-.114a.174.174 0 0 1 .238 0l.304.374a.174.174 0 0 1 0 .244l-.222.185a.174.174 0 0 0 0 .239l.255.31a.168.168 0 0 1-.033.054l2.59 11.15v1.455h9.771v-1.455l2.595-11.188.331-.402a.174.174 0 0 0 0-.239l-.152-.125a.18.18 0 0 1 0-.244l.288-.337a.174.174 0 0 1 .239 0l.141.12a.168.168 0 0 0 .244 0l.266-.326a.169.169 0 0 0 0-.239l-.173-.152a.169.169 0 0 1 0-.239l.287-.336a.167.167 0 0 1 .24 0l.168.14a.174.174 0 0 0 .238 0l.45-.542-4.532-3.93-.434.543a.18.18 0 0 0 0 .238l.369.31a.174.174 0 0 1 0 .244l-.288.337a.174.174 0 0 1-.239 0l-.33-.283a.168.168 0 0 0-.245 0l-.272.353a.163.163 0 0 0 0 .234l.266.222a.18.18 0 0 1 0 .245l-.287.336a.174.174 0 0 1-.24 0l-.233-.195a.168.168 0 0 0-.244 0l-.543.684h-.76a.168.168 0 0 0-.168.173v.228a.174.174 0 0 1-.174.174h-.44a.167.167 0 0 1-.043-.065v-.239a.168.168 0 0 0-.168-.168h-.462a.168.168 0 0 0-.168.174v.228a.168.168 0 0 1-.168.173h-.445a.174.174 0 0 1-.217-.168v-.239a.168.168 0 0 0-.169-.168h-.456a.173.173 0 0 0-.174.174v.228a.17.17 0 0 1-.102.16.168.168 0 0 1-.066.013h-.445a.168.168 0 0 1-.168-.168v-.239a.168.168 0 0 0-.174-.168h-.744l-.483-.619a.174.174 0 0 0-.244 0l-.157.136a.174.174 0 0 1-.24 0l-.287-.337a.18.18 0 0 1 0-.244l.195-.163a.168.168 0 0 0 0-.233l-.228-.397a.163.163 0 0 0-.244 0l-.26.223a.174.174 0 0 1-.24 0l-.396-.467.424-.364a.168.168 0 0 0 .027-.233l-.483-.624-4.435 3.794Zm4.712 5.092.065.055c.207.17.44.307.69.407l1.286 4.234a3.85 3.85 0 0 0-.337.923l-1.704-5.619Zm7.996 8.583a3.426 3.426 0 1 1-5.316-4.322 3.426 3.426 0 0 1 5.316 4.322Zm1.026-2.671a3.725 3.725 0 0 0-.293-1.02l1.118-3.448a2.05 2.05 0 0 0 .727-.342l-1.552 4.81Zm1.417-7.904a1.792 1.792 0 1 1-2.546.244 1.808 1.808 0 0 1 2.546-.244Zm-1.802-.603a2.047 2.047 0 0 0-.739.418L10.7 6.992a2.665 2.665 0 0 0-.505-.738l4.979 1.286Zm-8.74-.923a2.378 2.378 0 1 1 .347 3.345 2.378 2.378 0 0 1-.342-3.345h-.005Z"/><path d="M15.38 3.002V1.889a.337.337 0 0 0-.337-.336h-3.127a.125.125 0 0 0-.125.119v1.585h-.341V1.672a.12.12 0 0 0-.12-.12h-.347a.125.125 0 0 0-.125.12v1.585h-.57V1.672a.118.118 0 0 0-.035-.084.12.12 0 0 0-.085-.035h-.255a.12.12 0 0 0-.125.119v1.585h-.874V1.553h-.39a.342.342 0 0 0-.343.336v1.113a.738.738 0 0 0 .733.733h5.717a.733.733 0 0 0 .749-.733ZM8.225 1.357h7.117a.19.19 0 0 0 .185-.19.184.184 0 0 0-.185-.184H8.225a.185.185 0 0 0-.184.184.19.19 0 0 0 .184.19Zm.461-.516h6.194a.223.223 0 0 0 .223-.222.619.619 0 0 0-.619-.619H9.083a.619.619 0 0 0-.62.619.223.223 0 0 0 .223.222ZM5.13 13.523l-.499-2.145L1.7 15.83l2.513-.874.918-1.433Zm.663 2.855-1.677 2.628 2.155-.576-.478-2.052ZM4.061 8.93.093 15.151a.755.755 0 0 0 1.27.81l3.176-4.979-.478-2.052Zm-.684 1.84c0 .033 0 .076-.038.136-.038.06-.043.12-.076.195-.032.076-.065.163-.103.256a3.35 3.35 0 0 1-.135.287l-.158.299-.092.163-.05.081-.037.103c-.06.114-.13.228-.2.337-.071.108-.142.223-.218.326a1.69 1.69 0 0 1-.109.157l-.108.152c-.076.098-.147.195-.223.282l-.228.245-.184.2-.152.152a1.226 1.226 0 0 1-.098.093l-.038.032h-.027l.114-.152.25-.401c.206-.337.488-.782.765-1.222l.776-1.216.26-.418.099-.152.01.065Zm1.857 3.138-2.714 4.17a.754.754 0 0 0 .228 1.042.748.748 0 0 0 1.042-.223l1.89-2.931-.446-2.058Zm-.69 1.868v.097a.978.978 0 0 1-.043.152c0 .06-.038.125-.06.19-.021.065-.06.141-.092.217l-.108.24-.065.119-.055.038-.032.06c-.044.086-.098.162-.147.244a3.635 3.635 0 0 1-.157.239l-.082.114-.087.108-.162.2-.158.17-.146.14-.12.104-.081.065h-.027l.07-.114.152-.245.543-.89.543-.88c.076-.124.141-.222.19-.292l.07-.11c.02.01.038.02.055.034Zm13.893-2.253.912 1.433 2.518.874-2.931-4.452-.5 2.145Zm-1.141 4.907 2.155.576-1.677-2.628-.478 2.052Zm6.178-3.279L19.517 8.93l-.478 2.052 3.192 4.978a.755.755 0 0 0 1.27-.809h-.027Zm-5.141-1.243-.445 2.058 1.895 2.931a.75.75 0 0 0 1.042.223.755.755 0 0 0 .228-1.043l-2.72-4.169Zm-1.156 7.002H6.57a.413.413 0 0 0-.413.413v.902c0 .228.185.412.413.412h10.607a.413.413 0 0 0 .413-.412v-.902a.413.413 0 0 0-.413-.412ZM13.55 3.892h-3.539a.217.217 0 0 0-.217.217v.066c0 .12.097.217.217.217h3.54c.12 0 .217-.097.217-.217v-.066a.217.217 0 0 0-.218-.217Zm2.118 18.957h-7.6a.348.348 0 0 0-.348.348.804.804 0 0 0 .804.803h.787a.11.11 0 0 0 .105-.066.109.109 0 0 0 .009-.043v-.418a.108.108 0 0 1 .114-.108h.331a.115.115 0 0 1 .114.108v.413a.109.109 0 0 0 .109.108h.304a.108.108 0 0 0 .08-.03.107.107 0 0 0 .034-.078v-.418a.108.108 0 0 1 .114-.109h.33a.114.114 0 0 1 .115.109v.418a.109.109 0 0 0 .108.108h.304a.109.109 0 0 0 .114-.108v-.418a.108.108 0 0 1 .114-.109h.331a.114.114 0 0 1 .114.109v.418a.109.109 0 0 0 .109.108h.304a.108.108 0 0 0 .105-.065.109.109 0 0 0 .01-.043v-.418a.108.108 0 0 1 .113-.109h.331a.114.114 0 0 1 .114.109v.418a.109.109 0 0 0 .109.108h.304a.108.108 0 0 0 .08-.03.109.109 0 0 0 .034-.078v-.418a.108.108 0 0 1 .114-.109h.33a.109.109 0 0 1 .11.109v.418a.114.114 0 0 0 .114.108h.776a.797.797 0 0 0 .803-.803.343.343 0 0 0-.347-.342Z"/></g><defs><clipPath id="aka"><path d="M0 0h24v24H0z"/></clipPath></defs></symbol><symbol viewBox="0 0 19 24" id="icon-exhaust" xmlns="http://www.w3.org/2000/svg"><g clip-path="url(#ala)"><path d="M17.729.754 15.343.197a.41.41 0 0 0-.39.111l-1.23 1.21L12.505.325a1.114 1.114 0 0 0-1.57 0L2.533 8.727a1.104 1.104 0 0 0 0 1.57l1.439 1.438-.978.973a3.43 3.43 0 0 0 0 4.847 1.465 1.465 0 0 1 0 2.072l-2.801 2.8c-.385.38-.137.756.243 1.135.38.38.755.629 1.14.249l2.8-2.801a3.43 3.43 0 0 0 0-4.843 1.466 1.466 0 0 1 0-2.071l.978-.978 1.434 1.434a1.1 1.1 0 0 0 1.21.242 1.1 1.1 0 0 0 .36-.242l8.403-8.404a1.105 1.105 0 0 0 0-1.57l-1.215-1.215 2.289-2.285a.193.193 0 0 0-.106-.324Z"/></g><defs><clipPath id="ala"><path d="M0 0h18.546v24H0z"/></clipPath></defs></symbol><symbol viewBox="0 0 16 24" id="icon-exterior" xmlns="http://www.w3.org/2000/svg"><g clip-path="url(#ama)"><path d="M11.626 17.545a40.929 40.929 0 0 1-8.539 0A2.788 2.788 0 0 0 0 20.318a1.566 1.566 0 0 0 1.476 1.56 96.5 96.5 0 0 0 5.791.166c2.084 0 4.071-.057 5.963-.166a1.559 1.559 0 0 0 1.47-1.56 2.79 2.79 0 0 0-1.922-2.65 2.786 2.786 0 0 0-1.152-.123ZM5.458 3.835c.645.1 1.297.146 1.95.14a12.483 12.483 0 0 0 1.847-.14 1.278 1.278 0 0 0 .971-1.406c0-.307-.05-.735-.095-1.132A1.234 1.234 0 0 0 9.165.141a11.78 11.78 0 0 0-3.63 0 1.22 1.22 0 0 0-.946 1.137c-.051.39-.115.818-.115 1.125a1.278 1.278 0 0 0 .984 1.432ZM3.119 17.257c1.395.148 2.796.223 4.199.224h.038a40.707 40.707 0 0 0 4.232-.224c.43-.047.865-.003 1.278.128a16.488 16.488 0 0 0-.333-4.519c-.294-1.355-.786-2.71-.594-4.672.047-.483.13-.962.25-1.432a1.962 1.962 0 0 0-.129-1.361 2.059 2.059 0 0 0-2.07-1.157c-.871.09-1.746.134-2.62.134a25.756 25.756 0 0 1-2.64-.153 2.058 2.058 0 0 0-2.071 1.157 2 2 0 0 0-.103 1.361c.122.47.208.949.256 1.432.185 1.962-.307 3.317-.6 4.672a16.523 16.523 0 0 0-.327 4.519c.4-.12.82-.156 1.234-.109Zm9.875 5.03H1.713a.358.358 0 0 0-.268.594l.083.096A2.952 2.952 0 0 0 3.765 24h7.17a2.98 2.98 0 0 0 2.18-.953l.14-.16a.357.357 0 0 0-.261-.6Zm-.716.678a2.908 2.908 0 0 1-1.738.556H4.148a2.877 2.877 0 0 1-1.732-.556.076.076 0 0 1 .045-.141h9.766a.077.077 0 0 1 .051.14Z"/></g><defs><clipPath id="ama"><path d="M0 0h15.6v24H0z"/></clipPath></defs></symbol><symbol viewBox="0 0 24 24" id="icon-external" xmlns="http://www.w3.org/2000/svg"><path d="M21 9.75a.75.75 0 1 1-1.5 0V5.561l-6.218 6.22a.75.75 0 1 1-1.062-1.062L18.44 4.5h-4.19a.75.75 0 1 1 0-1.5h6a.75.75 0 0 1 .75.75v6ZM17.25 12a.75.75 0 0 0-.75.75v6.75h-12v-12h6.75a.75.75 0 1 0 0-1.5H4.5A1.5 1.5 0 0 0 3 7.5v12A1.5 1.5 0 0 0 4.5 21h12a1.5 1.5 0 0 0 1.5-1.5v-6.75a.75.75 0 0 0-.75-.75Z"/></symbol><symbol viewBox="0 0 34 24" id="icon-fuel" xmlns="http://www.w3.org/2000/svg"><g clip-path="url(#apa)"><path d="m30.38 7.652-6.546-6.551a1.862 1.862 0 0 0-1.359-.537L17.67.639a.537.537 0 0 0-.51.4l-.482 1.842a.537.537 0 0 0 .32.64 1.088 1.088 0 0 1 .68.937l.047.748c.027.446.218.867.537 1.182l6.7 6.701a.994.994 0 0 0 1.414 0L30.4 9.066a.993.993 0 0 0-.02-1.414ZM27.51 9.12l-1.155 2.093a.877.877 0 0 1-1.36.198l-3.54-3.528a.864.864 0 0 1-.143-1.033l1.149-2.093a.87.87 0 0 1 1.359-.197l3.52 3.52a.884.884 0 0 1 .17 1.04ZM0 13.653a5.002 5.002 0 0 0 9.997 0c0-2.78-4.995-8.896-4.995-8.896S0 10.874 0 13.653Z"/><path d="M24.12 7.17a2.529 2.529 0 0 0-1.795-1.054.231.231 0 0 0-.238.123l-.271.496a.115.115 0 0 0 .102.17 1.746 1.746 0 0 1 1.556.713l1.849 2.494a.414.414 0 1 0 .68-.475L24.12 7.17Zm6.185 2.759a.272.272 0 0 0-.381 0l-2.718 2.718a.264.264 0 0 0 0 .381.856.856 0 0 0 1.196 0l1.882-1.883a.863.863 0 0 0 .02-1.216Zm2.065 5.451a5.933 5.933 0 0 0-1.861-3.684.24.24 0 0 0-.262-.053.24.24 0 0 0-.078.053l-1.074 1.074a.238.238 0 0 0 0 .333 3.976 3.976 0 0 1 1.285 2.426 3.813 3.813 0 0 1-.476 1.91 12.23 12.23 0 0 0-.856 2.487 11.077 11.077 0 0 0-.136 3.88.222.222 0 0 0 .089.15.223.223 0 0 0 .169.041 3 3 0 0 1 .734-.21c.255-.035.513-.035.768 0 .04-.048.204-.116.183-.252a9.27 9.27 0 0 1 .116-3.16 10.46 10.46 0 0 1 .734-2.107 5.599 5.599 0 0 0 .666-2.889ZM16.746 1.175 13.13.183a4.934 4.934 0 0 0-3.004.109l-5.491 1.97c-.367.13-.822.334-.68.68a1.155 1.155 0 0 0 1.162.619l5.485-1.95a3.534 3.534 0 0 1 2.154-.082l3.63.999a.156.156 0 0 0 .19-.116l.278-1.053a.157.157 0 0 0-.108-.184Z"/></g><defs><clipPath id="apa"><path d="M0 0h33.333v24H0z"/></clipPath></defs></symbol><symbol viewBox="0 0 24 24" id="icon-fuel-level" xmlns="http://www.w3.org/2000/svg"><path d="M10.774.587h1.34c.057.016.114.028.172.036 1.764.11 3.473.649 4.982 1.568 2.963 1.822 4.786 4.44 5.425 7.865.08.429.12.864.18 1.297v1.341c-.02.16-.038.321-.056.482a11.247 11.247 0 0 1-2.801 6.388 11.197 11.197 0 0 1-8.096 3.879 10.875 10.875 0 0 1-6.306-1.605C2.64 20.038.818 17.416.179 13.992c-.08-.429-.122-.867-.179-1.3V11.36l.055-.481a11.299 11.299 0 0 1 2.872-6.48A11.218 11.218 0 0 1 9.467.765c.429-.078.867-.119 1.307-.178ZM21.35 12.025a9.914 9.914 0 1 0-9.92 9.912 9.94 9.94 0 0 0 9.92-9.912Z"/><path d="M11.434 15.067a1.52 1.52 0 0 1-1.492-1.809c.057-.294.202-.565.414-.777a1.466 1.466 0 0 1 1.626-.35.39.39 0 0 0 .385-.033c1.208-.733 2.418-1.46 3.628-2.189l.094-.057c.273-.158.48-.14.612.055.133.195.07.396-.176.59l-3.381 2.67a.434.434 0 0 0-.195.385 1.504 1.504 0 0 1-1.515 1.515Zm-5.323.002v.763H7.23a.378.378 0 0 1 .257.655.374.374 0 0 1-.278.097h-1.1v.763h.823a2.63 2.63 0 0 1 .355.016.362.362 0 0 1 .326.365.353.353 0 0 1-.321.364c-.207.02-.415.016-.624.019h-.894c-.298 0-.44-.145-.44-.443v-2.925c0-.305.151-.442.459-.444h1.361c.284 0 .459.155.459.385 0 .229-.17.371-.459.376-.334.011-.676.009-1.043.009Zm10.675 0v.763h.864a1.91 1.91 0 0 1 .312.016.362.362 0 0 1 .328.383.358.358 0 0 1-.358.353c-.325.014-.653 0-.98 0-.051 0-.102 0-.18.016v.871c.004.111-.002.222-.018.332a.335.335 0 0 1-.341.294.342.342 0 0 1-.377-.277 1.007 1.007 0 0 1-.025-.243v-2.751c0-.417.129-.541.553-.541h1.2a1.05 1.05 0 0 1 .23.018.371.371 0 0 1-.055.736c-.298.011-.594 0-.892 0l-.26.03Zm-.413-7.147a.777.777 0 0 1-.751-.403.667.667 0 0 1 .057-.796 18.51 18.51 0 0 1 1.26-1.25.75.75 0 0 1 1.046 1.046c-.397.44-.825.855-1.258 1.26a.972.972 0 0 1-.354.143Zm-9.038-.84a.775.775 0 0 1-.408.757.67.67 0 0 1-.795-.062c-.433-.394-.85-.81-1.245-1.242A.75.75 0 0 1 5.96 5.492c.429.39.832.804 1.229 1.228.071.11.12.234.146.362Zm4.86-2.667v.759a.759.759 0 0 1-1.515 0V3.613a.758.758 0 1 1 1.515 0c.009.268 0 .534 0 .802ZM3.8 12.781h-.758a.758.758 0 0 1 0-1.515c.52-.01 1.04-.01 1.56 0a.76.76 0 0 1-.018 1.515c-.263.007-.525 0-.784 0Zm15.253.003h-.758a.759.759 0 0 1 0-1.518 54.65 54.65 0 0 1 1.515 0 .76.76 0 0 1 0 1.518c-.252.005-.505 0-.757 0Z"/></symbol><symbol viewBox="0 0 24 24" id="icon-gas-station" xmlns="http://www.w3.org/2000/svg"><path d="M22.378 21.75c-.14-1.36-1.5-2.878-4.675-3.89a8.72 8.72 0 0 1-.191-1.744 6.977 6.977 0 0 1 .959-3.628.593.593 0 0 0 .349-.523v-1.5a.524.524 0 0 0-.192-.401V7.099l-3.21-2.337V4.57a.174.174 0 0 0-.191-.175h-2.39v-3.07A1.326 1.326 0 0 0 11.512 0H1.326A1.326 1.326 0 0 0 0 1.326v21.348A1.326 1.326 0 0 0 1.326 24h10.186a1.326 1.326 0 0 0 1.325-1.326v-4.883c1.391.131 2.768.382 4.116.75.29 1.082.712 2.125 1.256 3.104.977 1.745 2.215 2.18 3.053 1.936a1.64 1.64 0 0 0 1.133-1.622.86.86 0 0 0-.017-.209ZM11.634 7.134c0 .418-.471.767-1.064.767H2.25c-.593 0-1.081-.349-1.081-.767v-4.85c0-.4.488-.75 1.081-.75h8.302c.593 0 1.064.35 1.064.75l.018 4.85Zm5.058.07a.715.715 0 0 1 .802.383c.21.332.192.68 0 .803a.715.715 0 0 1-.802-.384c-.244-.314-.244-.68 0-.803Zm.122 7.046a8.503 8.503 0 0 0-.192 1.744c.007.532.054 1.063.14 1.587a23.75 23.75 0 0 0-3.925-.662V9.942h2.39a.191.191 0 0 0 .192-.175V5.756l.279.21s-.35 3.191 2.058 3.487v.489a.593.593 0 0 0-.314.523v1.413c.003.148.059.29.157.401h-.157a7.606 7.606 0 0 0-.628 1.971Zm4.116 8.424c-.47.14-1.29-.174-2.023-1.5-.41-.757-.75-1.551-1.012-2.372 2.547.925 3.489 2.163 3.489 2.965v.123a.75.75 0 0 1-.454.784Z"/></symbol><symbol viewBox="0 0 24 24" id="icon-helmet" xmlns="http://www.w3.org/2000/svg"><g clip-path="url(#ara)"><path d="M21.906 7.283a.403.403 0 0 0-.023-.068 11.398 11.398 0 0 0-4.097-5.191A11.212 11.212 0 0 0 11.34 0C5.087 0 0 5.127 0 11.43c0 1.627.496 2.813 1.482 5.176.15.356.314.753.49 1.18a.536.536 0 0 0 .364.314c2.57.646 7.575 1.95 11.992 3.102 3.06.798 5.703 1.485 6.826 1.77a.532.532 0 0 0 .573-.22l.223-.328c.777-1.133 1.839-2.687 2.05-4.631v-.058c.002-1.619-1.51-8.094-2.094-10.452Zm.97 9.747-10.628-2.785-.58-1.376a.532.532 0 0 0-.343-.306 2.357 2.357 0 0 1 .657-4.619h8.987c.73 2.998 1.665 7.204 1.907 9.086Zm-1.807 4.794-.014.021c-1.267-.323-3.692-.955-6.458-1.676-4.268-1.113-9.1-2.371-11.738-3.038-.138-.334-.268-.645-.39-.936-.963-2.302-1.402-3.353-1.402-4.766 0-5.714 4.609-10.362 10.273-10.362a10.207 10.207 0 0 1 9.23 5.81h-8.588a3.423 3.423 0 0 0-1.203 6.628l.593 1.397a.534.534 0 0 0 .356.308l11.146 2.922c-.289 1.474-1.12 2.694-1.805 3.692Z"/><path d="M11.874 2.905a.533.533 0 0 0-.534-.534c-4.945 0-8.969 4.064-8.969 9.058a.534.534 0 0 0 1.068 0c0-4.406 3.544-7.99 7.901-7.99a.533.533 0 0 0 .534-.534Zm4.358 6.661a.531.531 0 0 0-.74.143l-1.696 2.511a.533.533 0 0 0 .884.593l1.696-2.511a.533.533 0 0 0-.144-.736Zm3.503 0a.533.533 0 0 0-.741.143l-2.261 3.347a.53.53 0 0 0 .143.74.527.527 0 0 0 .55.028.534.534 0 0 0 .191-.174l2.261-3.346a.532.532 0 0 0-.143-.738Z"/></g><defs><clipPath id="ara"><path d="M0 0h24v24H0z"/></clipPath></defs></symbol><symbol viewBox="0 0 36 24" id="icon-hotels" xmlns="http://www.w3.org/2000/svg"><path d="M31.2 14.772A1.422 1.422 0 0 1 30 16.2H15.6a1.422 1.422 0 0 1-1.2-1.428V6.6a1.661 1.661 0 0 1 1.164-1.524c4.704-1.146 9.768-.54 14.472 1.272a1.98 1.98 0 0 1 1.164 1.68v6.744Z"/><path d="M33.6 8.4h-1.2v6.63c0 1.314-.756 2.37-2.148 2.37H15.36a2.142 2.142 0 0 1-2.16-2.31V13.8H4.8a1.2 1.2 0 0 1-1.2-1.2V1.2A1.2 1.2 0 0 0 2.4 0H1.2A1.2 1.2 0 0 0 0 1.2v21.6A1.2 1.2 0 0 0 1.2 24h1.2a1.2 1.2 0 0 0 1.2-1.2v-3h27.6v3a1.2 1.2 0 0 0 1.2 1.2h1.2a1.2 1.2 0 0 0 1.2-1.2V9.6a1.2 1.2 0 0 0-1.2-1.2Z"/><path d="M13.2 11.7c0 .498-1.08.9-2.4.9H7.2c-1.32 0-2.4-.81-2.4-1.8s1.056-1.572 2.346-1.296l3.708.792c1.29.276 2.346.906 2.346 1.404Z"/><path d="M12.936 6.702a3.438 3.438 0 1 1-6.875 0 3.438 3.438 0 0 1 6.875 0Z"/></symbol><symbol viewBox="0 0 24 24" id="icon-images" xmlns="http://www.w3.org/2000/svg"><path d="M20.25 3.75H6.75a1.5 1.5 0 0 0-1.5 1.5v1.5h-1.5a1.5 1.5 0 0 0-1.5 1.5v10.5a1.5 1.5 0 0 0 1.5 1.5h13.5a1.5 1.5 0 0 0 1.5-1.5v-1.5h1.5a1.5 1.5 0 0 0 1.5-1.5V5.25a1.5 1.5 0 0 0-1.5-1.5Zm-13.5 1.5h13.5v5.883l-.944-.943a1.5 1.5 0 0 0-2.122 0l-1.875 1.875-4.125-4.125a1.5 1.5 0 0 0-2.12 0L6.75 10.253V5.25Zm10.5 13.5H3.75V8.25h1.5v7.5a1.5 1.5 0 0 0 1.5 1.5h10.5v1.5Zm3-3H6.75v-3.375L10.125 9l4.656 4.656a.75.75 0 0 0 1.06 0l2.406-2.406 2.003 2.004v2.496ZM15 7.875a1.125 1.125 0 1 1 2.25 0 1.125 1.125 0 0 1-2.25 0Z"/></symbol><symbol viewBox="0 0 24 24" id="icon-info" xmlns="http://www.w3.org/2000/svg"><g clip-path="url(#aua)"><path d="M12 24C5.372 24 0 18.628 0 12S5.372 0 12 0s12 5.372 12 12-5.372 12-12 12Zm-.835-4.24c.756 0 1.598-.346 2.635-1.75l1.093-1.464a.4.4 0 0 0-.089-.567.455.455 0 0 0-.606.072l-1.77 2.015a.29.29 0 0 1-.334.073.254.254 0 0 1-.144-.293l2.23-8.935a.6.6 0 0 0-.69-.735l-4.02.735a.42.42 0 0 0-.332.31l-.103.4a.3.3 0 0 0 .291.375h2.076l-1.77 7.106c-.066.281-.174.756-.174 1.102 0 .8.476 1.555 1.707 1.555ZM13.36 7.115c.842 0 1.49-.497 1.663-1.253.043-.173.065-.367.065-.497 0-.604-.475-1.166-1.361-1.166-.842 0-1.49.497-1.663 1.253a2.25 2.25 0 0 0-.065.497c0 .604.475 1.166 1.36 1.166Z"/></g><defs><clipPath id="aua"><path d="M0 0h24v24H0z"/></clipPath></defs></symbol><symbol viewBox="0 0 32 24" id="icon-inlet" xmlns="http://www.w3.org/2000/svg"><g clip-path="url(#ava)"><path d="M28.866 2.999H1.917A1.917 1.917 0 0 0 0 4.957v17.126A1.917 1.917 0 0 0 1.917 24h26.95a1.917 1.917 0 0 0 1.916-1.917V4.957a1.914 1.914 0 0 0-1.917-1.958Zm.29 19.084a.29.29 0 0 1-.29.29H1.917a.289.289 0 0 1-.264-.29V4.957a.29.29 0 0 1 .289-.29h26.924a.29.29 0 0 1 .29.29v17.126ZM4.817 1.776h.181a.165.165 0 0 1 .166.157v.595a.149.149 0 0 0 .157.157h3.99a.157.157 0 0 0 .157-.157v-.595a.157.157 0 0 1 .157-.157h.19a.388.388 0 0 0 .38-.38V.388A.389.389 0 0 0 9.815 0H4.817a.388.388 0 0 0-.389.388v1.008a.388.388 0 0 0 .389.38Z"/><path d="M2.479 10.74h5.37a5.42 5.42 0 0 1 .702-.826l.166-.14H2.479a.47.47 0 0 0-.47.47.48.48 0 0 0 .47.496Zm0-3.205h9.087a2.7 2.7 0 0 1 .199-.827v-.082H2.479a.47.47 0 0 0-.471.47.48.48 0 0 0 .47.439Zm0 1.553h7.245c.121-.033.246-.05.372-.05.117 0 .234.016.347.05h1.371a4.637 4.637 0 0 1-.248-.909H2.48a.48.48 0 0 0-.471.47.471.471 0 0 0 .47.439Zm-.001 7.981h5.924a3.47 3.47 0 0 1-1.157-.934H2.478a.472.472 0 1 0 0 .933Zm.001-3.181h4.13c.028-.316.086-.629.174-.934H2.479a.47.47 0 0 0-.471.471.471.471 0 0 0 .47.463Zm0 1.594h4.378a3.05 3.05 0 0 1-.247-.942H2.479a.479.479 0 0 0-.471.471.48.48 0 0 0 .47.471Zm0-3.18h4.486a7.73 7.73 0 0 1 .47-.942H2.48a.479.479 0 0 0-.471.47.471.471 0 0 0 .47.472Zm9.459-1.868.297.281h.248c-.148-.33-.289-.636-.413-.925h-.826c.207.165.413.38.694.644Zm.389 6.519c.264-.281.488-.52.678-.744l-.414.207c-.57.256-1.082.487-1.561.652h1.181a1.4 1.4 0 0 0 .116-.115ZM2.479 5.94h9.682c.27-.346.6-.64.975-.867l.149-.075H2.479a.48.48 0 0 0-.471.471.471.471 0 0 0 .47.471Zm15.896 10.195h-.15c.029.056.053.114.075.173l.347.76h.71l-.511-.504c-.174-.156-.323-.305-.471-.43Zm.081-6.089c-.23.256-.438.463-.61.67h.09l.256-.125c.666-.335 1.36-.612 2.074-.826H18.72l-.265.281ZM28.33 6.61h-9.394c.265.27.495.572.685.9h8.708a.48.48 0 0 0 .47-.471.47.47 0 0 0-.47-.43Zm0 4.75h-4.454c.151.296.254.613.306.942h4.13a.47.47 0 0 0 .017-.942Zm0-1.586h-6.336l.223.074c.468.194.882.5 1.206.892h4.907a.479.479 0 0 0 .471-.47.47.47 0 0 0-.47-.496Zm0 3.18H24.2c-.013.316-.06.629-.142.934h4.247a.471.471 0 0 0 .471-.463.471.471 0 0 0-.446-.47Zm0-7.956H16.408c.49.191.962.423 1.413.694.124.075.256.157.38.248H28.33a.47.47 0 0 0 .47-.47.48.48 0 0 0-.47-.472Zm0 9.542h-4.445a7.992 7.992 0 0 1-.43.942h4.875a.48.48 0 0 0 .47-.47.48.48 0 0 0-.47-.472Zm0-6.361h-8.502a1.297 1.297 0 0 1-.437.909h8.939a.471.471 0 0 0 .47-.471.48.48 0 0 0-.47-.438Zm0 7.956h-5.254a5.423 5.423 0 0 1-.827.933h6.056a.472.472 0 0 0 .373-.82.47.47 0 0 0-.373-.113h.025ZM2.479 18.663h8.493c.074-.377.286-.713.595-.942H2.479a.471.471 0 1 0 0 .942Zm25.851 2.239h-9.592c-.254.374-.58.694-.958.942h10.55a.48.48 0 0 0 .47-.471.47.47 0 0 0-.47-.471ZM2.478 20.25h9.254a2.999 2.999 0 0 1-.653-.934h-8.6a.474.474 0 0 0-.492.272.471.471 0 0 0 .491.661Zm9.915.652H2.479a.47.47 0 0 0-.471.47.48.48 0 0 0 .47.472h11.567a10.36 10.36 0 0 1-1.016-.537 5.302 5.302 0 0 1-.636-.405Zm15.937-3.181h-6.85c-.224.137-.48.211-.743.215a1.066 1.066 0 0 1-.652-.215H18.91c.12.305.21.62.273.942h9.146a.471.471 0 0 0 0-.942Zm0 1.595h-9.088a2.91 2.91 0 0 1-.174.933h9.253a.469.469 0 0 0 .534-.467.471.471 0 0 0-.534-.466h.009Z"/><path d="M18.59 20.142c.438-1.074 0-2.09-.727-3.635a6.215 6.215 0 0 0-.827-1.355c.116-.118.219-.248.306-.388.66.402 1.266.888 1.801 1.445.934.876 1.074 1.231 1.529 1.24.454.008.776-.323 1.222-.728.33-.3.61-.651.826-1.04.356-.595 1.529-2.586.612-4.19a2.834 2.834 0 0 0-1.355-1.189c-1.082-.43-2.09 0-3.635.736a6.908 6.908 0 0 0-1.363.826 2.66 2.66 0 0 0-.38-.306 8.95 8.95 0 0 1 1.445-1.801c.868-.934 1.231-1.074 1.24-1.528.008-.455-.281-.794-.67-1.264a4.536 4.536 0 0 0-1.04-.827c-.604-.355-2.586-1.528-4.19-.611-.53.301-.949.769-1.189 1.33-.438 1.082 0 2.099.727 3.635.219.487.496.944.826 1.363a2.2 2.2 0 0 0-.305.38 8.668 8.668 0 0 1-1.801-1.445c-.934-.868-1.074-1.231-1.529-1.231-.454 0-.776.314-1.223.719a4.536 4.536 0 0 0-.826 1.04c-.355.604-1.528 2.586-.611 4.197a2.79 2.79 0 0 0 1.355 1.182c1.082.438 2.09 0 3.635-.727a6.526 6.526 0 0 0 1.363-.826c.113.118.24.22.38.305a8.948 8.948 0 0 1-1.446 1.801c-.826.934-1.23 1.074-1.23 1.529 0 .454.313.776.718 1.222.302.328.654.607 1.041.827.603.355 2.586 1.528 4.189.62a2.875 2.875 0 0 0 1.132-1.306Zm-2.479-5.94a.984.984 0 1 1-1.388-1.396.974.974 0 0 1 1.584 1.08.985.985 0 0 1-.22.316h.024Z"/></g><defs><clipPath id="ava"><path d="M0 0h32v24H0z"/></clipPath></defs></symbol><symbol viewBox="0 0 24 24" id="icon-instagram" xmlns="http://www.w3.org/2000/svg"><path d="M11.999 7.377a4.624 4.624 0 1 0 0 9.248 4.624 4.624 0 0 0 0-9.248Zm0 7.627a3.004 3.004 0 1 1 0-6.008 3.004 3.004 0 0 1 0 6.008Zm4.807-6.719a1.078 1.078 0 1 0 0-2.156 1.078 1.078 0 0 0 0 2.156Z"/><path d="M20.533 6.111A4.605 4.605 0 0 0 17.9 3.479a6.606 6.606 0 0 0-2.186-.42c-.963-.042-1.268-.054-3.71-.054s-2.755 0-3.71.054a6.554 6.554 0 0 0-2.184.42 4.6 4.6 0 0 0-2.633 2.632 6.585 6.585 0 0 0-.419 2.186c-.043.962-.056 1.267-.056 3.71 0 2.442 0 2.753.056 3.71.015.748.156 1.486.419 2.187a4.61 4.61 0 0 0 2.634 2.632 6.583 6.583 0 0 0 2.185.45c.963.042 1.268.055 3.71.055s2.755 0 3.71-.055a6.616 6.616 0 0 0 2.186-.419 4.614 4.614 0 0 0 2.633-2.633c.263-.7.404-1.438.419-2.186.043-.962.056-1.267.056-3.71s0-2.753-.056-3.71a6.58 6.58 0 0 0-.421-2.217Zm-1.218 9.532a5.041 5.041 0 0 1-.311 1.688 2.988 2.988 0 0 1-1.712 1.711 4.99 4.99 0 0 1-1.67.311c-.95.044-1.218.055-3.654.055-2.438 0-2.687 0-3.655-.055a4.961 4.961 0 0 1-1.669-.311 2.985 2.985 0 0 1-1.719-1.711 5.08 5.08 0 0 1-.311-1.669c-.043-.95-.053-1.218-.053-3.654 0-2.437 0-2.686.053-3.655a5.038 5.038 0 0 1 .311-1.687c.305-.789.93-1.41 1.719-1.712a5.01 5.01 0 0 1 1.669-.311c.951-.043 1.218-.055 3.655-.055s2.687 0 3.654.055a4.96 4.96 0 0 1 1.67.311 2.992 2.992 0 0 1 1.712 1.712c.197.535.302 1.1.311 1.669.043.951.054 1.218.054 3.655 0 2.436 0 2.698-.043 3.654h-.011v-.001Z"/></symbol><symbol viewBox="0 0 66 24" id="icon-interior" xmlns="http://www.w3.org/2000/svg"><g clip-path="url(#axa)"><path d="M40.72 18.36c.119-.445.224-.865.407-1.403.185-.541.413-1.068.682-1.573a19.994 19.994 0 0 0 1.469-3.712l1.613-5.705c.106-.375.142-.766.105-1.154a3.474 3.474 0 0 0-.682-1.967l-.695-.708C42.426 1.102 41.14.315 39.567.997c-.497.221-.97.49-1.417.8-.34 1.6-.655 3.2-.918 4.8a48.253 48.253 0 0 0-.511 5.98c0 2.125 0 4.25.144 6.374.262.262.866.84 1.469 1.311.603.473.813.63 1.075.8.263.17.42 0 .603-.406a9.22 9.22 0 0 0 .42-1.102c.105-.42.223-.787.289-1.193ZM37.535 8.08c-.092 0-.144-.197-.118-.433.21-1.56.446-3.135.734-4.682.026-.343.175-.664.42-.905a8.69 8.69 0 0 1 1.115-.498c1.455-.499 2.544.367 3.514 1.311l.46.551c.314.463.516.993.59 1.548.056.444-.003.896-.171 1.311-.367.708-.774 1.115-1.18 1.154-1.797.236-3.554.433-5.364.643Z"/><path d="M39.763 1.784h-.157 1.823a2.44 2.44 0 0 0-.905-.197 2.3 2.3 0 0 0-.76.197Zm-3.042 17.337-.065-.065v-1.141a100.24 100.24 0 0 1-.092-5.246c0-1.312.131-2.623.275-3.935a.628.628 0 0 0 0-.157c.079-.616.157-1.311.262-1.888.184-1.128.38-2.204.59-3.253l.263-1.469v-.301l.079-.066c.288-.197.498-.328.734-.459h-1.311a30.02 30.02 0 0 0-10.492 1.915l-.118.996a29.968 29.968 0 0 1 9.692-2.15h.577L36.34 6.23a33.97 33.97 0 0 0-.538 5.993v6.793h-9.285c0 .59 0 1.168.092 1.732h11.868l-.34-.263c-.722-.616-1.417-1.298-1.417-1.364Zm27.398-4.314a2.545 2.545 0 0 0 0-2.505 6.387 6.387 0 0 1-.761-2.964c0-.544.066-1.086.197-1.613a.525.525 0 0 0-.184-.577l-4.354-.46 2.334-3.37c.118-.131.25 0 .394.066l1.154.76c.118.105.354 0 .459-.105 0 0 .157-.249.105-.301l-1.01-.708a8.054 8.054 0 0 1-.485-.46.761.761 0 0 0-.748 0 3.93 3.93 0 0 0-1.705 1.496l-1.43 2.32a.786.786 0 0 1-.248-.078l-1.928-1.22a25.507 25.507 0 0 0-7.777-3.252l-.446-.092a28.852 28.852 0 0 0-4.958-.603 9.69 9.69 0 0 1 1.05.774l.118.13c1.972.31 3.878.949 5.639 1.89l1.22.642c.65.333 1.152.9 1.403 1.587a1.22 1.22 0 0 1-.105 1.023l-2.216 3.633a10.889 10.889 0 0 1-2.322 2.701 6.2 6.2 0 0 0-1.14 1.194c-.565.774-.656 1.311-1.312 2.216-.27.41-.563.804-.879 1.18a2.23 2.23 0 0 1-1.64.853h-1.73c0 .197-.118.407-.197.643a7.71 7.71 0 0 1-.407 1.075h6.072a.553.553 0 0 0 .551-.643 12.618 12.618 0 0 1-.118-1.678 5.732 5.732 0 0 1 5.574-5.823 5.627 5.627 0 0 1 5.666 5.626v.498a.56.56 0 0 0 .414.58.56.56 0 0 0 .254.01l.735-.144a3.776 3.776 0 0 0 2.203-.93 3.73 3.73 0 0 0 .813-1.063 6.702 6.702 0 0 1 1.154-1.613l.59-.695ZM21.928 5.508A19.237 19.237 0 0 0 20.8 7.305l-.21.393a1.834 1.834 0 0 0-.144.577h.328a4.565 4.565 0 0 1 1.836-2.111 29.026 29.026 0 0 1 3.475-1.797c0-.34.092-.682.131-1.023a30.27 30.27 0 0 0-3.527 1.731l-.761.433ZM3.016 13.469l.918-1.01a.25.25 0 0 0-.223-.42l-2.57.289A3.934 3.934 0 0 0 0 14.859l.643-.092a3.803 3.803 0 0 0 2.373-1.298ZM.472 14.505l.184-.17.223-.276.091-.157.092-.184.079-.184v-.196a1.6 1.6 0 0 0 0-.341v-.25a.42.42 0 0 1 0-.091h.17v.065c.055.08.095.169.119.263a.932.932 0 0 1 0 .393 1.55 1.55 0 0 1 0 .236v.118l-.119.236a.458.458 0 0 1 0 .105l-.065.079-.157.144-.276.131H.551l-.079.079Z"/><path d="M52.276 13.508a5.245 5.245 0 1 0 0 10.49 5.245 5.245 0 0 0 0-10.49Zm0 8.97a3.684 3.684 0 1 1 0-7.368 3.684 3.684 0 0 1 0 7.369Z"/><path d="M52.275 15.279a3.488 3.488 0 0 0-2.479 1.036 3.515 3.515 0 1 0 2.479-1.036Zm-3.03 3.514a2.99 2.99 0 0 1 .59-1.744.366.366 0 0 1 .578 0l.682.945a.525.525 0 0 1-.263.813l-1.114.354a.34.34 0 0 1-.473-.368Zm2.623 2.545a.37.37 0 0 1-.296.346.368.368 0 0 1-.163-.005 3.056 3.056 0 0 1-1.573-1.102.353.353 0 0 1 .17-.55l1.141-.355a.54.54 0 0 1 .695.498l.026 1.168Zm0-3.935-.72-.957a.34.34 0 0 1 .028-.454.34.34 0 0 1 .142-.084 3.081 3.081 0 0 1 1.862 0 .34.34 0 0 1 .184.538l-.682.944a.527.527 0 0 1-.827 0l.014.013Zm2.873 3.187a3.18 3.18 0 0 1-1.509 1.102.356.356 0 0 1-.459-.341v-1.167a.524.524 0 0 1 .682-.499l1.115.354a.353.353 0 0 1 .157.538l.014.013Zm.577-1.783a.341.341 0 0 1-.446.327l-1.102-.367a.525.525 0 0 1-.262-.813l.656-.905a.352.352 0 0 1 .563 0 2.98 2.98 0 0 1 .577 1.784l.014-.026Zm-42.674-5.299a5.245 5.245 0 1 0 0 10.49 5.245 5.245 0 0 0 0-10.49Zm0 8.97a3.685 3.685 0 1 1 0-7.368 3.685 3.685 0 0 1 0 7.369Z"/><path d="M12.642 15.279a3.54 3.54 0 1 0 2.479 1.036 3.462 3.462 0 0 0-2.479-1.036Zm-3.03 3.514a2.99 2.99 0 0 1 .578-1.744.353.353 0 0 1 .564 0l.695.945a.537.537 0 0 1-.276.813l-1.101.354a.34.34 0 0 1-.46-.368Zm2.558 2.545a.366.366 0 0 1-.459.34 3.056 3.056 0 0 1-1.508-1.1.355.355 0 0 1 .17-.552l1.102-.354a.54.54 0 0 1 .695.498v1.168Zm0-3.935-.695-.944a.354.354 0 0 1 .184-.538 3.083 3.083 0 0 1 1.862 0 .354.354 0 0 1 .183.538l-.681.944a.525.525 0 0 1-.8-.013l-.053.013Zm2.872 3.187c-.38.51-.906.894-1.508 1.102a.355.355 0 0 1-.459-.341v-1.167a.524.524 0 0 1 .682-.499l1.102.354a.365.365 0 0 1 .282.376.367.367 0 0 1-.046.162l-.053.013Zm.695-1.797a.341.341 0 0 1-.459.328l-1.101-.354a.524.524 0 0 1-.263-.813l.682-.944a.353.353 0 0 1 .564 0 2.99 2.99 0 0 1 .577 1.783ZM63.5 10.098a.723.723 0 0 0 .735.722.367.367 0 0 0 .367-.328V8.577a.367.367 0 0 0-.34-.367.735.735 0 0 0-.735.721l-.026 1.167Zm.88 6.099h-1.31a.209.209 0 0 0-.184.105l-.354.537a.222.222 0 0 0 .066.323.223.223 0 0 0 .118.031h1.075a.773.773 0 0 0 .774-.773.209.209 0 0 0-.184-.223ZM33.35 8.131a13.58 13.58 0 0 0-1.14 3.2 13.72 13.72 0 0 0-.302 3.712l1.312.183a.97.97 0 0 1 .813.8l1.613-7.24a.996.996 0 0 0-1.01-1.219h-.433a.983.983 0 0 0-.852.564Zm1.39-.774h.106a.773.773 0 0 0 1.075-.55l.17-1.561a.762.762 0 0 0-.904-.774h-.079a1.312 1.312 0 0 0-1.167 1.312 1.312 1.312 0 0 0 .8 1.573Zm11.49.748a13.32 13.32 0 0 0-1.862 3.016 15.362 15.362 0 0 0-1.168 3.935l1.312.262a1.036 1.036 0 0 1 .655.997l3.28-7.056a1.049 1.049 0 0 0-.775-1.39l-.458-.144a1.036 1.036 0 0 0-.984.38Zm1.691-.42a.826.826 0 0 0 1.233-.34l.511-1.588a.799.799 0 0 0-.76-.996h-.079a1.403 1.403 0 0 0-1.482 1.101 1.417 1.417 0 0 0 .485 1.77l.092.053Z"/><path d="M44.932 16.184a.813.813 0 0 0-.696-.8l-1.901-.289-.236.472a9.25 9.25 0 0 0-.63 1.482h2.623a.812.812 0 0 0 .84-.865Zm-2.807 1.783h-.97l-.08.315h1.312a1.888 1.888 0 0 0 1.43-.656.221.221 0 0 0 .046-.249.224.224 0 0 0-.217-.131h-2.242l-.118.34H43.2v.093c-.318.208-.695.31-1.075.288ZM32.995 16a.21.21 0 1 0 0 .42.21.21 0 0 0 0-.42Z"/><path d="M33.85 16.184a.813.813 0 0 0-.682-.8l-6.728-.958c0 .892 0 1.745.066 2.623h6.557a.798.798 0 0 0 .787-.865Zm-1.194 0a.341.341 0 0 1 .341-.341.341.341 0 0 1 .328.34.327.327 0 0 1-.328.329.34.34 0 0 1-.34-.302v-.026Zm-1.653 1.783h-4.459c.007.105.007.21 0 .315h4.695a1.865 1.865 0 0 0 1.43-.656.223.223 0 0 0-.17-.38h-5.981v.34h5.547v.093a1.784 1.784 0 0 1-1.062.288Z"/><path d="m27.095.302-.25.118a13.18 13.18 0 0 0-6.11 5.652 6.305 6.305 0 0 0-.643 1.797.472.472 0 0 0-.42-.197 10.108 10.108 0 0 0-1.403 0 .983.983 0 0 0-.813 1.076.786.786 0 0 0 .944.839c.616-.131.866-.223 1.312-.315a.394.394 0 0 0 .21-.092 34.092 34.092 0 0 0 .275 8.564c0 .184 0 .276.078.46a.99.99 0 0 0 .21.51c1.575.991 3.2 1.902 4.866 2.729a.722.722 0 0 0 1.023-.682c-.144-2.4-.223-4.8-.262-7.2 0-2.623.078-5.246.314-7.948.184-1.679.394-3.528.67-5.311Zm-1.088 6.623c0 .59-.237 1.023-.42 1.049-1.757.223-3.541.301-5.246.63-.066 0-.105-.158-.092-.355.02-.23.079-.456.17-.669l.21-.393a13.875 13.875 0 0 1 5.246-5.666 6.69 6.69 0 0 0 .748-.432c.105 0 .157.222.092.563a135.967 135.967 0 0 0-.708 5.273Z"/><path d="M19.672 7.436a.76.76 0 0 1 .249 0c.086-.358.2-.709.34-1.05l-1.73.984c.38.003.762.025 1.14.066Zm.368 10.924c0-.183 0-.288-.08-.471a34.425 34.425 0 0 1-.288-8.315l-.433.105-.76.183h-.223a1.023 1.023 0 0 1-.63-.223 1.074 1.074 0 0 1-.38-.865c-.012-.322.08-.64.262-.905L9.311 1.954A10.846 10.846 0 0 0 4.577 0l.826.669L17.05 8.997 1.377 11.96l-.066.17 1.627-.223c1.56-.236 1.744.105 1.547.328l-1.101 1.311a4.905 4.905 0 0 1-2.99 1.6H.078c.011.31.055.618.13.919l.722 2.623-.105.603a.917.917 0 0 0 .84 1.062l4.957.262a.56.56 0 0 0 .561-.378.563.563 0 0 0 .03-.238c0-.524-.119-1.05-.132-1.626a5.719 5.719 0 0 1 5.679-5.876 5.626 5.626 0 0 1 5.6 5.627c0 .72 0 1.311-.066 1.993a.565.565 0 0 0 .564.603h4.485c-1.088-.59-2.085-1.206-2.977-1.757a1.05 1.05 0 0 1-.328-.603Z"/></g><defs><clipPath id="axa"><path d="M0 0h65.143v24H0z"/></clipPath></defs></symbol><symbol viewBox="0 0 24 24" id="icon-plus" xmlns="http://www.w3.org/2000/svg"><path d="M19 11h-6V5h-2v6H5v2h6v6h2v-6h6z"/></symbol><symbol viewBox="0 0 30 24" id="icon-price" xmlns="http://www.w3.org/2000/svg"><g clip-path="url(#aza)"><path d="M10.09 10.207C6.42 14.055 2.264 16.05.805 14.66l1.523 1.451c1.456 1.39 5.615-.604 9.288-4.453 3.674-3.85 5.468-8.096 4.012-9.486L14.108.72c1.455 1.39-.342 5.638-4.018 9.487Z"/><path d="M9.723 9.854c3.632-3.806 5.396-8.018 3.94-9.408l-.188-.18c.03.03.059.061.087.094-1.538-1.215-5.563.74-9.112 4.463C.9 8.545-.866 12.653.418 14.133a1.912 1.912 0 0 1-.096-.083l.188.18c1.456 1.389 5.58-.57 9.213-4.376Zm12.187 2.615c-1.83-3.881-2.121-7.587-.653-8.28l-1.533.723c-1.468.691-1.176 4.398.651 8.28 1.828 3.88 4.501 6.468 5.97 5.774l1.533-.722c-1.469.692-4.14-1.894-5.969-5.775Z"/><path d="M22.282 12.294c1.807 3.837 4.463 6.388 5.931 5.696l.19-.09a1.019 1.019 0 0 1-.095.04c1.358-.805 1.058-4.4-.712-8.15-1.77-3.752-4.345-6.275-5.832-5.738l.09-.048-.185.09c-1.47.693-1.195 4.362.613 8.2Zm-8.419 9.58c-3.719 1.073-7.063.802-7.469-.605l.424 1.47c.406 1.406 3.752 1.677 7.469.605 3.717-1.073 6.403-3.083 6-4.49l-.424-1.47c.406 1.408-2.28 3.418-6 4.49Z"/><path d="M13.76 21.517c3.678-1.06 6.33-3.06 5.925-4.468l-.053-.182c.009.03.015.06.021.09-.522-1.326-3.766-1.572-7.362-.535-3.597 1.038-6.211 2.973-5.947 4.374-.01-.03-.022-.058-.03-.088l.052.182c.406 1.407 3.716 1.688 7.394.627Z"/></g><defs><clipPath id="aza"><path d="M0 0h29.538v24H0z"/></clipPath></defs></symbol><symbol viewBox="0 0 21 24" id="icon-schedule" xmlns="http://www.w3.org/2000/svg"><g clip-path="url(#baa)"><path d="M7.92 1.467c.033-.133-.07-.24-.198-.36A4.157 4.157 0 0 0 .758 4.535a.257.257 0 0 0 .172.257c.12.047.356-.06.356-.06l6.363-3.017s.24-.128.27-.248Zm4.13 0c-.034-.133.068-.24.197-.36a4.156 4.156 0 0 1 6.963 3.428.257.257 0 0 1-.17.257c-.12.047-.36-.06-.36-.06l-6.364-3.017s-.236-.128-.266-.248Zm4.658 19.056a10.018 10.018 0 1 0-13.378 0L2.138 23.6a.274.274 0 0 0 .275.398h.96a1.44 1.44 0 0 0 .762-.265l1.86-1.488a9.993 9.993 0 0 0 8.04 0l1.859 1.488c.223.16.488.252.763.265h.964a.273.273 0 0 0 .304-.255.275.275 0 0 0-.03-.143l-1.187-3.077Zm-14.12-6.81h1.097a.643.643 0 1 0 0-1.285H2.588a7.465 7.465 0 0 1 6.784-6.783v1.097a.643.643 0 1 0 1.285 0V5.645a7.465 7.465 0 0 1 6.784 6.783h-1.097a.643.643 0 0 0 0 1.286h1.097a7.464 7.464 0 0 1-6.784 6.783V19.5a.643.643 0 0 0-1.285 0v.998a7.465 7.465 0 0 1-6.784-6.783Z"/><path d="M14.21 12.428h-2.306a2 2 0 0 0-1.89-1.358 2.11 2.11 0 0 0-.475.06L7.358 7.389a.647.647 0 1 0-1.114.651l2.21 3.788a1.98 1.98 0 0 0-.428 1.243 1.997 1.997 0 0 0 3.878.643h2.306a.643.643 0 1 0 0-1.286Zm-4.195 1.427a.784.784 0 1 1 0-1.568.784.784 0 0 1 0 1.568Z"/></g><defs><clipPath id="baa"><path d="M0 0h20.571v24H0z"/></clipPath></defs></symbol><symbol viewBox="0 0 16 16" id="icon-squire" xmlns="http://www.w3.org/2000/svg"><rect width="16" height="16" rx="3"/></symbol><symbol viewBox="0 0 24 24" id="icon-sun" xmlns="http://www.w3.org/2000/svg"><g clip-path="url(#bca)"><path d="M0 11.254c.19-.47.548-.632 1.043-.616.669.023 1.338 0 2.007 0a.789.789 0 1 1 .018 1.572H1.975c-.327 0-.655-.014-.98 0A.898.898 0 0 1 0 11.612v-.358Zm11.254 11.611c-.47-.19-.633-.547-.617-1.04.023-.646 0-1.295 0-1.941.006-.185.051-.366.133-.532a.745.745 0 0 1 .816-.369.784.784 0 0 1 .612.635c.016.106.024.212.022.319 0 .632-.016 1.264 0 1.895.016.492-.144.85-.616 1.04l-.35-.007Zm5.932-11.432a5.745 5.745 0 1 1-5.747-5.75 5.777 5.777 0 0 1 5.747 5.75Zm-1.579 0a4.17 4.17 0 1 0-4.177 4.17 4.125 4.125 0 0 0 4.173-4.18l.004.01ZM10.66 1.921c0-.408-.02-.818 0-1.226a.763.763 0 0 1 .658-.687.79.79 0 0 1 .827.451.539.539 0 0 1 .06.213c0 .846.02 1.693 0 2.54a.73.73 0 0 1-.672.684.765.765 0 0 1-.827-.504c-.04-.127-.06-.26-.06-.394v-1.07l.014-.007Zm10.264 10.298h-1.16a.766.766 0 0 1-.733-.49.736.736 0 0 1 .137-.81.8.8 0 0 1 .635-.272h2.23a.786.786 0 1 1 0 1.572h-1.114.005Zm-1.178 6.636c-.03.428-.174.674-.474.809a.72.72 0 0 1-.844-.154c-.376-.36-.738-.733-1.107-1.1-.183-.183-.37-.364-.55-.552a.77.77 0 1 1 1.103-1.077c.534.527 1.07 1.052 1.588 1.604.114.144.209.302.284.47ZM6.3 5.686a.713.713 0 0 1-.425.566.703.703 0 0 1-.797-.076 4.848 4.848 0 0 1-.422-.399c-.433-.43-.866-.859-1.292-1.294a.768.768 0 0 1-.04-1.119.76.76 0 0 1 1.133.037c.53.523 1.052 1.052 1.579 1.577a.866.866 0 0 1 .263.708Zm10.258-.229c.055-.155.132-.3.23-.431a63.021 63.021 0 0 1 1.654-1.662.766.766 0 1 1 1.088 1.075 81.86 81.86 0 0 1-1.672 1.673.721.721 0 0 1-.846.158c-.284-.135-.438-.38-.454-.813ZM6.31 17.398c-.053.156-.13.304-.228.437a63.915 63.915 0 0 1-1.67 1.678.764.764 0 0 1-1.096-1.061c.561-.585 1.146-1.146 1.72-1.721a.699.699 0 0 1 .83-.128c.28.125.42.378.445.795Z"/></g><defs><clipPath id="bca"><path d="M0 0h24v24H0z"/></clipPath></defs></symbol><symbol viewBox="0 0 24 24" id="icon-suspension" xmlns="http://www.w3.org/2000/svg"><g clip-path="url(#bda)"><path d="m21.277 8.108-6.394-4.787a.873.873 0 0 0-1.043 1.4l6.388 4.805a.878.878 0 0 0 1.144-.083.874.874 0 0 0-.095-1.335Zm-2.687 2.687-6.394-4.787a.873.873 0 1 0-1.044 1.4l6.388 4.787a.878.878 0 0 0 1.4-.763.872.872 0 0 0-.35-.637Zm-2.686 2.687L9.51 8.695a.882.882 0 1 0-1.044 1.424l6.388 4.745a.866.866 0 0 0 1.292-1.1.872.872 0 0 0-.242-.282Zm-2.687 2.693-6.394-4.787a.872.872 0 1 0-1.05 1.394l6.394 4.787a.871.871 0 0 0 1.396-.756.872.872 0 0 0-.346-.638Zm-3.464-4.668-.931.93 3.102 2.32.931-.925-3.102-2.325ZM12.44 8.82l-.932.931 3.103 2.32.93-.926L12.44 8.82Zm2.687-2.687-.93.931 3.101 2.32.931-.926-3.102-2.325Zm8.132 1.091-.872-.872a.212.212 0 0 1-.047-.233.212.212 0 0 1 .047-.07l.83-.83a.213.213 0 0 0 0-.302l-1.061-1.062a.214.214 0 0 1 0-.302l1.423-1.424A1.227 1.227 0 1 0 21.841.397l-1.423 1.418a.207.207 0 0 1-.273 0L19.077.753a.213.213 0 0 0-.302 0l-.825.83a.212.212 0 0 1-.233.047.212.212 0 0 1-.07-.047l-.895-.871a.22.22 0 0 0-.314 0l-.73.723a.119.119 0 0 0 0 .148l1.916 1.91a.097.097 0 0 1 .032.072.096.096 0 0 1-.032.07l-.736.736 3.103 2.325.344-.35a.107.107 0 0 1 .142 0l1.916 1.916a.096.096 0 0 0 .11.024.097.097 0 0 0 .032-.024l.724-.723a.22.22 0 0 0 0-.315ZM10.696 19.289l-1.5-1.5a.207.207 0 0 1 0-.298l.972-.972-3.072-2.325-.593.593a.212.212 0 0 1-.234.046.212.212 0 0 1-.069-.046l-1.518-1.513a.593.593 0 0 0-.807 0l-.492.493a.593.593 0 0 0 0 .806l.747.73a.154.154 0 0 1-.1.267 4.216 4.216 0 1 0 4.4 4.4.154.154 0 0 1 .261-.106l.73.73a.594.594 0 0 0 .806 0l.493-.493a.593.593 0 0 0-.024-.812Zm-7.918 1.91a1.999 1.999 0 1 1 2.829-2.825 1.999 1.999 0 0 1-2.83 2.825Z"/></g><defs><clipPath id="bda"><path d="M0 0h24v24H0z"/></clipPath></defs></symbol><symbol viewBox="0 0 24 24" id="icon-telegram" xmlns="http://www.w3.org/2000/svg"><path d="m20.665 3.717-17.73 6.837c-1.21.486-1.203 1.161-.222 1.462l4.552 1.42 10.532-6.645c.498-.303.953-.14.579.192l-8.533 7.701h-.002l.002.001-.314 4.692c.46 0 .663-.211.921-.46l2.211-2.15 4.599 3.397c.848.467 1.457.227 1.668-.785l3.019-14.228c.309-1.239-.473-1.8-1.282-1.434Z"/></symbol><symbol viewBox="0 0 14 24" id="icon-temp" xmlns="http://www.w3.org/2000/svg"><g clip-path="url(#bfa)"><path d="M6.003 0c.159.039.319.071.475.115A3.118 3.118 0 0 1 8.77 3.14v10.788a.497.497 0 0 0 .18.399c1.476 1.419 1.98 3.138 1.375 5.089-.606 1.95-1.97 3.086-3.96 3.397A4.895 4.895 0 0 1 .732 17.68a4.743 4.743 0 0 1 1.63-3.367.435.435 0 0 0 .16-.362V3.25c0-1.687 1.025-2.913 2.69-3.209A.43.43 0 0 0 5.285 0h.717ZM7.88 8.677V3.138a2.234 2.234 0 1 0-4.468.071v11.032a.7.7 0 0 1-.278.593 3.918 3.918 0 0 0-1.474 3.668 4.01 4.01 0 0 0 4.725 3.405c1.65-.346 2.75-1.348 3.15-2.98.399-1.633-.094-3.01-1.376-4.095a.705.705 0 0 1-.282-.591c.005-1.862.003-3.712.003-5.564Zm3.55-5.997h-1.248a.459.459 0 1 1 0-.892h2.543a.458.458 0 1 1 0 .892h-1.296Zm.022 4.468h1.27a.459.459 0 1 1 0 .892h-2.54a.459.459 0 1 1 0-.892h1.27Z"/><path d="M11.478 12.51h1.247a.458.458 0 1 1 0 .892H10.18a.46.46 0 0 1-.509-.436c0-.27.2-.458.519-.458l1.288.002Zm-.45-8.042h.823a.458.458 0 1 1 0 .892H10.16a.458.458 0 1 1 0-.892c.292-.003.58 0 .87 0Zm-.046 6.256h-.822a.459.459 0 1 1 0-.892h1.691a.458.458 0 1 1 0 .892c-.289.002-.575 0-.869 0Zm-4.892 5.03a2.244 2.244 0 0 1-.474 4.44A2.238 2.238 0 0 1 3.45 18.36c-.202-1.197.403-2.107 1.747-2.602V3.308c0-.41.149-.62.44-.624.29-.004.458.211.458.633v12.175l-.004.261Z"/></g><defs><clipPath id="bfa"><path d="M0 0h13.895v24H0z"/></clipPath></defs></symbol><symbol viewBox="0 0 24 24" id="icon-time" xmlns="http://www.w3.org/2000/svg"><path d="M0 12.146v-1.43c.016-.057.028-.115.037-.174A10.982 10.982 0 0 1 1.884 5.17C3.717 2.45 6.238.763 9.488.174 9.896.1 10.313.057 10.718 0h1.428c.39.05.78.092 1.167.156a11.196 11.196 0 0 1 5.656 2.7 11.266 11.266 0 0 1 3.72 6.61c.073.414.119.836.176 1.253v1.428c-.013.07-.03.144-.041.215-.055.399-.085.8-.163 1.192a11.19 11.19 0 0 1-3.85 6.59 11.127 11.127 0 0 1-8.535 2.66 10.983 10.983 0 0 1-6.032-2.499 11.27 11.27 0 0 1-4.068-6.9C.101 12.99.057 12.568 0 12.147Zm11.431 9.38a10.085 10.085 0 1 0-10.083-10.1 10.111 10.111 0 0 0 10.084 10.1Z"/><path d="M12.103 9.227v1.696a.488.488 0 0 0 .158.39 775.549 775.549 0 0 1 3.539 3.533c.38.38.43.77.135 1.073-.296.302-.688.261-1.089-.129a4288.557 4288.557 0 0 0-3.758-3.753 1.026 1.026 0 0 1-.326-.794V7.448a.668.668 0 0 1 1.23-.39.656.656 0 0 1 .1.383c.013.596.011 1.192.011 1.786Zm0-5.161v.666a.668.668 0 0 1-1.336 0 33.83 33.83 0 0 1 0-1.359.667.667 0 0 1 1.334 0c.009.232.002.463.002.693Zm-8.042 8.037h-.667a.668.668 0 0 1 0-1.336h1.36a.667.667 0 0 1 0 1.334c-.232.009-.464.002-.693.002Zm14.732 0h-.667a.668.668 0 0 1 0-1.336c.458-.01.911-.01 1.359 0a.667.667 0 1 1 0 1.334c-.234.009-.463.002-.692.002Zm-8.022 6.69v-.667a.668.668 0 0 1 1.337-.011c.009.458.009.911 0 1.359a.668.668 0 0 1-1.337.006c-.01-.229 0-.458 0-.687Zm6.351-1.011a.667.667 0 0 1-.674-.66.688.688 0 0 1 .667-.674.663.663 0 0 1 .667.667.651.651 0 0 1-.66.667ZM5.085 5.743a.653.653 0 0 1 .67-.658.665.665 0 0 1 .662.67.688.688 0 0 1-.674.662.664.664 0 0 1-.658-.674Zm12.046-.657a.657.657 0 0 1 .653.687.67.67 0 0 1-1.156.45.687.687 0 0 1-.191-.477.673.673 0 0 1 .694-.66ZM5.743 17.782a.662.662 0 0 1-.66-.672.671.671 0 0 1 .672-.666.688.688 0 0 1 .667.687.671.671 0 0 1-.679.651Z"/></symbol><symbol viewBox="0 0 24 24" id="icon-tire" xmlns="http://www.w3.org/2000/svg"><path d="M11.436 0a11.436 11.436 0 0 1 0 22.872C5.153 22.872 0 17.747 0 11.49A11.45 11.45 0 0 1 11.436 0ZM.673 10.64l.086.028.636-.51c.229-.174.417-.179.551-.016.135.162.087.363-.123.535-.336.272-.68.53-1.006.82a.4.4 0 0 0-.13.278c0 .31.031.624.068.933a10.58 10.58 0 0 0 2.447 5.647c.04.04.084.077.13.11.037-.318.062-.604.103-.89.035-.245.179-.36.385-.33.206.03.3.186.274.43-.043.43-.098.86-.128 1.29a.428.428 0 0 0 .108.305 10.62 10.62 0 0 0 5.67 2.795c.3.05.603.073.972.119l-.542-.686c-.19-.23-.202-.428-.037-.57.165-.142.368-.09.567.153.263.325.52.652.79.97a.37.37 0 0 0 .25.128 10.62 10.62 0 0 0 6.588-2.497c.049-.047.094-.096.137-.147-.331-.039-.624-.066-.915-.107a.333.333 0 0 1-.31-.232.317.317 0 0 1-.014-.137.346.346 0 0 1 .423-.29c.43.043.862.08 1.29.14a.356.356 0 0 0 .352-.129 10.75 10.75 0 0 0 2.763-5.599c.055-.315.078-.633.123-1.018l-.697.56c-.215.172-.419.177-.551.015-.133-.163-.087-.364.125-.536.337-.272.687-.537 1.007-.819a.37.37 0 0 0 .121-.256 10.656 10.656 0 0 0-2.48-6.569.717.717 0 0 1-.08-.192l-.086.08c-.035.293-.062.588-.103.88a.325.325 0 0 1-.239.306.339.339 0 0 1-.423-.396c.042-.43.079-.863.14-1.29a.374.374 0 0 0-.135-.373A10.665 10.665 0 0 0 13.687.915c-.478-.103-.968-.156-1.453-.229L12.21.75c.174.217.35.432.522.65.171.217.167.418 0 .549-.167.13-.357.084-.52-.12-.279-.34-.546-.685-.834-1.022a.37.37 0 0 0-.259-.12 10.668 10.668 0 0 0-6.381 2.337c-.11.087-.213.178-.36.304.358.041.648.069.939.11a.332.332 0 0 1 .183.607.343.343 0 0 1-.275.054c-.43-.044-.862-.08-1.29-.14a.355.355 0 0 0-.352.13 10.585 10.585 0 0 0-2.564 4.696C.865 9.394.785 10.02.673 10.64Z"/><path d="M3.904 11.436a7.534 7.534 0 1 1 7.486 7.548 7.548 7.548 0 0 1-7.486-7.548Zm.67 0a6.862 6.862 0 1 0 6.862-6.862 6.875 6.875 0 0 0-6.862 6.862Z"/><path d="M11.436 17.55a6.109 6.109 0 1 1 .01-12.218 6.109 6.109 0 0 1-.01 12.218Zm0-7.795a1.686 1.686 0 1 0 .005 3.371 1.686 1.686 0 0 0-.005-3.371Zm2.258 2.42c.352.656.7 1.278 1.022 1.912a.797.797 0 0 0 .522.434c.58.176.58.19.887-.343a5.36 5.36 0 0 0 .741-2.822c-.272-.085-.53-.17-.789-.245a.283.283 0 0 0-.185 0c-.72.355-1.446.705-2.19 1.064h-.008Zm-4.524 0c-.74-.357-1.457-.705-2.178-1.048a.25.25 0 0 0-.16-.023c-.281.08-.558.17-.837.257a5.407 5.407 0 0 0 .844 2.984c.229.364.229.362.627.23.128-.044.26-.081.384-.136a.382.382 0 0 0 .176-.142c.387-.697.762-1.395 1.153-2.12l-.01-.002Zm.869-2.66c.114-.824.229-1.624.331-2.422a.245.245 0 0 0-.043-.154c-.158-.228-.32-.457-.49-.686a5.42 5.42 0 0 0-2.611 1.752c-.24.293-.23.295-.019.59.068.108.144.21.229.304a.686.686 0 0 0 .304.188c.76.15 1.514.29 2.299.428Zm1.397 4.302c-.427.457-.807.896-1.242 1.283a1.4 1.4 0 0 0-.519 1.276c.018.167.062.23.217.277.95.282 1.959.297 2.917.044.393-.103.393-.106.384-.499v-.432a.338.338 0 0 0-.066-.195c-.56-.579-1.114-1.162-1.69-1.754Zm1.4-4.302c.638-.117 1.24-.254 1.85-.327a1.267 1.267 0 0 0 1.023-.625c.126-.203.174-.338-.014-.503a.804.804 0 0 1-.075-.094 5.455 5.455 0 0 0-2.583-1.722c-.169.229-.331.457-.49.686a.245.245 0 0 0-.043.153l.337 2.434-.005-.002Zm1.018 6.79a5.39 5.39 0 0 0 1.45-1.054c-.215-.075-.384-.149-.56-.192a.688.688 0 0 1-.474-.398c-.171-.352-.368-.686-.553-1.036l-.376-.686-1.065.777c.027.03.075.09.13.147.382.4.75.812 1.144 1.191a.867.867 0 0 1 .304.762c-.01.142.002.29.002.49h-.002Zm0-4.956c.602-.288 1.221-.597 1.855-.883a.772.772 0 0 1 .43-.032c.225.053.447.117.665.195a5.127 5.127 0 0 0-.548-1.69 2.825 2.825 0 0 0-.209.274 1.099 1.099 0 0 1-.899.574c-.583.068-1.16.203-1.706.302l.412 1.26Zm-4.312 1.587c-.02.035-.061.099-.098.167-.281.52-.567 1.039-.837 1.565a.685.685 0 0 1-.457.386c-.188.048-.369.128-.577.202.418.429.908.782 1.448 1.043v-.64a.613.613 0 0 1 .208-.511c.27-.263.522-.542.782-.814l.597-.61-1.066-.788Zm.98-6.889c.082.124.17.244.267.357a.991.991 0 0 1 .229.926c-.11.595-.167 1.199-.243 1.778h1.327c-.085-.627-.167-1.277-.266-1.924a.724.724 0 0 1 .145-.627c.12-.141.228-.306.37-.521l-1.83.011Zm-1.094 4.044c-.645-.119-1.32-.25-1.997-.364a.597.597 0 0 1-.425-.274c-.114-.17-.247-.33-.391-.52a5.173 5.173 0 0 0-.545 1.693c.114-.027.226-.062.334-.105a1.097 1.097 0 0 1 1.085.075c.507.284 1.045.51 1.537.746l.402-1.25Z"/></symbol><symbol viewBox="0 0 19 24" id="icon-tires" xmlns="http://www.w3.org/2000/svg"><g clip-path="url(#bia)"><path d="M1.964.605.212 5.508a.634.634 0 0 0 .37.808l1.663.617a.616.616 0 0 0 .793-.377l1.753-4.903a.634.634 0 0 0-.37-.808L2.757.228a.616.616 0 0 0-.793.377Zm13.87-.013L14.08 5.496a.634.634 0 0 0 .37.807l1.664.617c.32.12.676-.05.793-.377L18.66 1.64a.634.634 0 0 0-.37-.808L16.627.216a.616.616 0 0 0-.793.376ZM3.385 17.521h-1.77a.625.625 0 0 0-.62.63v5.219c0 .348.278.63.62.63h1.77a.625.625 0 0 0 .619-.63v-5.218a.625.625 0 0 0-.62-.63Zm13.874 0h-1.77a.625.625 0 0 0-.62.63v5.219c0 .348.277.63.62.63h1.77a.625.625 0 0 0 .618-.63v-5.218a.625.625 0 0 0-.618-.63Z"/><path d="M16.006 3.597a.462.462 0 0 1-.13.321.446.446 0 0 1-.316.133H3.054a.44.44 0 0 1-.316-.133.455.455 0 0 1-.13-.321.462.462 0 0 1 .12-.34.446.446 0 0 1 .326-.144h12.434c.119 0 .232.048.316.133a.46.46 0 0 1 .13.321l.072.03Zm0 17.105a.46.46 0 0 1-.13.321.442.442 0 0 1-.316.134H3.054a.444.444 0 0 1-.288-.148.46.46 0 0 1-.115-.307.458.458 0 0 1 .133-.27.442.442 0 0 1 .27-.126h12.434a.44.44 0 0 1 .462.222.46.46 0 0 1 .056.174Z"/><path d="M9.746 3.465h-.85v17.618h.85V3.465Z"/><path d="M10.336 3.597c0 .206-.06.407-.172.578a1.026 1.026 0 0 1-.459.383 1.005 1.005 0 0 1-1.113-.225 1.059 1.059 0 0 1-.222-1.134c.077-.19.208-.353.376-.467a1.009 1.009 0 0 1 1.29.129c.192.195.3.46.3.736Zm0 17.105c0 .206-.06.407-.172.578a1.025 1.025 0 0 1-.459.383 1.004 1.004 0 0 1-1.113-.225 1.059 1.059 0 0 1-.222-1.134c.077-.19.208-.353.376-.467a1.008 1.008 0 0 1 1.29.13c.192.194.3.46.3.735Zm.259-8.413c0 2.154-.561 3.913-1.252 3.913-.69 0-1.252-1.759-1.252-3.913 0-2.155.561-3.929 1.252-3.929.69 0 1.252 1.76 1.252 3.929Z"/></g><defs><clipPath id="bia"><path d="M0 0h19v24H0z"/></clipPath></defs></symbol><symbol viewBox="0 0 24 24" id="icon-transmission" xmlns="http://www.w3.org/2000/svg"><g clip-path="url(#bja)"><path d="M21.076 15.318c-.55.06-1.208.139-1.885.248a38.87 38.87 0 0 0-7.6 2.03A890.02 890.02 0 0 0 1.397 21.28a1.275 1.275 0 0 0-.834 1.209l21.841-6.471a1.366 1.366 0 0 0-1.33-.701Zm2.846 1.069a.542.542 0 0 0-.677-.368L.413 22.755a.544.544 0 0 0-.294.866.547.547 0 0 0 .578.18l22.886-6.737a.544.544 0 0 0 .339-.677ZM9.833 8.847l.271-.036a.212.212 0 0 1 .236.151l.707 2.477a.217.217 0 0 0 .236.157l.247-.03a.206.206 0 0 1 .236.181l.604 5.172c.574-.2 1.209-.405 1.843-.604l-.556-4.815a.212.212 0 0 1 .187-.242.211.211 0 0 0 .181-.223l-.175-2.707a.212.212 0 0 1 .079-.181c.652-.55.44-1.982.338-4.586 0-.399-.06-.84-.12-1.317v-.018A2.542 2.542 0 0 0 11.3.02L8.183.437a2.507 2.507 0 0 0-2.09 3.208c.368 1.245 2.453 5.366 3.74 5.202ZM6.812 2.842l.157-.042.568-.151c.23-.067.501-.145.78-.236l.217-.073.217-.078.441-.17c.151-.054.296-.12.435-.18l.212-.079.205-.097.2-.096.187-.097.344-.181.29-.157.224-.121.145-.079.066-.042-.042.042a.96.96 0 0 1-.115.121c-.058.065-.12.126-.187.181l-.115.11-.145.108-.151.12-.17.122c-.054.042-.114.078-.18.12l-.194.121a6.75 6.75 0 0 1-1.329.592l-.236.067-.223.06-.441.085c-.14 0-.272.036-.393.042a4.277 4.277 0 0 1-.604 0h-.23l.067-.012Zm9.014 18.149a.525.525 0 0 1 .332-.223.054.054 0 0 0 .04-.023.054.054 0 0 0 .009-.02 1.929 1.929 0 0 0-.081-.406.054.054 0 0 0-.058-.023.526.526 0 0 1-.605-.284l-.942.29a1.444 1.444 0 1 1-2.48 1.476 1.463 1.463 0 0 1-.172-.684l-1.456.429c.018.116.042.23.072.344a.06.06 0 0 0 .073.043.52.52 0 0 1 .574.284.525.525 0 0 1-.03.525l-.091.103a.067.067 0 0 0 0 .084c.074.097.155.187.242.272a.066.066 0 0 0 .084 0 .52.52 0 0 1 .64-.048.538.538 0 0 1 .207.625c0 .008.002.015.005.022a.052.052 0 0 0 .012.018.057.057 0 0 0 .018.012c.115.048.23.084.345.12a.066.066 0 0 0 .078-.042.325.325 0 0 1 .06-.12.525.525 0 0 1 .955.187.067.067 0 0 0 .066.048c.12-.018.24-.042.357-.073a.072.072 0 0 0 .048-.072.526.526 0 0 1 .278-.574.526.526 0 0 1 .604.12c.005.006.012.01.018.013a.054.054 0 0 0 .043 0 2.09 2.09 0 0 0 .296-.254.052.052 0 0 0 .017-.04.054.054 0 0 0-.017-.038.532.532 0 0 1 .568-.852.055.055 0 0 0 .044-.002.055.055 0 0 0 .028-.035 2.1 2.1 0 0 0 .119-.366.055.055 0 0 0-.02-.04.053.053 0 0 0-.02-.01.526.526 0 0 1-.363-.532.52.52 0 0 1 .103-.254Zm5.431.471a2.248 2.248 0 0 0 .218-3.165l-.037-.037-3.866 1.142a2.242 2.242 0 0 0 3.685 2.06Z"/><path d="M23.62 19.716a.701.701 0 0 1-.417-1.208.638.638 0 0 1 .157-.103.078.078 0 0 0 .036-.102 4.218 4.218 0 0 0-.211-.441.084.084 0 0 0-.109 0 .695.695 0 0 1-.344.072l-.997.211a2.526 2.526 0 1 1-4.465 1.318l-1.208.356a.706.706 0 0 1 .29 1.209.65.65 0 0 1-.151.096.09.09 0 0 0-.043.103c.067.15.14.296.218.44a.079.079 0 0 0 .103 0 .714.714 0 0 1 .845.176.7.7 0 0 1 .049.852.084.084 0 0 0 0 .109c.128.101.264.194.404.278a.084.084 0 0 0 .11-.03.602.602 0 0 1 .12-.134.712.712 0 0 1 .743-.072.701.701 0 0 1 .447.737.084.084 0 0 0 .073.085c.16.009.322.009.483 0a.085.085 0 0 0 .085-.085.684.684 0 0 1 .241-.483.658.658 0 0 1 .327-.157.694.694 0 0 1 .767.38.079.079 0 0 0 .103.037c.15-.062.298-.133.44-.212a.079.079 0 0 0 .031-.103.7.7 0 0 1 1.027-.894.09.09 0 0 0 .109 0c.1-.128.19-.264.272-.405a.078.078 0 0 0 0-.108.707.707 0 0 1-.067-1.118.723.723 0 0 1 .508-.17.091.091 0 0 0 .09-.072c.01-.16.01-.322 0-.483a.084.084 0 0 0-.066-.079Z"/></g><defs><clipPath id="bja"><path d="M0 0h24v24H0z"/></clipPath></defs></symbol><symbol viewBox="0 0 52 24" id="icon-transporter" xmlns="http://www.w3.org/2000/svg"><path d="M46.076 20.166a3.835 3.835 0 1 1-7.67 0 3.835 3.835 0 0 1 7.67 0ZM9.579 16.332A3.834 3.834 0 1 0 9.578 24a3.834 3.834 0 0 0 0-7.668Zm41.385-7.025c0 5.122-.527 9.308-1.17 9.308h-2.576a5.21 5.21 0 0 0-9.952 0H14.525a5.18 5.18 0 0 0-9.922 0H2.496a2.78 2.78 0 0 1 0-5.532h31.96a3.802 3.802 0 0 1 0-.995c0-1.61 0-2.927 1.464-2.927 0-5.063.527-9.161 1.17-9.161h6.557c.673 0 7.317 4.156 7.317 9.307ZM43.266 2.02h-4.595v5.853h4.595V2.02Zm5.561 5.853A11.444 11.444 0 0 0 44.174 2.4v5.356l4.653.117ZM29.276 10.8a2.312 2.312 0 1 1-2.312-2.312 2.312 2.312 0 0 1 2.312 2.078v.234Zm-3.951-.556h.76l-.585-.585c-.099.18-.158.38-.175.585Zm.234 1.258.527-.614h-.761c.034.219.114.428.234.614Zm1.083-.146-.556.615c.184.124.394.204.615.234l-.06-.849Zm0-2.43a1.961 1.961 0 0 0-.556.264l.615.586-.06-.85Zm.644.85.585-.586a2.106 2.106 0 0 0-.585-.263v.849Zm.585 2.195-.585-.615v.849c.21-.035.41-.115.585-.234Zm.732-1.083h-.849l.585.614c.13-.184.22-.393.264-.614Zm0-.644a1.521 1.521 0 0 0-.264-.585l-.585.585h.849ZM2.671 6.82c0-.527-1.112-1.142-.82-1.786l4.596-.527a22.156 22.156 0 0 1 9.629-2.37 25.844 25.844 0 0 1 10.302 3.395 19.04 19.04 0 0 1 6.147 2.605c.63.838.923 1.883.82 2.926.01.205.01.41 0 .615h-3.806c.144-.332.214-.692.205-1.054a2.781 2.781 0 0 0-5.531 0 2.5 2.5 0 0 0 .205 1.083H9.783c.154-.33.234-.69.235-1.053a2.926 2.926 0 0 0-5.561 0c.037.373.157.733.35 1.053h-.643l-1.815-.497a11.707 11.707 0 0 1-.41-2.605 1.786 1.786 0 0 1 0-.41c.118-.82.732-.936.732-1.375Zm26.751.497a2.752 2.752 0 0 1 1.435 1.815h1.639a3.717 3.717 0 0 0-3.074-1.815ZM9.315 4.157l1.2 1.17h13.522a24.791 24.791 0 0 0-8.283-2.4 19.76 19.76 0 0 0-6.439 1.23Zm.38 6.409a2.342 2.342 0 1 1-2.34-2.312 2.312 2.312 0 0 1 2.34 2.312Zm-4.097-.322h.849l-.615-.585c-.12.175-.2.375-.234.585Zm.234 1.258.615-.614h-.849c.07.229.19.439.351.614h-.117Zm1.083-.146-.615.615c.187.12.396.2.615.234v-.849Zm0-2.43a2.283 2.283 0 0 0-.615.264l.615.586v-.85Zm.644.85.615-.586a2.283 2.283 0 0 0-.615-.263v.849Zm.615 2.195-.615-.615v.849c.26-.017.51-.097.732-.234h-.117Zm.702-1.083h-.732l.615.614c.12-.186.2-.395.234-.614h-.117Zm0-.644a1.463 1.463 0 0 0-.234-.585l-.615.585h.85Z"/></symbol><symbol viewBox="0 0 24 24" id="icon-video" xmlns="http://www.w3.org/2000/svg"><path d="M12 2.25A9.75 9.75 0 1 0 21.75 12 9.76 9.76 0 0 0 12 2.25Zm0 18A8.25 8.25 0 1 1 20.25 12 8.26 8.26 0 0 1 12 20.25Zm4.523-8.886-6-3.75a.75.75 0 0 0-1.148.636v7.5a.75.75 0 0 0 1.148.636l6-3.75a.75.75 0 0 0 0-1.272Zm-5.648 3.033V9.603L14.71 12l-3.835 2.397Z"/></symbol><symbol viewBox="0 0 24 24" id="icon-vk" xmlns="http://www.w3.org/2000/svg"><path d="M21.579 6.855c.14-.465 0-.806-.662-.806h-2.193c-.558 0-.813.295-.953.619 0 0-1.115 2.719-2.695 4.482-.51.513-.743.675-1.021.675-.139 0-.341-.162-.341-.627V6.855c0-.558-.161-.806-.626-.806H9.642c-.348 0-.558.258-.558.504 0 .528.79.65.871 2.138v3.228c0 .707-.127.836-.407.836-.743 0-2.551-2.729-3.624-5.853-.209-.607-.42-.852-.98-.852H2.752c-.627 0-.752.295-.752.619 0 .582.743 3.462 3.461 7.271 1.812 2.601 4.363 4.011 6.687 4.011 1.393 0 1.565-.313 1.565-.853v-1.966c0-.626.133-.752.574-.752.324 0 .882.164 2.183 1.417 1.486 1.486 1.732 2.153 2.567 2.153h2.192c.626 0 .939-.313.759-.931-.197-.615-.907-1.51-1.849-2.569-.512-.604-1.277-1.254-1.51-1.579-.325-.419-.231-.604 0-.976.001.001 2.672-3.761 2.95-5.04Z"/></symbol><symbol viewBox="0 0 35 24" id="icon-weather" xmlns="http://www.w3.org/2000/svg"><g clip-path="url(#bna)"><path d="M32.42 14.527a.836.836 0 0 1-.3-.432 6.212 6.212 0 0 0-7.461-4.296.833.833 0 0 1-.888-.335 6.858 6.858 0 0 0-12.476 3.215.833.833 0 0 1-.471.674 4.341 4.341 0 0 0-.248.127.905.905 0 0 1-.223.084 5.335 5.335 0 0 0-2.959 1.832 5.195 5.195 0 0 0-1.18 3.325A5.3 5.3 0 0 0 11.523 24h17.672a5.3 5.3 0 0 0 5.31-5.28 5.232 5.232 0 0 0-2.085-4.193ZM6.244 10.392a4.125 4.125 0 0 0 1.072 2.787A6.986 6.986 0 0 1 9.7 12.013a8.51 8.51 0 0 1 2.877-5.155 4.15 4.15 0 0 0-6.332 3.534Zm4.148-6.377a.834.834 0 0 0 .84-.834V.834a.834.834 0 1 0-1.668 0v2.347a.834.834 0 0 0 .828.834Zm-4.328.55a.834.834 0 1 0 1.445-.834L6.335 1.698a.833.833 0 1 0-1.444.833l1.173 2.034Zm-4.366 1.77 2.033 1.174a.834.834 0 1 0 .834-1.445L2.533 4.891a.834.834 0 1 0-.835 1.444Zm-.864 4.897h2.347a.834.834 0 0 0 0-1.668H.834a.834.834 0 0 0 0 1.668ZM4.87 13.58a.836.836 0 0 0-1.14-.299L1.699 14.45a.834.834 0 0 0 .835 1.446l2.032-1.175a.835.835 0 0 0 .305-1.14Zm8.71-8.71a.837.837 0 0 0 1.14-.3l1.175-2.033a.834.834 0 0 0-1.446-.833l-1.174 2.027a.835.835 0 0 0 .306 1.14Z"/></g><defs><clipPath id="bna"><path d="M0 0h34.8v24H0z"/></clipPath></defs></symbol><symbol viewBox="0 0 29 24" id="icon-weight" xmlns="http://www.w3.org/2000/svg"><path d="m27.15.802-.846 1.997a2.816 2.816 0 0 1-2.721 1.82h-6.596v2.278h2.393c1.632 0 2.759 1.055 2.947 2.666.236 2.035.508 4.065.764 6.098.218 1.725.446 3.45.648 5.17a1.675 1.675 0 0 1-.975 1.733 1.68 1.68 0 0 1-.688.15H5.265a2.365 2.365 0 0 1-.969-.2 1.649 1.649 0 0 1-.887-1.74L4.677 10.68c.053-.57.139-1.139.256-1.7a2.748 2.748 0 0 1 2.601-2.084c.779-.022 1.557 0 2.332 0h.297c0-.096.016-.164.016-.234V4.627H3.483C2.049 4.62 1.05 3.903.596 2.543L.109 1.087A2.207 2.207 0 0 0 0 .856V.483A.77.77 0 0 1 .767.094h25.626a.773.773 0 0 1 .768.39l-.011.318ZM13.57 21.59h8.404a.569.569 0 0 0 .629-.708c-.035-.299-.074-.596-.112-.892l-1.29-10.36c-.122-.977-.788-1.613-1.716-1.613H7.66a1.649 1.649 0 0 0-1.674 1.434c-.215 1.548-.397 3.099-.593 4.65l-.84 6.704c-.066.544.154.781.69.781l8.326.003ZM25.737 1.237H1.36l.292.892c.318.964.873 1.36 1.904 1.36h20.1a1.579 1.579 0 0 0 1.464-.848c.237-.438.405-.914.618-1.404Zm-14.42 5.627h4.505V4.633h-4.497l-.008 2.23Z"/><path d="M13.583 11.408c2.77 0 5.104 2.308 5.083 5.02a.572.572 0 0 1-.832.567.545.545 0 0 1-.249-.28 1.235 1.235 0 0 1-.049-.338c-.106-1.568-.832-2.743-2.244-3.437-2.569-1.26-5.497.523-5.676 3.423 0 .106-.012.212-.036.316a.563.563 0 0 1-1.088-.24c.087-2.092 1.075-3.613 2.941-4.552a4.734 4.734 0 0 1 2.15-.479Z"/><path d="M14.677 14.801a.569.569 0 0 1 .522.838c-.22.471-.462.93-.694 1.396-.138.272-.272.544-.416.816a.565.565 0 0 1-1.051-.053.563.563 0 0 1 .039-.44c.367-.753.745-1.498 1.121-2.247a.545.545 0 0 1 .479-.31Z"/></symbol><symbol viewBox="0 0 24 24" id="icon-wheels" xmlns="http://www.w3.org/2000/svg"><g clip-path="url(#bpa)"><path d="M12.007 0a12 12 0 1 0-.014 24 12 12 0 0 0 .014-24Zm0 21.333a9.34 9.34 0 1 1-.013-18.679 9.34 9.34 0 0 1 .013 18.68Z"/><path d="M18.13 5.882a8.673 8.673 0 1 0 2.537 6.131 8.607 8.607 0 0 0-2.536-6.13ZM4.524 12.007A7.418 7.418 0 0 1 5.941 7.62a.87.87 0 0 1 1.412 0L9.04 9.94a1.307 1.307 0 0 1-.653 2l-2.745.889a.856.856 0 0 1-1.118-.823Zm6.3 6.294a.87.87 0 0 1-1.136.83 7.563 7.563 0 0 1-3.726-2.7.87.87 0 0 1 .431-1.346l2.726-.889a1.307 1.307 0 0 1 1.706 1.235v2.87Zm.131-9.739L9.262 6.216a.87.87 0 0 1 .444-1.307 7.523 7.523 0 0 1 4.575 0 .87.87 0 0 1 .445 1.34l-1.647 2.293a1.308 1.308 0 0 1-2.125 0v.02Zm7.092 7.843a7.536 7.536 0 0 1-3.726 2.7.868.868 0 0 1-1.137-.804v-2.89a1.305 1.305 0 0 1 1.101-1.28c.203-.033.41-.017.605.045l2.726.89a.868.868 0 0 1 .43 1.346v-.007Zm.314-3.595-2.745-.888a1.307 1.307 0 0 1-.654-2l1.686-2.32a.868.868 0 0 1 1.412 0 7.424 7.424 0 0 1 1.425 4.385.865.865 0 0 1-1.124.83v-.007Z"/></g><defs><clipPath id="bpa"><path d="M0 0h24v24H0z"/></clipPath></defs></symbol><symbol viewBox="0 0 24 24" id="icon-youtube" xmlns="http://www.w3.org/2000/svg"><path d="M21.593 7.203a2.506 2.506 0 0 0-1.762-1.766C18.265 5.007 12 5 12 5s-6.264-.007-7.831.404a2.56 2.56 0 0 0-1.766 1.778c-.413 1.566-.417 4.814-.417 4.814s-.004 3.264.406 4.814c.23.857.905 1.534 1.763 1.765 1.582.43 7.83.437 7.83.437s6.265.007 7.831-.403a2.516 2.516 0 0 0 1.767-1.763c.414-1.565.417-4.812.417-4.812s.02-3.265-.407-4.831ZM9.996 15.005l.005-6 5.207 3.005-5.212 2.995Z"/></symbol><symbol viewBox="0 0 100 100" id="sprite" xmlns="http://www.w3.org/2000/svg"/></svg>