<svg xmlns="http://www.w3.org/2000/svg" width="128" height="128" fill="none"><g clip-path="url(#a)"><mask id="b" width="128" height="128" x="0" y="0" maskUnits="userSpaceOnUse" style="mask-type:luminance"><path fill="#fff" d="M0 0h128v128H0V0Z"/></mask><g mask="url(#b)"><path fill="#262626" d="M64 128c35.348 0 64-28.652 64-64S99.348 0 64 0 0 28.652 0 64s28.652 64 64 64Z"/><path fill="#DF2929" stroke="#fff" stroke-width="8" d="M104.916 40.824 105.928 36H85.88l-1.16 1.12L69.6 51.656l-9.688-13.94L58.72 36H24.828l5.012 6.456 7.972 10.256-8.088 38.464L28.712 96h22.416l.664-3.184 2.68-12.848 1.02 1.608 1.176 1.86h14.98l1.16-1.1 1.216-1.16-2.104 10L70.908 96h22.404l.672-3.176 10.932-52Z"/></g></g><defs><clipPath id="a"><path fill="#fff" d="M0 0h128v128H0z"/></clipPath></defs></svg>
