<svg width="150" height="70" viewBox="0 0 150 70" fill="none" xmlns="http://www.w3.org/2000/svg">
<path d="M147.503 40.7614L146.031 38.6965C146.154 38.6059 146.276 38.5082 146.399 38.4033C147.376 37.5655 148.028 36.4368 148.336 35.0463V35.0358V35.0254L148.953 32.116C149.272 30.624 148.971 29.2484 148.08 28.1301C147.443 27.3304 146.261 26.3763 144.251 26.3763H111.488L110.837 27.5244L109.2 30.4114L109.082 29.8422L108.714 28.0518H102.84L102.418 27.0619L101.021 23.9675L98.5722 18.5396L103.535 12.8924L106.771 9.21239H96.0191L95.332 10.0927L94.8555 10.7059L94.8311 10.644L94.27 9.21239H82.5848L82.5901 9.2191C82.5008 9.21462 82.4092 9.21239 82.316 9.21239H63.1265L62.4638 9.83902L61.5789 10.6783C61.4415 10.5385 61.3025 10.4003 61.162 10.2635C56.2299 5.4396 49.9631 2.12842 43.1315 0.736746C36.2999 -0.654929 29.201 -0.0664885 22.7069 2.42978C16.2128 4.92604 10.6065 9.22141 6.5765 14.7882C2.54654 20.355 0.268524 26.9507 0.0223086 33.7651C-0.223907 40.5795 1.5724 47.3158 5.19055 53.1464C8.80871 58.977 14.0911 63.648 20.3889 66.5855C26.6866 69.5231 33.7253 70.5992 40.6404 69.6817C47.5555 68.7642 54.0456 65.8931 59.3136 61.421H109.551C111.058 61.421 112.382 60.872 113.382 59.8343C114.244 58.9336 114.836 57.8183 115.092 56.6109L115.096 56.5952V56.5795L115.528 54.5049C115.703 53.7617 115.703 52.9892 115.528 52.246H116.018L116.393 50.4676L116.644 49.274C117.042 47.3717 116.384 46.0513 115.763 45.2769C115.445 44.879 115.06 44.536 114.626 44.2623H137.431L137.809 42.4876L138.094 41.1448L139.392 43.203L140.065 44.2623H150L147.503 40.7614ZM56.0368 27.0567L58.3402 29.9698L60.2573 32.3935L59.8931 34.081H59.8992L58.2959 41.5782L57.876 43.538H42.7376L45.577 47.1285L47.3582 49.3814L46.0221 55.6687C45.5983 57.5806 46.2656 58.9108 46.9009 59.6911C47.5361 60.4714 48.7241 61.4181 50.7229 61.4181H52.5911C47.5638 64.4678 41.7622 66.0797 35.8448 66.0709C18.2846 66.0709 4.04246 52.158 4.04246 34.9963C4.04246 17.8346 18.2807 3.92624 35.8448 3.92624C42.1702 3.91638 48.3535 5.75836 53.5974 9.21462H45.0876L47.9262 12.8051L49.6769 15.0185L47.6651 24.4113L47.0902 27.0969H56.1039L56.0368 27.0567Z" fill="white"/>
<path d="M95.9328 18.3506L101.837 11.5655H97.1791L94.2205 15.4101L92.7305 11.5655H91.7003H88.2636H87.2539L89.7184 14.7141L91.3459 18.2375L85.3897 25.135H90.0102L92.9825 21.2716L94.5344 25.135H98.9632L95.9328 18.3506Z" fill="#262626"/>
<path d="M67.6189 11.5655H64.0676L59.205 16.2078L55.9547 11.5655H55.9127H52.7853H49.7434L52.1376 14.6244L49.9114 25.135H53.6536L54.887 19.2645L56.5435 21.8559H59.483L62.2515 19.2456L61.0036 25.135H64.745L67.6189 11.5655Z" fill="#DF2929"/>
<path d="M84.8139 14.6561C84.9931 13.789 84.8457 13.0571 84.3717 12.4605C83.8977 11.8638 83.2215 11.5655 82.3433 11.5655H69.3708L71.9262 14.8303L69.7497 25.1358H73.4918L74.642 19.7259H80.0025L78.8569 25.1358H82.5991L84.8139 14.6561ZM75.2224 16.9746L75.5623 15.3158C75.6333 15.0022 75.8288 14.8446 76.1465 14.8446H80.5562C80.8749 14.8446 80.9984 15.0017 80.9266 15.3158L80.5875 16.9746H75.2224Z" fill="#262626"/>
<path d="M75.2797 32.0054C75.3704 31.6148 75.373 31.2094 75.2873 30.8178C75.178 30.2755 74.879 29.7884 74.4426 29.4418C74.0027 29.0899 73.4582 28.914 72.8091 28.914H60.1635L62.7242 32.1863V32.1938H71.2549C71.2996 32.1904 71.3439 32.2042 71.3785 32.2323C71.4131 32.2605 71.4353 32.3007 71.4405 32.3446C71.4481 32.3756 71.4481 32.4079 71.4405 32.4389L70.9662 34.6745C70.9255 34.8378 70.8288 34.9195 70.676 34.9195L62.1461 34.9075L60.5423 42.4843H64.2845L65.2139 38.0478H71.2473C71.6615 38.0559 72.073 37.9797 72.4561 37.8241C72.8392 37.6684 73.1858 37.4366 73.4743 37.143C74.0775 36.5448 74.4888 35.7842 74.6565 34.9565L75.2797 32.0054Z" fill="#DF2929"/>
<path d="M91.6567 32.0054C91.8365 31.1383 91.6891 30.4064 91.2146 29.8097C90.74 29.2131 90.0639 28.9145 89.1861 28.914H76.1312L78.6935 32.1886L77.1767 39.3937C76.9853 40.2608 77.1297 40.9926 77.6098 41.5893C78.0899 42.186 78.7691 42.4843 79.6474 42.4843H86.6918C87.5701 42.4843 88.3099 42.186 88.9112 41.5893C89.5156 40.9872 89.929 40.2242 90.1011 39.3937L91.6567 32.0054ZM86.1488 39.2052H81.2046C81.0386 39.2052 80.9699 39.1235 80.9984 38.9601L82.3776 32.4389C82.3886 32.3672 82.4265 32.3021 82.4838 32.2567C82.5411 32.2113 82.6136 32.1889 82.6869 32.1938H87.632C87.7969 32.1938 87.8593 32.2755 87.8191 32.4389L86.4391 38.9601C86.4368 38.9952 86.4274 39.0295 86.4114 39.0609C86.3955 39.0923 86.3734 39.1203 86.3463 39.1431C86.3193 39.166 86.2879 39.1832 86.2539 39.1939C86.22 39.2045 86.1843 39.2084 86.1488 39.2052Z" fill="#262626"/>
<path d="M112.865 28.914L108.222 37.1883L106.879 30.6105H103.92L99.7682 37.3768L98.6806 28.914H97.1586H94.691H92.7122L95.1866 32.0755L96.8187 42.4843H100.407L104.32 35.7557L105.372 42.4843H108.96L116.855 28.914H112.865Z" fill="#262626"/>
<path d="M124.808 32.1939H127.219H129.931L130.513 28.914H124.544H121.762H118.375L120.942 32.1939H121.067H123.844H124.808Z" fill="#262626"/>
<path d="M128.244 39.2052H120.531L120.982 37.0752H127.835L128.417 34.3231H123.971H121.564H117.822L116.094 42.4843H127.549L128.244 39.2052Z" fill="#262626"/>
<path d="M134.021 32.1939H142.742C142.907 32.1939 142.971 32.2753 142.929 32.4389L142.461 34.6624C142.459 34.6975 142.45 34.7317 142.434 34.7631C142.418 34.7945 142.396 34.8225 142.369 34.8453C142.342 34.8682 142.311 34.8855 142.277 34.8961C142.243 34.9068 142.207 34.9107 142.172 34.9075H130.922L132.937 37.4823L131.878 42.4843H135.62L136.556 38.0358H138.604L141.379 42.4843H145.674L142.537 38.0358C142.537 38.0358 143.708 38.1866 144.937 37.1219C145.597 36.5497 145.965 35.7866 146.151 34.9444L146.768 32.0039C146.95 31.1493 146.803 30.4205 146.327 29.8173C145.852 29.2141 145.175 28.9125 144.297 28.9125H132.201L134.021 32.1939Z" fill="#262626"/>
<path d="M61.5527 54.9831H57.8105L57.5089 56.3969C57.5077 56.4184 57.5022 56.4395 57.4926 56.4589C57.4829 56.4783 57.4695 56.4955 57.4529 56.5096C57.4363 56.5237 57.4171 56.5344 57.3962 56.5409C57.3754 56.5474 57.3534 56.5497 57.3317 56.5477H52.2912C52.1255 56.5477 52.0567 56.4655 52.085 56.3026L53.4658 49.7806C53.4766 49.7088 53.5144 49.6437 53.5718 49.5982C53.6291 49.5528 53.7017 49.5304 53.7751 49.5356H58.8156C58.9172 49.5356 58.9538 49.5853 58.9248 49.6864L58.6422 51.0994H62.3844L63.0191 48.0653C63.125 47.5627 63.0379 47.1354 62.7579 46.7835C62.4778 46.4317 62.083 46.2557 61.5733 46.2557H47.392L49.8152 49.3531L48.2641 56.7354C48.0717 57.602 48.2158 58.3339 48.6964 58.931C49.177 59.5282 49.8565 59.8265 50.7347 59.826H58.6949C59.2144 59.8225 59.7154 59.6352 60.107 59.2982C60.5198 58.9773 60.8057 58.5238 60.915 58.0164L61.5527 54.9831Z" fill="#DF2929"/>
<path d="M80.5692 49.3478C80.7484 48.4807 80.601 47.7486 80.127 47.1515C79.653 46.5543 78.9768 46.256 78.0986 46.2565H65.1292L67.6846 49.5212L65.508 59.8267H69.2502L70.3958 54.4176H75.7639L74.6138 59.8267H78.3559L80.5692 49.3478ZM70.9808 51.6656L71.3206 50.0068C71.3914 49.6931 71.5861 49.5363 71.9049 49.5363H76.3145C76.6328 49.5363 76.7562 49.6931 76.6849 50.0068L76.3459 51.6656H70.9808Z" fill="#262626"/>
<path d="M84.8513 49.5363H93.4324C93.5973 49.5363 93.6597 49.618 93.6195 49.7814L93.1513 52.0049C93.1491 52.04 93.1398 52.0743 93.1239 52.1058C93.108 52.1373 93.0859 52.1653 93.0588 52.1881C93.0317 52.211 93.0003 52.2282 92.9663 52.2388C92.9324 52.2495 92.8966 52.2532 92.8611 52.2499H81.6116L83.6271 54.8248L82.5678 59.8268H86.31L87.2463 55.3782H89.2954L92.0692 59.8268H96.365L93.2277 55.3782C93.2277 55.3782 94.3985 55.529 95.6281 54.4636C96.2879 53.8921 96.656 53.1291 96.8408 52.2869L97.4579 49.3463C97.6407 48.4918 97.4941 47.763 97.018 47.1598C96.542 46.5566 95.8651 46.255 94.9873 46.255H82.8909L84.8513 49.5363Z" fill="#262626"/>
<path d="M113.331 54.625C113.523 53.7579 113.379 53.026 112.898 52.4294C112.417 51.8327 111.738 51.5341 110.86 51.5336H105.438C105.272 51.5336 105.203 51.452 105.231 51.2886L105.55 49.7806C105.561 49.7095 105.598 49.6449 105.655 49.5996C105.711 49.5542 105.783 49.5314 105.856 49.5356H110.419C110.584 49.5356 110.646 49.6173 110.606 49.7806L110.453 50.5527H114.195L114.447 49.3463C114.626 48.4792 114.479 47.7471 114.004 47.15C113.53 46.5528 112.854 46.2545 111.976 46.255H99.3405L101.875 49.4971L101.47 51.4575C101.278 52.3246 101.422 53.0565 101.903 53.6531C102.383 54.2498 103.063 54.5483 103.94 54.5488H109.363C109.528 54.5488 109.59 54.6305 109.55 54.7939L109.231 56.3019C109.228 56.3369 109.219 56.3711 109.203 56.4025C109.187 56.4339 109.165 56.4618 109.138 56.4846C109.111 56.5074 109.079 56.5247 109.045 56.5354C109.011 56.5461 108.976 56.55 108.94 56.5469H104.378C104.212 56.5469 104.143 56.4647 104.172 56.3019L104.346 55.529H100.604L100.352 56.7354C100.16 57.6025 100.305 58.3346 100.785 58.9318C101.265 59.5289 101.944 59.8273 102.822 59.8268H109.58C110.459 59.8268 111.183 59.5284 111.752 58.9318C112.332 58.3179 112.728 57.5578 112.898 56.7354L113.331 54.625Z" fill="#262626"/>
<path d="M35.8553 33.1348C36.3045 33.1326 36.7444 33.2621 37.119 33.5068C37.4936 33.7516 37.7862 34.1007 37.9597 34.5098C38.1332 34.9189 38.1798 35.3697 38.0935 35.805C38.0073 36.2402 37.7921 36.6404 37.4752 36.9549C37.1584 37.2693 36.7541 37.4838 36.3136 37.5711C35.8732 37.6585 35.4164 37.6148 35.0011 37.4456C34.5859 37.2763 34.2308 36.9892 33.981 36.6206C33.7311 36.252 33.5978 35.8184 33.5978 35.3749C33.597 35.0815 33.6547 34.7907 33.7678 34.5193C33.8808 34.2479 34.0469 34.0012 34.2565 33.7932C34.4661 33.5851 34.7152 33.4199 34.9896 33.307C35.2639 33.194 35.5581 33.1355 35.8553 33.1348ZM35.8553 31.2747C35.0329 31.27 34.2275 31.5064 33.5414 31.954C32.8552 32.4016 32.3191 33.0403 32.001 33.7891C31.6829 34.5378 31.5972 35.363 31.7546 36.1599C31.9121 36.9569 32.3057 37.6897 32.8855 38.2655C33.4654 38.8414 34.2053 39.2343 35.0116 39.3945C35.8179 39.5546 36.6542 39.4749 37.4145 39.1652C38.1748 38.8556 38.8248 38.3301 39.2823 37.6553C39.7397 36.9806 39.9839 36.1869 39.9839 35.3749C39.9856 34.2906 39.5515 33.25 38.7769 32.4813C38.0023 31.7127 36.9505 31.2787 35.8522 31.2747" fill="white"/>
<path d="M40.8347 59.0916C40.1423 59.2329 39.4379 59.3452 38.7215 59.4287C38.0067 59.5116 37.2941 59.5629 36.5877 59.584L36.6923 63.0433C37.5003 63.0187 38.3134 62.9591 39.1316 62.8646C39.9498 62.7701 40.7545 62.6417 41.5457 62.4793C42.3512 62.3164 43.1421 62.1202 43.9186 61.8904L42.9105 58.5729L41.9031 55.2553L40.8347 59.0916Z" fill="white"/>
<path d="M32.3178 59.3487C31.605 59.2482 30.9037 59.1168 30.2138 58.9544C29.5239 58.792 28.8365 58.6005 28.1517 58.3799L27.052 61.6657C27.8234 61.9171 28.6079 62.136 29.4058 62.3225C30.2036 62.509 31.005 62.6598 31.8099 62.7749C32.6118 62.8895 33.4231 62.9696 34.2439 63.0154L34.4447 59.5606L34.6456 56.1058L32.3178 59.3487Z" fill="white"/>
<path d="M26.7763 12.8661C27.4351 12.6072 28.1092 12.3765 28.7986 12.174C29.4783 11.9729 30.1705 11.801 30.8752 11.6582C31.5671 11.5175 32.2712 11.4051 32.9876 11.3212C33.7004 11.2378 34.4117 11.1857 35.1214 11.1651C35.8408 11.1417 36.5549 11.1515 37.2598 11.1908C37.9647 11.23 38.6872 11.3008 39.389 11.4011C40.0909 11.5014 40.8011 11.6333 41.4923 11.7955L42.2988 8.42588C41.5086 8.24191 40.7072 8.09111 39.8946 7.97349C39.0927 7.85938 38.2814 7.77946 37.4606 7.73372C36.6526 7.68848 35.838 7.67843 35.0168 7.70356C34.2088 7.72919 33.3941 7.78901 32.5729 7.88301C31.7516 7.977 30.9472 8.10543 30.1596 8.2683C29.3531 8.43116 28.5619 8.62744 27.7859 8.85716C27.0003 9.08939 26.23 9.35328 25.4749 9.64885C24.7199 9.94441 23.9758 10.2742 23.2426 10.6381L24.8189 13.7294L26.3945 16.8208L26.7763 12.8661Z" fill="#DF2929"/>
<path d="M24.2255 56.7083C23.5962 56.3735 22.9835 56.0123 22.3873 55.6248C21.7911 55.2372 21.2122 54.8253 20.6506 54.389C20.0905 53.9532 19.5501 53.493 19.0292 53.0085L16.6266 55.5283C17.2208 56.0812 17.8381 56.6067 18.4786 57.1049C19.1191 57.603 19.781 58.0742 20.4642 58.5186C21.1455 58.9604 21.8455 59.3729 22.5645 59.7559C23.2834 60.1389 24.0178 60.4908 24.7678 60.8115L26.1531 57.6319L27.5355 54.4493L24.2255 56.7083Z" fill="white"/>
<path d="M14.2469 23.894C14.586 23.2722 14.9518 22.667 15.3443 22.0783C15.7369 21.4897 16.1541 20.9185 16.5961 20.3645C17.0375 19.8116 17.5036 19.278 17.9944 18.7638C18.4852 18.2496 18.9964 17.7582 19.528 17.2898C20.0585 16.8208 20.6111 16.3749 21.186 15.9522C21.7608 15.5295 22.3499 15.1331 22.9532 14.7632L21.1104 11.8226C20.4139 12.2468 19.7398 12.6992 19.0881 13.1798C18.4364 13.6603 17.8045 14.1698 17.1925 14.7081C16.5815 15.2439 15.996 15.8054 15.436 16.3925C14.8759 16.9796 14.3434 17.5894 13.8383 18.2217C13.3327 18.853 12.8557 19.5065 12.4071 20.1821C11.9585 20.8576 11.5405 21.5493 11.1531 22.257C10.7717 22.9628 10.4186 23.6861 10.0938 24.427L13.3144 25.7955L16.538 27.161L14.2469 23.894Z" fill="#DF2929"/>
<path d="M16.1821 49.856C15.756 49.2926 15.3542 48.71 14.977 48.1083C14.5997 47.5066 14.2514 46.8914 13.9322 46.2625C13.613 45.6357 13.321 44.9931 13.0562 44.3346C12.794 43.6841 12.5603 43.0186 12.3551 42.338L8.99481 43.334C9.23004 44.1106 9.49733 44.8709 9.79671 45.6148C10.0991 46.3688 10.4334 47.1035 10.7995 47.8188C11.1655 48.534 11.5632 49.2378 11.9924 49.9299C12.4221 50.6166 12.8803 51.2823 13.3671 51.9272C13.8538 52.5721 14.3696 53.1957 14.9143 53.7979L17.5316 51.4944L20.1488 49.1918L16.1821 49.856Z" fill="white"/>
<path d="M11.4914 38.2054C11.4069 37.4987 11.3542 36.795 11.3333 36.0942C11.3094 35.384 11.3178 34.6803 11.3585 33.9831C11.3982 33.2753 11.4695 32.5744 11.5723 31.8802C11.6752 31.186 11.8083 30.4939 11.9718 29.8037C12.1352 29.1146 12.3289 28.436 12.5529 27.768L9.22391 26.6815C8.96934 27.443 8.74736 28.2178 8.55796 29.006C8.37212 29.7866 8.21938 30.5778 8.09973 31.3796C7.98365 32.1712 7.90269 32.9722 7.85687 33.7825C7.81105 34.5802 7.80086 35.3845 7.82632 36.1953C7.85178 36.993 7.91237 37.7957 8.00808 38.6035C8.10431 39.4078 8.23414 40.2022 8.39758 40.9869L11.8297 40.2842L15.2618 39.5822L11.4914 38.2054Z" fill="white"/>
<path d="M35.3559 31.3079L24.1751 20.9443L31.8886 34.2424C32.1121 33.4719 32.5597 32.783 33.1761 32.2614C33.7925 31.7397 34.5504 31.4082 35.3559 31.3079Z" fill="#DF2929"/>
</svg>
