<svg width="100" height="100" viewBox="0 0 100 100" fill="none" xmlns="http://www.w3.org/2000/svg">
<path fill-rule="evenodd" clip-rule="evenodd" d="M50 100C77.6142 100 100 77.6142 100 50C100 22.3858 77.6142 0 50 0C22.3858 0 0 22.3858 0 50C0 77.6142 22.3858 100 50 100ZM22.6639 45.4661L75.6544 25.032C78.0723 23.9381 80.4095 25.6148 79.486 29.3179L70.4629 71.8418C69.8323 74.8664 68.0121 75.5837 65.4777 74.1879L51.7324 64.0352L45.1243 70.461L45.0508 70.532C44.3136 71.2449 43.7025 71.8358 42.3717 71.8358L43.3102 57.8126L43.3042 57.8096H43.3102L68.8131 34.7933C69.9309 33.801 68.5711 33.3138 67.0827 34.2194L35.6052 54.0796L22.0004 49.8356C19.0684 48.936 19.0475 46.9186 22.6639 45.4661Z" fill="white"/>
</svg>
