<svg xmlns="http://www.w3.org/2000/svg" width="24" height="24" fill="none"><g fill="#000" clip-path="url(#a)"><path d="M11.073 7.497a5.436 5.436 0 1 0 5.436 5.43 5.424 5.424 0 0 0-5.436-5.43Zm0 1.135a.766.766 0 1 1-.766.766.76.76 0 0 1 .766-.738v-.028Zm-3.547 3.892a.767.767 0 1 1 .965-.488.76.76 0 0 1-.965.517v-.029Zm2.122 3.643a.765.765 0 1 1-1.242-.895.765.765 0 0 1 1.242.895Zm1.43-1.765a1.475 1.475 0 1 1 1.364-.908 1.467 1.467 0 0 1-1.37.908h.006Zm2.491 1.935a.766.766 0 1 1-.857-1.27.766.766 0 0 1 .857 1.27Zm1.544-4.743a.766.766 0 1 1-.384-.443.759.759 0 0 1 .378.443h.006Z"/><path d="M23.999 12.155A12.95 12.95 0 0 0 11.844.001a.732.732 0 0 0-.771.726v3.638a.727.727 0 0 0 .658.743 7.87 7.87 0 0 1 7.184 7.16.72.72 0 0 0 .72.66h3.632a.719.719 0 0 0 .732-.773Z"/><path d="M18.466 12.309a7.376 7.376 0 0 0-6.77-6.77 1.18 1.18 0 0 1-1.072-1.174V1.868A11.07 11.07 0 1 0 22.132 13.38h-2.497a1.176 1.176 0 0 1-1.169-1.072Zm-7.376 6.928a6.31 6.31 0 1 1 2.398-.479 6.306 6.306 0 0 1-2.415.479h.017Z"/></g><defs><clipPath id="a"><path fill="#fff" d="M0 0h24v24H0z"/></clipPath></defs></svg>