<svg xmlns="http://www.w3.org/2000/svg" width="52" height="24" fill="none"><path fill="#000" d="M46.076 20.166a3.835 3.835 0 1 1-7.67 0 3.835 3.835 0 0 1 7.67 0ZM9.579 16.332A3.834 3.834 0 1 0 9.578 24a3.834 3.834 0 0 0 0-7.668Zm41.385-7.025c0 5.122-.527 9.308-1.17 9.308h-2.576a5.21 5.21 0 0 0-9.952 0H14.525a5.18 5.18 0 0 0-9.922 0H2.496a2.78 2.78 0 0 1 0-5.532h31.96a3.802 3.802 0 0 1 0-.995c0-1.61 0-2.927 1.464-2.927 0-5.063.527-9.161 1.17-9.161h6.557c.673 0 7.317 4.156 7.317 9.307ZM43.266 2.02h-4.595v5.853h4.595V2.02Zm5.561 5.853A11.444 11.444 0 0 0 44.174 2.4v5.356l4.653.117ZM29.276 10.8a2.312 2.312 0 1 1-2.312-2.312 2.312 2.312 0 0 1 2.312 2.078v.234Zm-3.951-.556h.76l-.585-.585c-.099.18-.158.38-.175.585Zm.234 1.258.527-.614h-.761c.034.219.114.428.234.614Zm1.083-.146-.556.615c.184.124.394.204.615.234l-.06-.849Zm0-2.43a1.961 1.961 0 0 0-.556.264l.615.586-.06-.85Zm.644.85.585-.586a2.106 2.106 0 0 0-.585-.263v.849Zm.585 2.195-.585-.615v.849c.21-.035.41-.115.585-.234Zm.732-1.083h-.849l.585.614c.13-.184.22-.393.264-.614Zm0-.644a1.521 1.521 0 0 0-.264-.585l-.585.585h.849ZM2.671 6.82c0-.527-1.112-1.142-.82-1.786l4.596-.527a22.156 22.156 0 0 1 9.629-2.37 25.844 25.844 0 0 1 10.302 3.395c2.187.5 4.267 1.381 6.147 2.605.63.838.923 1.883.82 2.926.01.205.01.41 0 .615h-3.806c.144-.332.214-.692.205-1.054a2.781 2.781 0 0 0-5.531 0c-.013.372.057.742.205 1.083H9.783c.154-.33.234-.69.235-1.053a2.926 2.926 0 0 0-5.561 0c.037.373.157.733.35 1.053h-.643l-1.815-.497a11.707 11.707 0 0 1-.41-2.605 1.786 1.786 0 0 1 0-.41c.118-.82.732-.936.732-1.375Zm26.751.497a2.752 2.752 0 0 1 1.435 1.815h1.639a3.717 3.717 0 0 0-3.074-1.815ZM9.315 4.157l1.2 1.17h13.522a24.791 24.791 0 0 0-8.283-2.4c-2.2.049-4.376.464-6.439 1.23Zm.38 6.409a2.342 2.342 0 1 1-2.34-2.312 2.312 2.312 0 0 1 2.34 2.312Zm-4.097-.322h.849l-.615-.585c-.12.175-.2.375-.234.585Zm.234 1.258.615-.614h-.849c.07.229.19.439.351.614h-.117Zm1.083-.146-.615.615c.187.12.396.2.615.234v-.849Zm0-2.43a2.283 2.283 0 0 0-.615.264l.615.586v-.85Zm.644.85.615-.586a2.283 2.283 0 0 0-.615-.263v.849Zm.615 2.195-.615-.615v.849c.26-.017.51-.097.732-.234h-.117Zm.702-1.083h-.732l.615.614c.12-.186.2-.395.234-.614h-.117Zm0-.644a1.463 1.463 0 0 0-.234-.585l-.615.585h.85Z"/></svg>