<svg xmlns="http://www.w3.org/2000/svg" width="21" height="24" fill="none"><g fill="#000" clip-path="url(#a)"><path d="M7.92 1.467c.033-.133-.07-.24-.198-.36A4.157 4.157 0 0 0 .758 4.535a.257.257 0 0 0 .172.257c.12.047.356-.06.356-.06l6.363-3.017s.24-.128.27-.248ZM12.05 1.467c-.034-.133.068-.24.197-.36a4.156 4.156 0 0 1 6.963 3.428.257.257 0 0 1-.17.257c-.12.047-.36-.06-.36-.06l-6.364-3.017s-.236-.128-.266-.248ZM16.708 20.523a10.018 10.018 0 1 0-13.378 0L2.138 23.6a.274.274 0 0 0 .275.398h.96c.274-.014.539-.106.762-.265l1.86-1.488a9.993 9.993 0 0 0 8.04 0l1.859 1.488c.223.16.488.252.763.265h.964a.273.273 0 0 0 .304-.255.275.275 0 0 0-.03-.143l-1.187-3.077Zm-14.12-6.81h1.097a.643.643 0 1 0 0-1.285H2.588a7.465 7.465 0 0 1 6.784-6.783v1.097a.643.643 0 1 0 1.285 0V5.645a7.465 7.465 0 0 1 6.784 6.783h-1.097a.643.643 0 0 0 0 1.286h1.097a7.464 7.464 0 0 1-6.784 6.783V19.5a.643.643 0 0 0-1.285 0v.998a7.465 7.465 0 0 1-6.784-6.783Z"/><path d="M14.21 12.428h-2.306a2 2 0 0 0-1.89-1.358c-.16.002-.32.022-.475.06L7.358 7.389a.647.647 0 1 0-1.114.651l2.21 3.788a1.98 1.98 0 0 0-.428 1.243 1.997 1.997 0 0 0 3.878.643h2.306a.643.643 0 1 0 0-1.286Zm-4.195 1.427a.784.784 0 1 1 0-1.568.784.784 0 0 1 0 1.568Z"/></g><defs><clipPath id="a"><path fill="#fff" d="M0 0h20.571v24H0z"/></clipPath></defs></svg>