<svg xmlns="http://www.w3.org/2000/svg" width="30" height="24" fill="none"><g clip-path="url(#a)"><path fill="#000" d="M0 23.802V3.114A3.134 3.134 0 0 1 3.114 0h23.524a3.134 3.134 0 0 1 3.114 3.114v20.688h-1.983V3.114a1.032 1.032 0 0 0-1.032-1.031H3.114a1.031 1.031 0 0 0-1.031 1.031v20.688H0Zm25.11-3.809v3.273a.675.675 0 0 1-.674.675h-2.221a.674.674 0 0 1-.674-.675v-.317c-1.23 0-3.095.198-5.752.198h-.913a.138.138 0 0 1-.119 0c-2.697 0-4.661 0-5.95-.139H8.27v.318a.674.674 0 0 1-.674.674H5.316a.674.674 0 0 1-.675-.674v-3.352a.159.159 0 0 1 0-.14c-.139-2.141 0-3.47.238-3.728.105-.064.199-.145.278-.238v-.397c.238-.655.912-.774 1.19-.952l-.119-.278H6.03a5.092 5.092 0 0 1-.595 0 .694.694 0 0 1-.595-.674c.139-.793 1.09-.853 1.19-.853a.674.674 0 0 1 .515.159c.205.2.332.468.357.753v.318c.715-1.428 1.29-2.42 1.31-2.44a2.122 2.122 0 0 1 1.705-1.368 36.062 36.062 0 0 1 4.8-.219h.238a36.07 36.07 0 0 1 4.76.298s.873 0 1.528 1.29c0 0 .595.99 1.309 2.419v-.337a1.25 1.25 0 0 1 .337-.734.754.754 0 0 1 .536-.159s1.051 0 1.19.853a.695.695 0 0 1-.615.674 4.09 4.09 0 0 1-.575 0h-.199l-.119.278c.298.179.953.298 1.19.952v.258c.057.116.13.223.219.317.158.14.436.794.238 3.71a.214.214 0 1 1 .357.238v.02Zm-18.446 0a.496.496 0 0 0-.495-.476.494.494 0 0 0-.595.486.496.496 0 0 0 .595.486.496.496 0 0 0 .495-.436v-.06Zm1.984-2.32a1.19 1.19 0 1 0-1.19 1.19 1.19 1.19 0 0 0 1.13-1.13l.06-.06Zm6.228-3.57s4.383 0 6.764.238h.178c-.357-1.25-1.17-3.253-1.765-3.372a24.88 24.88 0 0 0-5.177-.338c-1.71-.084-3.426.01-5.117.278-.595.12-1.409 2.122-1.766 3.372h.14c2.36-.159 6.703-.179 6.743-.179Zm5.078 3.966s-.12-.218-.992-.376a30.067 30.067 0 0 0-4.086-.298 30.065 30.065 0 0 0-4.086.298c-.873.158-.873.357-.992.416.444.728.671 1.567.655 2.42 1.459.196 2.933.262 4.403.198 1.47.064 2.944-.002 4.403-.198a4.483 4.483 0 0 1 .695-2.42v-.04Zm2.4.814a1.19 1.19 0 1 0 0-2.38 1.19 1.19 0 0 0 0 2.38Zm1.706 1.13a.496.496 0 1 0-.972.197.496.496 0 0 0 .971-.197Zm2.935-17.236H2.598v1.706h24.397V2.777Zm0 2.28H2.678v1.726h24.396l-.079-1.725Z"/></g><defs><clipPath id="a"><path fill="#fff" d="M0 0h29.76v24H0z"/></clipPath></defs></svg>