<svg xmlns="http://www.w3.org/2000/svg" width="19" height="24" fill="none"><g fill="#000" clip-path="url(#a)"><path d="M1.964.605.212 5.508a.634.634 0 0 0 .37.808l1.663.617a.616.616 0 0 0 .793-.377l1.753-4.903a.634.634 0 0 0-.37-.808L2.757.228a.616.616 0 0 0-.793.377ZM15.834.592 14.08 5.496a.634.634 0 0 0 .37.807l1.664.617c.32.12.676-.05.793-.377L18.66 1.64a.634.634 0 0 0-.37-.808L16.627.216a.616.616 0 0 0-.793.376ZM3.385 17.521h-1.77a.625.625 0 0 0-.62.63v5.219c0 .348.278.63.62.63h1.77a.625.625 0 0 0 .619-.63v-5.218a.625.625 0 0 0-.62-.63ZM17.259 17.521h-1.77a.625.625 0 0 0-.62.63v5.219c0 .348.277.63.62.63h1.77a.625.625 0 0 0 .618-.63v-5.218a.625.625 0 0 0-.618-.63Z"/><path d="M16.006 3.597a.462.462 0 0 1-.13.321.446.446 0 0 1-.316.133H3.054a.44.44 0 0 1-.316-.133.455.455 0 0 1-.13-.321.462.462 0 0 1 .12-.34.446.446 0 0 1 .326-.144h12.434c.119 0 .232.048.316.133.083.085.13.201.13.321l.072.03ZM16.006 20.702c0 .12-.047.236-.13.321a.442.442 0 0 1-.316.134H3.054a.444.444 0 0 1-.288-.148.46.46 0 0 1-.115-.307.458.458 0 0 1 .133-.27.442.442 0 0 1 .27-.126h12.434a.44.44 0 0 1 .462.222.46.46 0 0 1 .056.174Z"/><path d="M9.746 3.465h-.85v17.618h.85V3.465Z"/><path d="M10.336 3.597c0 .206-.06.407-.172.578a1.026 1.026 0 0 1-.459.383 1.005 1.005 0 0 1-1.113-.225 1.059 1.059 0 0 1-.222-1.134c.077-.19.208-.353.376-.467a1.009 1.009 0 0 1 1.29.129c.192.195.3.46.3.736ZM10.336 20.702c0 .206-.06.407-.172.578a1.025 1.025 0 0 1-.459.383 1.004 1.004 0 0 1-1.113-.225 1.059 1.059 0 0 1-.222-1.134c.077-.19.208-.353.376-.467a1.008 1.008 0 0 1 1.29.13c.192.194.3.46.3.735ZM10.595 12.289c0 2.154-.561 3.913-1.252 3.913-.69 0-1.252-1.759-1.252-3.913 0-2.155.561-3.929 1.252-3.929.69 0 1.252 1.76 1.252 3.929Z"/></g><defs><clipPath id="a"><path fill="#fff" d="M0 0h19v24H0z"/></clipPath></defs></svg>