<svg xmlns="http://www.w3.org/2000/svg" width="24" height="24" fill="none"><g fill="#000" clip-path="url(#a)"><path d="M21.906 7.283a.403.403 0 0 0-.023-.068 11.398 11.398 0 0 0-4.097-5.191A11.212 11.212 0 0 0 11.34 0C5.087 0 0 5.127 0 11.43c0 1.627.496 2.813 1.482 5.176.15.356.314.753.49 1.18a.536.536 0 0 0 .364.314c2.57.646 7.575 1.95 11.992 3.102 3.06.798 5.703 1.485 6.826 1.77a.532.532 0 0 0 .573-.22l.223-.328c.777-1.133 1.839-2.687 2.05-4.631v-.058c.002-1.619-1.51-8.094-2.094-10.452Zm.97 9.747-10.628-2.785-.58-1.376a.532.532 0 0 0-.343-.306 2.357 2.357 0 0 1 .657-4.619h8.987c.73 2.998 1.665 7.204 1.907 9.086Zm-1.807 4.794-.014.021c-1.267-.323-3.692-.955-6.458-1.676-4.268-1.113-9.1-2.371-11.738-3.038-.138-.334-.268-.645-.39-.936-.963-2.302-1.402-3.353-1.402-4.766 0-5.714 4.609-10.362 10.273-10.362a10.207 10.207 0 0 1 9.23 5.81h-8.588a3.423 3.423 0 0 0-1.203 6.628l.593 1.397a.534.534 0 0 0 .356.308l11.146 2.922c-.289 1.474-1.12 2.694-1.805 3.692Z"/><path d="M11.874 2.905a.533.533 0 0 0-.534-.534c-4.945 0-8.969 4.064-8.969 9.058a.534.534 0 0 0 1.068 0c0-4.406 3.544-7.99 7.901-7.99a.533.533 0 0 0 .534-.534ZM16.232 9.566a.531.531 0 0 0-.74.143l-1.696 2.511a.533.533 0 0 0 .884.593l1.696-2.511a.533.533 0 0 0-.144-.736ZM19.735 9.566a.533.533 0 0 0-.741.143l-2.261 3.347a.53.53 0 0 0 .143.74.527.527 0 0 0 .55.028.534.534 0 0 0 .191-.174l2.261-3.346a.532.532 0 0 0-.143-.738Z"/></g><defs><clipPath id="a"><path fill="#fff" d="M0 0h24v24H0z"/></clipPath></defs></svg>