<svg xmlns="http://www.w3.org/2000/svg" width="66" height="24" fill="none"><g fill="#000" clip-path="url(#a)"><path d="M40.72 18.36c.119-.445.224-.865.407-1.403.185-.541.413-1.068.682-1.573a19.994 19.994 0 0 0 1.469-3.712l1.613-5.705c.106-.375.142-.766.105-1.154a3.474 3.474 0 0 0-.682-1.967l-.695-.708C42.426 1.102 41.14.315 39.567.997c-.497.221-.97.49-1.417.8-.34 1.6-.655 3.2-.918 4.8a48.253 48.253 0 0 0-.511 5.98c0 2.125 0 4.25.144 6.374.262.262.866.84 1.469 1.311.603.473.813.63 1.075.8.263.17.42 0 .603-.406.163-.358.304-.726.42-1.102.105-.42.223-.787.289-1.193ZM37.535 8.08c-.092 0-.144-.197-.118-.433.21-1.56.446-3.135.734-4.682.026-.343.175-.664.42-.905a8.69 8.69 0 0 1 1.115-.498c1.455-.499 2.544.367 3.514 1.311l.46.551c.314.463.516.993.59 1.548.056.444-.003.896-.171 1.311-.367.708-.774 1.115-1.18 1.154-1.797.236-3.554.433-5.364.643Z"/><path d="M39.763 1.784h-.157 1.823a2.44 2.44 0 0 0-.905-.197c-.263.022-.52.088-.76.197ZM36.721 19.121l-.065-.065v-1.141a100.24 100.24 0 0 1-.092-5.246c0-1.312.131-2.623.275-3.935a.628.628 0 0 0 0-.157c.079-.616.157-1.311.262-1.888.184-1.128.38-2.204.59-3.253l.263-1.469v-.301l.079-.066c.288-.197.498-.328.734-.459h-1.311a30.02 30.02 0 0 0-10.492 1.915l-.118.996a29.968 29.968 0 0 1 9.692-2.15h.577L36.34 6.23a33.97 33.97 0 0 0-.538 5.993v6.793h-9.285c0 .59 0 1.168.092 1.732h11.868l-.34-.263c-.722-.616-1.417-1.298-1.417-1.364ZM64.119 14.807a2.545 2.545 0 0 0 0-2.505 6.387 6.387 0 0 1-.761-2.964c0-.544.066-1.086.197-1.613a.525.525 0 0 0-.184-.577l-4.354-.46 2.334-3.37c.118-.131.25 0 .394.066l1.154.76c.118.105.354 0 .459-.105 0 0 .157-.249.105-.301l-1.01-.708a8.054 8.054 0 0 1-.485-.46.761.761 0 0 0-.748 0c-.703.32-1.295.84-1.705 1.496l-1.43 2.32a.786.786 0 0 1-.248-.078l-1.928-1.22a25.507 25.507 0 0 0-7.777-3.252l-.446-.092a28.852 28.852 0 0 0-4.958-.603c.367.234.718.493 1.05.774l.118.13c1.972.31 3.878.949 5.639 1.89l1.22.642c.65.333 1.152.9 1.403 1.587a1.22 1.22 0 0 1-.105 1.023l-2.216 3.633a10.889 10.889 0 0 1-2.322 2.701 6.2 6.2 0 0 0-1.14 1.194c-.565.774-.656 1.311-1.312 2.216-.27.41-.563.804-.879 1.18a2.23 2.23 0 0 1-1.64.853h-1.73c0 .197-.118.407-.197.643a7.71 7.71 0 0 1-.407 1.075h6.072a.553.553 0 0 0 .551-.643 12.618 12.618 0 0 1-.118-1.678 5.732 5.732 0 0 1 5.574-5.823 5.627 5.627 0 0 1 5.666 5.626v.498a.56.56 0 0 0 .414.58.56.56 0 0 0 .254.01l.735-.144a3.776 3.776 0 0 0 2.203-.93c.333-.303.609-.663.813-1.063a6.702 6.702 0 0 1 1.154-1.613l.59-.695ZM21.928 5.508A19.237 19.237 0 0 0 20.8 7.305l-.21.393a1.834 1.834 0 0 0-.144.577h.328a4.565 4.565 0 0 1 1.836-2.111 29.026 29.026 0 0 1 3.475-1.797c0-.34.092-.682.131-1.023a30.27 30.27 0 0 0-3.527 1.731l-.761.433ZM3.016 13.469l.918-1.01a.25.25 0 0 0-.223-.42l-2.57.289A3.934 3.934 0 0 0 0 14.859l.643-.092a3.803 3.803 0 0 0 2.373-1.298ZM.472 14.505l.184-.17.223-.276.091-.157.092-.184.079-.184v-.196a1.6 1.6 0 0 0 0-.341v-.25a.42.42 0 0 1 0-.091h.17v.065c.055.08.095.169.119.263a.932.932 0 0 1 0 .393c.006.079.006.158 0 .236v.118l-.119.236a.458.458 0 0 1 0 .105l-.065.079-.157.144-.276.131H.551l-.079.079Z"/><path d="M52.276 13.508a5.245 5.245 0 1 0 0 10.49 5.245 5.245 0 0 0 0-10.49Zm0 8.97a3.684 3.684 0 1 1 0-7.368 3.684 3.684 0 0 1 0 7.369Z"/><path d="M52.275 15.279a3.488 3.488 0 0 0-2.479 1.036 3.515 3.515 0 1 0 2.479-1.036Zm-3.03 3.514a2.99 2.99 0 0 1 .59-1.744.366.366 0 0 1 .578 0l.682.945a.525.525 0 0 1-.263.813l-1.114.354a.34.34 0 0 1-.473-.368Zm2.623 2.545a.37.37 0 0 1-.296.346.368.368 0 0 1-.163-.005 3.056 3.056 0 0 1-1.573-1.102.353.353 0 0 1 .17-.55l1.141-.355a.54.54 0 0 1 .695.498l.026 1.168Zm0-3.935-.72-.957a.34.34 0 0 1 .028-.454.34.34 0 0 1 .142-.084 3.081 3.081 0 0 1 1.862 0 .34.34 0 0 1 .184.538l-.682.944a.527.527 0 0 1-.827 0l.014.013Zm2.873 3.187c-.381.51-.907.894-1.509 1.102a.356.356 0 0 1-.459-.341v-1.167a.524.524 0 0 1 .682-.499l1.115.354a.353.353 0 0 1 .157.538l.014.013Zm.577-1.783a.341.341 0 0 1-.446.327l-1.102-.367a.525.525 0 0 1-.262-.813l.656-.905a.352.352 0 0 1 .563 0c.38.517.581 1.143.577 1.784l.014-.026ZM12.644 13.508a5.245 5.245 0 1 0 0 10.49 5.245 5.245 0 0 0 0-10.49Zm0 8.97a3.685 3.685 0 1 1 0-7.368 3.685 3.685 0 0 1 0 7.369Z"/><path d="M12.642 15.279a3.54 3.54 0 1 0 2.479 1.036 3.462 3.462 0 0 0-2.479-1.036Zm-3.03 3.514a2.99 2.99 0 0 1 .578-1.744.353.353 0 0 1 .564 0l.695.945a.537.537 0 0 1-.276.813l-1.101.354a.34.34 0 0 1-.46-.368Zm2.558 2.545a.366.366 0 0 1-.459.34 3.056 3.056 0 0 1-1.508-1.1.355.355 0 0 1 .17-.552l1.102-.354a.54.54 0 0 1 .695.498v1.168Zm0-3.935-.695-.944a.354.354 0 0 1 .184-.538 3.083 3.083 0 0 1 1.862 0 .354.354 0 0 1 .183.538l-.681.944a.525.525 0 0 1-.8-.013l-.053.013Zm2.872 3.187c-.38.51-.906.894-1.508 1.102a.355.355 0 0 1-.459-.341v-1.167a.524.524 0 0 1 .682-.499l1.102.354a.365.365 0 0 1 .282.376.367.367 0 0 1-.046.162l-.053.013Zm.695-1.797a.341.341 0 0 1-.459.328l-1.101-.354a.524.524 0 0 1-.263-.813l.682-.944a.353.353 0 0 1 .564 0 2.99 2.99 0 0 1 .577 1.783ZM63.5 10.098a.723.723 0 0 0 .735.722.367.367 0 0 0 .367-.328V8.577a.367.367 0 0 0-.34-.367.735.735 0 0 0-.735.721l-.026 1.167ZM64.38 16.197H63.07a.209.209 0 0 0-.184.105l-.354.537a.222.222 0 0 0 .066.323.223.223 0 0 0 .118.031h1.075a.773.773 0 0 0 .774-.773.209.209 0 0 0-.184-.223ZM33.35 8.131a13.58 13.58 0 0 0-1.14 3.2 13.72 13.72 0 0 0-.302 3.712l1.312.183a.97.97 0 0 1 .813.8l1.613-7.24a.996.996 0 0 0-1.01-1.219h-.433a.983.983 0 0 0-.852.564ZM34.74 7.357h.106a.773.773 0 0 0 1.075-.55l.17-1.561a.762.762 0 0 0-.904-.774h-.079a1.312 1.312 0 0 0-1.167 1.312 1.312 1.312 0 0 0 .8 1.573ZM46.23 8.105a13.32 13.32 0 0 0-1.862 3.016 15.362 15.362 0 0 0-1.168 3.935l1.312.262a1.036 1.036 0 0 1 .655.997l3.28-7.056a1.049 1.049 0 0 0-.775-1.39l-.458-.144a1.036 1.036 0 0 0-.984.38ZM47.921 7.685a.826.826 0 0 0 1.233-.34l.511-1.588a.799.799 0 0 0-.76-.996h-.079a1.403 1.403 0 0 0-1.482 1.101 1.417 1.417 0 0 0 .485 1.77l.092.053Z"/><path d="M44.932 16.184a.813.813 0 0 0-.696-.8l-1.901-.289-.236.472c-.253.475-.463.97-.63 1.482h2.623a.812.812 0 0 0 .84-.865ZM42.125 17.967h-.97l-.08.315h1.312a1.888 1.888 0 0 0 1.43-.656.221.221 0 0 0 .046-.249.224.224 0 0 0-.217-.131h-2.242l-.118.34H43.2v.093c-.318.208-.695.31-1.075.288ZM32.995 16a.21.21 0 1 0 0 .42.21.21 0 0 0 0-.42Z"/><path d="M33.85 16.184a.813.813 0 0 0-.682-.8l-6.728-.958c0 .892 0 1.745.066 2.623h6.557a.798.798 0 0 0 .787-.865Zm-1.194 0a.341.341 0 0 1 .341-.341.341.341 0 0 1 .328.34.327.327 0 0 1-.328.329.34.34 0 0 1-.34-.302v-.026ZM31.003 17.967h-4.459c.007.105.007.21 0 .315h4.695a1.865 1.865 0 0 0 1.43-.656.223.223 0 0 0-.17-.38h-5.981v.34h5.547v.093a1.784 1.784 0 0 1-1.062.288Z"/><path d="m27.095.302-.25.118a13.18 13.18 0 0 0-6.11 5.652 6.305 6.305 0 0 0-.643 1.797.472.472 0 0 0-.42-.197 10.108 10.108 0 0 0-1.403 0 .983.983 0 0 0-.813 1.076.786.786 0 0 0 .944.839c.616-.131.866-.223 1.312-.315a.394.394 0 0 0 .21-.092 34.092 34.092 0 0 0 .275 8.564c0 .184 0 .276.078.46.02.186.093.363.21.51 1.575.991 3.2 1.902 4.866 2.729a.722.722 0 0 0 1.023-.682c-.144-2.4-.223-4.8-.262-7.2 0-2.623.078-5.246.314-7.948.184-1.679.394-3.528.67-5.311Zm-1.088 6.623c0 .59-.237 1.023-.42 1.049-1.757.223-3.541.301-5.246.63-.066 0-.105-.158-.092-.355.02-.23.079-.456.17-.669l.21-.393a13.875 13.875 0 0 1 5.246-5.666c.259-.128.508-.272.748-.432.105 0 .157.222.092.563a135.967 135.967 0 0 0-.708 5.273Z"/><path d="M19.672 7.436a.76.76 0 0 1 .249 0c.086-.358.2-.709.34-1.05l-1.73.984c.38.003.762.025 1.14.066ZM20.04 18.36c0-.183 0-.288-.08-.471a34.425 34.425 0 0 1-.288-8.315l-.433.105-.76.183h-.223a1.023 1.023 0 0 1-.63-.223 1.074 1.074 0 0 1-.38-.865c-.012-.322.08-.64.262-.905L9.311 1.954A10.846 10.846 0 0 0 4.577 0l.826.669L17.05 8.997 1.377 11.96l-.066.17 1.627-.223c1.56-.236 1.744.105 1.547.328l-1.101 1.311a4.905 4.905 0 0 1-2.99 1.6H.078c.011.31.055.618.13.919l.722 2.623-.105.603a.917.917 0 0 0 .84 1.062l4.957.262a.56.56 0 0 0 .561-.378.563.563 0 0 0 .03-.238c0-.524-.119-1.05-.132-1.626a5.719 5.719 0 0 1 5.679-5.876 5.626 5.626 0 0 1 5.6 5.627c0 .72 0 1.311-.066 1.993a.565.565 0 0 0 .564.603h4.485c-1.088-.59-2.085-1.206-2.977-1.757a1.05 1.05 0 0 1-.328-.603Z"/></g><defs><clipPath id="a"><path fill="#fff" d="M0 0h65.143v24H0z"/></clipPath></defs></svg>