<svg xmlns="http://www.w3.org/2000/svg" width="24" height="24" fill="none"><path fill="#000" d="M22.378 21.75c-.14-1.36-1.5-2.878-4.675-3.89a8.72 8.72 0 0 1-.191-1.744 6.977 6.977 0 0 1 .959-3.628.593.593 0 0 0 .349-.523v-1.5a.524.524 0 0 0-.192-.401V7.099l-3.21-2.337V4.57a.174.174 0 0 0-.191-.175h-2.39v-3.07A1.326 1.326 0 0 0 11.512 0H1.326A1.326 1.326 0 0 0 0 1.326v21.348A1.326 1.326 0 0 0 1.326 24h10.186a1.326 1.326 0 0 0 1.325-1.326v-4.883c1.391.131 2.768.382 4.116.75.29 1.082.712 2.125 1.256 3.104.977 1.745 2.215 2.18 3.053 1.936a1.64 1.64 0 0 0 1.133-1.622.86.86 0 0 0-.017-.209ZM11.634 7.134c0 .418-.471.767-1.064.767H2.25c-.593 0-1.081-.349-1.081-.767v-4.85c0-.4.488-.75 1.081-.75h8.302c.593 0 1.064.35 1.064.75l.018 4.85Zm5.058.07a.715.715 0 0 1 .802.383c.21.332.192.68 0 .803a.715.715 0 0 1-.802-.384c-.244-.314-.244-.68 0-.803Zm.122 7.046a8.503 8.503 0 0 0-.192 1.744c.007.532.054 1.063.14 1.587a23.75 23.75 0 0 0-3.925-.662V9.942h2.39a.191.191 0 0 0 .192-.175V5.756l.279.21s-.35 3.191 2.058 3.487v.489a.593.593 0 0 0-.314.523v1.413c.003.148.059.29.157.401h-.157a7.606 7.606 0 0 0-.628 1.971Zm4.116 8.424c-.47.14-1.29-.174-2.023-1.5-.41-.757-.75-1.551-1.012-2.372 2.547.925 3.489 2.163 3.489 2.965v.123a.75.75 0 0 1-.454.784Z"/></svg>