<svg xmlns="http://www.w3.org/2000/svg" width="14" height="24" fill="none"><g fill="#000" clip-path="url(#a)"><path d="M6.003 0c.159.039.319.071.475.115A3.118 3.118 0 0 1 8.77 3.14v10.788a.497.497 0 0 0 .18.399c1.476 1.419 1.98 3.138 1.375 5.089-.606 1.95-1.97 3.086-3.96 3.397A4.895 4.895 0 0 1 .732 17.68a4.743 4.743 0 0 1 1.63-3.367.435.435 0 0 0 .16-.362V3.25c0-1.687 1.025-2.913 2.69-3.209A.43.43 0 0 0 5.285 0h.717ZM7.88 8.677V3.138a2.234 2.234 0 1 0-4.468.071v11.032a.7.7 0 0 1-.278.593 3.918 3.918 0 0 0-1.474 3.668 4.01 4.01 0 0 0 4.725 3.405c1.65-.346 2.75-1.348 3.15-2.98.399-1.633-.094-3.01-1.376-4.095a.705.705 0 0 1-.282-.591c.005-1.862.003-3.712.003-5.564ZM11.43 2.68h-1.248a.459.459 0 1 1 0-.892h2.543a.458.458 0 1 1 0 .892h-1.296ZM11.452 7.148h1.27a.459.459 0 1 1 0 .892h-2.54a.459.459 0 1 1 0-.892h1.27Z"/><path d="M11.478 12.51h1.247a.458.458 0 1 1 0 .892H10.18a.46.46 0 0 1-.509-.436c0-.27.2-.458.519-.458l1.288.002ZM11.028 4.468h.823a.458.458 0 1 1 0 .892H10.16a.458.458 0 1 1 0-.892c.292-.003.58 0 .87 0ZM10.982 10.724h-.822a.459.459 0 1 1 0-.892h1.691a.458.458 0 1 1 0 .892c-.289.002-.575 0-.869 0ZM6.09 15.754a2.244 2.244 0 0 1-.474 4.44A2.238 2.238 0 0 1 3.45 18.36c-.202-1.197.403-2.107 1.747-2.602V3.308c0-.41.149-.62.44-.624.29-.004.458.211.458.633v12.175l-.004.261Z"/></g><defs><clipPath id="a"><path fill="#fff" d="M0 0h13.895v24H0z"/></clipPath></defs></svg>