<svg xmlns="http://www.w3.org/2000/svg" width="36" height="24" fill="none"><path fill="#000" d="M31.2 14.772A1.422 1.422 0 0 1 30 16.2H15.6a1.422 1.422 0 0 1-1.2-1.428V6.6a1.661 1.661 0 0 1 1.164-1.524c4.704-1.146 9.768-.54 14.472 1.272a1.98 1.98 0 0 1 1.164 1.68v6.744Z"/><path fill="#000" d="M33.6 8.4h-1.2v6.63c0 1.314-.756 2.37-2.148 2.37H15.36a2.142 2.142 0 0 1-2.16-2.31V13.8H4.8a1.2 1.2 0 0 1-1.2-1.2V1.2A1.2 1.2 0 0 0 2.4 0H1.2A1.2 1.2 0 0 0 0 1.2v21.6A1.2 1.2 0 0 0 1.2 24h1.2a1.2 1.2 0 0 0 1.2-1.2v-3h27.6v3a1.2 1.2 0 0 0 1.2 1.2h1.2a1.2 1.2 0 0 0 1.2-1.2V9.6a1.2 1.2 0 0 0-1.2-1.2Z"/><path fill="#000" d="M13.2 11.7c0 .498-1.08.9-2.4.9H7.2c-1.32 0-2.4-.81-2.4-1.8s1.056-1.572 2.346-1.296l3.708.792c1.29.276 2.346.906 2.346 1.404Z"/><path fill="#000" d="M12.936 6.702a3.438 3.438 0 1 1-6.875 0 3.438 3.438 0 0 1 6.875 0Z"/></svg>