<svg xmlns="http://www.w3.org/2000/svg" width="30" height="24" fill="none"><g fill="#000" clip-path="url(#a)"><path d="M10.09 10.207C6.42 14.055 2.264 16.05.805 14.66l1.523 1.451c1.456 1.39 5.615-.604 9.288-4.453 3.674-3.85 5.468-8.096 4.012-9.486L14.108.72c1.455 1.39-.342 5.638-4.018 9.487Z"/><path d="M9.723 9.854c3.632-3.806 5.396-8.018 3.94-9.408l-.188-.18c.03.03.059.061.087.094-1.538-1.215-5.563.74-9.112 4.463C.9 8.545-.866 12.653.418 14.133a1.912 1.912 0 0 1-.096-.083l.188.18c1.456 1.389 5.58-.57 9.213-4.376ZM21.91 12.469c-1.83-3.881-2.121-7.587-.653-8.28l-1.533.723c-1.468.691-1.176 4.398.651 8.28 1.828 3.88 4.501 6.468 5.97 5.774l1.533-.722c-1.469.692-4.14-1.894-5.969-5.775Z"/><path d="M22.282 12.294c1.807 3.837 4.463 6.388 5.931 5.696l.19-.09a1.019 1.019 0 0 1-.095.04c1.358-.805 1.058-4.4-.712-8.15-1.77-3.752-4.345-6.275-5.832-5.738l.09-.048-.185.09c-1.47.693-1.195 4.362.613 8.2ZM13.863 21.874c-3.719 1.073-7.063.802-7.469-.605l.424 1.47c.406 1.406 3.752 1.677 7.469.605 3.717-1.073 6.403-3.083 6-4.49l-.424-1.47c.406 1.408-2.28 3.418-6 4.49Z"/><path d="M13.76 21.517c3.678-1.06 6.33-3.06 5.925-4.468l-.053-.182c.009.03.015.06.021.09-.522-1.326-3.766-1.572-7.362-.535-3.597 1.038-6.211 2.973-5.947 4.374-.01-.03-.022-.058-.03-.088l.052.182c.406 1.407 3.716 1.688 7.394.627Z"/></g><defs><clipPath id="a"><path fill="#fff" d="M0 0h29.538v24H0z"/></clipPath></defs></svg>