<svg xmlns="http://www.w3.org/2000/svg" width="24" height="24" fill="none"><g fill="#000" clip-path="url(#a)"><path d="m21.277 8.108-6.394-4.787a.873.873 0 0 0-1.043 1.4l6.388 4.805a.878.878 0 0 0 1.144-.083.874.874 0 0 0-.095-1.335ZM18.59 10.795l-6.394-4.787a.873.873 0 1 0-1.044 1.4l6.388 4.787a.878.878 0 0 0 1.4-.763.872.872 0 0 0-.35-.637ZM15.904 13.482 9.51 8.695a.882.882 0 1 0-1.044 1.424l6.388 4.745a.866.866 0 0 0 1.292-1.1.872.872 0 0 0-.242-.282ZM13.217 16.175l-6.394-4.787a.872.872 0 1 0-1.05 1.394l6.394 4.787a.871.871 0 0 0 1.396-.756.872.872 0 0 0-.346-.638ZM9.753 11.507l-.931.93 3.102 2.32.931-.925-3.102-2.325ZM12.44 8.82l-.932.931 3.103 2.32.93-.926L12.44 8.82ZM15.127 6.133l-.93.931 3.101 2.32.931-.926-3.102-2.325ZM23.259 7.224l-.872-.872a.212.212 0 0 1-.047-.233.212.212 0 0 1 .047-.07l.83-.83a.213.213 0 0 0 0-.302l-1.061-1.062a.214.214 0 0 1 0-.302l1.423-1.424A1.227 1.227 0 1 0 21.841.397l-1.423 1.418a.207.207 0 0 1-.273 0L19.077.753a.213.213 0 0 0-.302 0l-.825.83a.212.212 0 0 1-.233.047.212.212 0 0 1-.07-.047l-.895-.871a.22.22 0 0 0-.314 0l-.73.723a.119.119 0 0 0 0 .148l1.916 1.91a.097.097 0 0 1 .032.072.096.096 0 0 1-.032.07l-.736.736 3.103 2.325.344-.35a.107.107 0 0 1 .142 0l1.916 1.916a.096.096 0 0 0 .11.024.097.097 0 0 0 .032-.024l.724-.723a.22.22 0 0 0 0-.315ZM10.696 19.289l-1.5-1.5a.207.207 0 0 1 0-.298l.972-.972-3.072-2.325-.593.593a.212.212 0 0 1-.234.046.212.212 0 0 1-.069-.046l-1.518-1.513a.593.593 0 0 0-.807 0l-.492.493a.593.593 0 0 0 0 .806l.747.73a.154.154 0 0 1-.1.267 4.216 4.216 0 1 0 4.4 4.4.154.154 0 0 1 .261-.106l.73.73a.594.594 0 0 0 .806 0l.493-.493a.593.593 0 0 0-.024-.812Zm-7.918 1.91a1.999 1.999 0 1 1 2.829-2.825 1.999 1.999 0 0 1-2.83 2.825Z"/></g><defs><clipPath id="a"><path fill="#fff" d="M0 0h24v24H0z"/></clipPath></defs></svg>