<svg xmlns="http://www.w3.org/2000/svg" width="21" height="24" fill="none"><g clip-path="url(#a)"><path fill="#000" d="M6.15 24c-.953 0-1.885-.28-2.678-.806a4.796 4.796 0 0 1-1.775-2.15 4.765 4.765 0 0 1 1.046-5.223l6.816-6.778a1.611 1.611 0 0 1 2.272 0 1.593 1.593 0 0 1 0 2.26L5.015 18.08a1.598 1.598 0 0 0-.477 1.132 1.59 1.59 0 0 0 .471 1.133 1.607 1.607 0 0 0 1.756.344c.195-.081.373-.2.521-.35l9.089-9.036a4.79 4.79 0 0 0 1.412-3.39 4.768 4.768 0 0 0-1.412-3.388 4.949 4.949 0 0 0-3.409-1.359c-1.269 0-2.49.487-3.407 1.359l-6.816 6.777a1.607 1.607 0 0 1-1.751.347 1.608 1.608 0 0 1-.87-.865 1.59 1.59 0 0 1 .349-1.74l6.815-6.779c3.041-3.02 8.332-3.02 11.36 0a7.948 7.948 0 0 1 0 11.296L9.56 22.6A4.812 4.812 0 0 1 6.15 24Z"/></g><defs><clipPath id="a"><path fill="#fff" d="M0 0h21v24H0z"/></clipPath></defs></svg>