<svg xmlns="http://www.w3.org/2000/svg" width="23" height="24" fill="none"><path fill="#000" d="M15.222 0a.31.31 0 0 0 .044.044c.41.27.385.719-.046.957-.752.417-1.515.832-2.25 1.27a6.066 6.066 0 0 0-1.687 1.446c-.63.813-.582 1.542.16 2.257a6.733 6.733 0 0 0 2.27 1.358c.916.356 1.832.649 2.749.986a8.72 8.72 0 0 1 3.57 2.314c1.173 1.313 1.698 2.878 1.746 4.615.048 1.737-.367 3.45-.997 5.087a25.096 25.096 0 0 1-.687 1.574 1.51 1.51 0 0 1-1.496.958H12.37a1.032 1.032 0 0 1-.23 0 .332.332 0 0 1 0-.655c.077-.008.153-.008.23 0h4.264a.356.356 0 0 0 .261-.106c1.043-1.533 1.9-3.157 2.351-4.97.082-.332.128-.671.2-1.006a.319.319 0 0 1 .243-.268.315.315 0 0 1 .128-.002.328.328 0 0 1 .281.366c0 .03 0 .06-.013.09a10.457 10.457 0 0 1-.594 2.323 17.676 17.676 0 0 1-1.684 3.313 3.797 3.797 0 0 0-.137.23c.419 0 .818.02 1.212 0a.689.689 0 0 0 .547-.415c.967-1.991 1.669-4.058 1.673-6.301 0-1.604-.435-3.085-1.517-4.322a7.868 7.868 0 0 0-3.26-2.154c-.883-.33-1.785-.61-2.665-.948a8.479 8.479 0 0 1-2.44-1.364c-.496-.41-.917-.884-1.018-1.549a5.67 5.67 0 0 1 0-.868c-.32.343-.387 1.145-.09 1.73.285.5.688.924 1.174 1.232 1.074.757 2.291 1.226 3.517 1.657 1.375.486 2.667 1.134 3.71 2.193a5.676 5.676 0 0 1 1.604 3.355v.112a.329.329 0 0 1-.287.383.338.338 0 0 1-.362-.319c-.052-.29-.091-.589-.167-.873a5.154 5.154 0 0 0-1.856-2.713 9.944 9.944 0 0 0-2.995-1.551 16.039 16.039 0 0 1-3.086-1.375A5.376 5.376 0 0 1 9.81 6.769a2.413 2.413 0 0 1-.23-2.78 5.916 5.916 0 0 1 1.868-2c.585-.42 1.208-.786 1.815-1.176.06-.039.122-.073.23-.135-.711-.025-1.35-.025-1.971.298-1.65.857-3.25 1.744-4.684 2.908a8.204 8.204 0 0 0-1.732 1.82c-.882 1.333-.729 2.602.458 3.666.355.313.768.56 1.146.85.553.387 1.083.807 1.585 1.258 1.405 1.374 1.685 3.054.86 4.841a10.155 10.155 0 0 1-2.223 2.965 23.763 23.763 0 0 1-3.352 2.684 1.004 1.004 0 0 0-.257.229h7.142c.082-.01.164-.01.246 0a.333.333 0 0 1 .19.535.331.331 0 0 1-.19.116.723.723 0 0 1-.18 0H.78a.728.728 0 0 1-.718-1.022c.09-.161.218-.297.374-.395 1.13-.78 2.291-1.523 3.398-2.337a11.324 11.324 0 0 0 2.763-2.798 3.993 3.993 0 0 0 .688-1.654c.12-.836-.181-1.533-.71-2.152A7.149 7.149 0 0 0 5.2 11.345a13.375 13.375 0 0 1-1.542-1.215 2.91 2.91 0 0 1-.972-2.442c.073-.632.31-1.233.687-1.744A9.143 9.143 0 0 1 5.777 3.62a44.63 44.63 0 0 1 5.64-3.329c.279-.116.566-.213.859-.291h2.946ZM.654 22.117l.032.073H1.97a.315.315 0 0 0 .138-.067 26.17 26.17 0 0 0 4.264-3.185c.9-.854 1.718-1.778 2.216-2.935.568-1.338.447-2.587-.475-3.73A7.792 7.792 0 0 0 6.3 10.738a10.265 10.265 0 0 1-1.34-1.032C4.19 8.98 3.73 8.102 3.881 7c.06-.318.136-.633.23-.944-.21.276-.391.57-.544.88a2.17 2.17 0 0 0 .287 2.427c.263.321.563.611.893.864.488.375 1.022.687 1.515 1.063a4.326 4.326 0 0 1 1.482 1.833c.459 1.113.209 2.16-.357 3.162-.614 1.084-1.48 1.95-2.417 2.75A33.203 33.203 0 0 1 .846 21.96a2.04 2.04 0 0 0-.192.156Z"/><path fill="#000" d="M10.209 10.501a8.243 8.243 0 0 1-.754-.458.245.245 0 0 1 0-.378.474.474 0 0 1 .364-.112c.207.06.4.163.566.3a.426.426 0 0 1 .112.362c-.027.096-.174.179-.288.286ZM11.836 10.504c.259.169.507.353.744.552.053.048.02.28-.05.348a.43.43 0 0 1-.371.08 1.516 1.516 0 0 1-.527-.32.458.458 0 0 1-.099-.37c.025-.098.17-.169.303-.29ZM6.515 6.487c0-.35.243-.552.5-.417.256.135.311.917.11 1.093a.323.323 0 0 1-.52-.151 4.202 4.202 0 0 1-.09-.525ZM14.338 12.87c-.044.051-.108.193-.209.23a.427.427 0 0 1-.357-.076 1.682 1.682 0 0 1-.371-.492.402.402 0 0 1 .03-.36.457.457 0 0 1 .348-.108c.17.012.554.555.559.807ZM14.271 14.773v-.312a.305.305 0 0 1 .307-.293.29.29 0 0 1 .335.268c.022.228.022.459 0 .687a.287.287 0 0 1-.332.26.303.303 0 0 1-.285-.176.302.302 0 0 1-.027-.114 2.494 2.494 0 0 1 0-.309l.002-.011ZM8.206 4.228a1.408 1.408 0 0 1-.108.245 6.454 6.454 0 0 1-.334.415.337.337 0 0 1-.475.057.33.33 0 0 1-.052-.458c.103-.163.227-.312.369-.443a.44.44 0 0 1 .355-.075c.1.032.167.172.245.259ZM12.45 19.477a.321.321 0 0 1-.314-.459c.138-.21.308-.397.504-.554a.376.376 0 0 1 .355.034.372.372 0 0 1 .101.34 4.484 4.484 0 0 1-.513.602c-.04.037-.108.037-.133.037ZM14.487 16.782a5.934 5.934 0 0 1-.458.738.385.385 0 0 1-.374 0 .406.406 0 0 1-.117-.36c.065-.212.17-.41.312-.582a.427.427 0 0 1 .369-.08c.098.018.165.165.268.284ZM8.559 8.886c-.053.064-.105.188-.195.229a.392.392 0 0 1-.328-.014 1.945 1.945 0 0 1-.478-.458.401.401 0 0 1 0-.376.385.385 0 0 1 .355-.11c.213.156.411.333.59.527.038.023.033.099.056.202ZM9.221 3.437a.346.346 0 0 1-.328-.355.662.662 0 0 1 .569-.458.32.32 0 0 1 .323.355.701.701 0 0 1-.564.458ZM11.426 20.407a.645.645 0 0 1-.548.5.33.33 0 0 1-.328-.324.658.658 0 0 1 .55-.5.326.326 0 0 1 .326.324Z"/></svg>