<svg xmlns="http://www.w3.org/2000/svg" width="24" height="24" fill="none"><path fill="#000" d="M0 12.146v-1.43c.016-.057.028-.115.037-.174A10.982 10.982 0 0 1 1.884 5.17C3.717 2.45 6.238.763 9.488.174 9.896.1 10.313.057 10.718 0h1.428c.39.05.78.092 1.167.156a11.196 11.196 0 0 1 5.656 2.7 11.266 11.266 0 0 1 3.72 6.61c.073.414.119.836.176 1.253v1.428c-.013.07-.03.144-.041.215-.055.399-.085.8-.163 1.192a11.19 11.19 0 0 1-3.85 6.59 11.127 11.127 0 0 1-8.535 2.66 10.983 10.983 0 0 1-6.032-2.499 11.27 11.27 0 0 1-4.068-6.9C.101 12.99.057 12.568 0 12.147Zm11.431 9.38a10.085 10.085 0 1 0-10.083-10.1 10.111 10.111 0 0 0 10.084 10.1Z"/><path fill="#000" d="M12.103 9.227v1.696a.488.488 0 0 0 .158.39 775.549 775.549 0 0 1 3.539 3.533c.38.38.43.77.135 1.073-.296.302-.688.261-1.089-.129a4288.557 4288.557 0 0 0-3.758-3.753 1.026 1.026 0 0 1-.326-.794V7.448a.668.668 0 0 1 1.23-.39.656.656 0 0 1 .1.383c.013.596.011 1.192.011 1.786ZM12.103 4.066v.666a.668.668 0 0 1-1.336 0 33.83 33.83 0 0 1 0-1.359.667.667 0 0 1 1.334 0c.009.232.002.463.002.693ZM4.061 12.103h-.667a.668.668 0 0 1 0-1.336h1.36a.667.667 0 0 1 0 1.334c-.232.009-.464.002-.693.002ZM18.793 12.103h-.667a.668.668 0 0 1 0-1.336c.458-.01.911-.01 1.359 0a.667.667 0 1 1 0 1.334c-.234.009-.463.002-.692.002ZM10.771 18.793v-.667a.668.668 0 0 1 1.337-.011c.009.458.009.911 0 1.359a.668.668 0 0 1-1.337.006c-.01-.229 0-.458 0-.687ZM17.122 17.782a.667.667 0 0 1-.674-.66.688.688 0 0 1 .667-.674.663.663 0 0 1 .667.667.651.651 0 0 1-.66.667ZM5.085 5.743a.653.653 0 0 1 .67-.658.665.665 0 0 1 .662.67.688.688 0 0 1-.674.662.664.664 0 0 1-.658-.674ZM17.131 5.086a.657.657 0 0 1 .653.687.67.67 0 0 1-1.156.45.687.687 0 0 1-.191-.477.673.673 0 0 1 .694-.66ZM5.743 17.782a.662.662 0 0 1-.66-.672.671.671 0 0 1 .672-.666.688.688 0 0 1 .667.687.671.671 0 0 1-.679.651Z"/></svg>