<svg xmlns="http://www.w3.org/2000/svg" width="22" height="24" fill="none"><path fill="#000" d="M4.92.947h.447a.459.459 0 0 0 .073.044 1.07 1.07 0 0 1 .775 1.075v.3h8.589a3.502 3.502 0 0 1 0-.5 1.146 1.146 0 0 1 .834-.916h.447a.228.228 0 0 0 .053.036 1.073 1.073 0 0 1 .795 1.126v.266h1.685c1.146 0 1.889.756 1.889 1.89V21.93c0 1.133-.759 1.889-1.891 1.889H2.387a2.21 2.21 0 0 1-.355-.02 1.779 1.779 0 0 1-1.534-1.85V4.13a1.76 1.76 0 0 1 1.316-1.687c.195-.045.396-.066.596-.064h1.671a3.746 3.746 0 0 1 0-.511c.085-.493.401-.761.839-.922Zm14.865 5.73H1.218v13.066c0 .773.426 1.2 1.204 1.202h13.086v-2.552a1.74 1.74 0 0 1 1.44-1.694c.242-.034.488-.047.733-.04h2.102l.002-9.981ZM4.076 3.094h-1.78a1.059 1.059 0 0 0-1.082 1.093v1.586c0 .058 0 .113.013.163h18.567V4.177a1.059 1.059 0 0 0-1.09-1.084h-1.752c-.083.983-.395 1.403-1.04 1.428a1.054 1.054 0 0 1-.725-.243c-.376-.303-.422-.727-.397-1.171H6.23c-.103.994-.408 1.398-1.06 1.414a1.05 1.05 0 0 1-.719-.252c-.36-.305-.408-.72-.374-1.176ZM1.214 21.307v.626c0 .728.437 1.169 1.164 1.169h16.254c.726 0 1.164-.44 1.164-1.172V17.905c-.094.09-.153.142-.208.197-1.112 1.11-2.224 2.217-3.329 3.333a.76.76 0 0 1-.588.243H2.604a2.18 2.18 0 0 1-1.391-.371Zm18.014-3.915h-1.923a1.06 1.06 0 0 0-1.082 1.09v1.784a.95.95 0 0 0 0 .117l3.005-2.991ZM4.788 2.733v.688a.358.358 0 0 0 .49.356.353.353 0 0 0 .217-.345v-1.4a.348.348 0 0 0-.36-.37.353.353 0 0 0-.35.381c-.003.232.002.46.002.69Zm10.72 0v.688a.357.357 0 0 0 .696.148.357.357 0 0 0 .014-.148V2.045a.355.355 0 0 0-.71 0c-.005.223 0 .454 0 .683v.005Z"/><path fill="#000" d="M6.93 9.525V8.81a.706.706 0 0 1 .709-.713h1.428a.704.704 0 0 1 .717.701c.01.484.01.968 0 1.451a.687.687 0 0 1-.688.701h-1.45a.704.704 0 0 1-.709-.712c-.02-.236-.007-.475-.007-.713Zm.725.687h1.402V8.821H7.655v1.391ZM14.077 9.532v.715a.703.703 0 0 1-.687.703c-.49.011-.982.011-1.474 0a.688.688 0 0 1-.688-.687c-.01-.49-.01-.982 0-1.474a.687.687 0 0 1 .704-.688h1.45a.706.706 0 0 1 .688.688c.014.252.007.497.007.743Zm-.724-.709h-1.394v1.403h1.403l-.009-1.403ZM12.627 15.242h-.688a.706.706 0 0 1-.713-.709v-1.45a.7.7 0 0 1 .701-.688c.485-.008.969-.008 1.451 0a.701.701 0 0 1 .702.687v1.474a.702.702 0 0 1-.688.688c-.259.005-.516-.002-.765-.002Zm-.688-2.135v1.403h1.403v-1.402h-1.403ZM16.933 15.242h-.715a.708.708 0 0 1-.708-.713V13.1a.707.707 0 0 1 .447-.668.703.703 0 0 1 .28-.048h1.407a.704.704 0 0 1 .72.711v1.408a.712.712 0 0 1-.74.728c-.23.012-.461.01-.69.01Zm.706-.725v-1.405h-1.402v1.405h1.402ZM6.93 18.1v-.715a.704.704 0 0 1 .709-.713h1.45a.7.7 0 0 1 .688.7c.01.482.01.966 0 1.45a.688.688 0 0 1-.687.701H7.639a.706.706 0 0 1-.709-.712c-.013-.234 0-.473 0-.711Zm2.134-.7h-1.4v1.404h1.403L9.064 17.4ZM12.647 16.672h.688a.712.712 0 0 1 .736.73v1.408a.705.705 0 0 1-.704.718c-.483.01-.967.01-1.451 0a.702.702 0 0 1-.654-.444.7.7 0 0 1-.048-.274v-1.428a.704.704 0 0 1 .713-.706c.246-.009.49-.004.72-.004Zm-.706 2.131h1.408v-1.402h-1.406l-.002 1.402ZM18.366 9.53v.714a.703.703 0 0 1-.442.655.705.705 0 0 1-.273.051h-1.428a.702.702 0 0 1-.713-.708v-1.45a.701.701 0 0 1 .701-.688h1.451a.704.704 0 0 1 .701.687c.014.248.003.493.003.738Zm-.724-.709h-1.406v1.403h1.405V8.82ZM4.076 12.383h.715a.702.702 0 0 1 .706.688c.011.49.011.982 0 1.474a.699.699 0 0 1-.706.687c-.476.008-.952.008-1.428 0a.704.704 0 0 1-.717-.726v-1.408a.703.703 0 0 1 .717-.724c.237.005.475.01.713.01Zm.688 2.139v-1.41h-1.39v1.41h1.39ZM6.93 13.8v-.716a.706.706 0 0 1 .688-.687c.484-.01.968-.01 1.45 0a.686.686 0 0 1 .704.687c.011.49.011.982 0 1.474a.701.701 0 0 1-.708.688H7.636a.71.71 0 0 1-.717-.727c-.003-.243.011-.481.011-.72Zm.724.715H9.06v-1.4H7.657l-.003 1.4ZM4.083 8.094h.688a.708.708 0 0 1 .724.72v1.428a.702.702 0 0 1-.713.708c-.475.008-.951.008-1.428 0a.706.706 0 0 1-.713-.708V8.791a.706.706 0 0 1 .702-.688c.247-.013.495-.009.74-.009Zm.688 2.134V8.823H3.373v1.405H4.77ZM2.644 18.098v-.688a.713.713 0 0 1 .713-.731c.475-.01.951-.01 1.428 0a.705.705 0 0 1 .715.706v1.428a.709.709 0 0 1-.724.72H3.37a.709.709 0 0 1-.727-.739c-.005-.236 0-.465 0-.696Zm.724.701h1.4v-1.403h-1.4V18.8ZM10.48 4.878H7.98a.341.341 0 0 1-.338-.366.335.335 0 0 1 .339-.356H12.98c.23 0 .379.136.383.344a.34.34 0 0 1-.383.367c-.832.014-1.666.011-2.5.011Z"/></svg>