<svg xmlns="http://www.w3.org/2000/svg" width="34" height="24" fill="none"><g fill="#000" clip-path="url(#a)"><path d="m30.38 7.652-6.546-6.551a1.862 1.862 0 0 0-1.359-.537L17.67.639a.537.537 0 0 0-.51.4l-.482 1.842a.537.537 0 0 0 .32.64 1.088 1.088 0 0 1 .68.937l.047.748c.027.446.218.867.537 1.182l6.7 6.701a.994.994 0 0 0 1.414 0L30.4 9.066a.993.993 0 0 0-.02-1.414ZM27.51 9.12l-1.155 2.093a.877.877 0 0 1-1.36.198l-3.54-3.528a.864.864 0 0 1-.143-1.033l1.149-2.093a.87.87 0 0 1 1.359-.197l3.52 3.52a.884.884 0 0 1 .17 1.04ZM0 13.653a5.002 5.002 0 0 0 9.997 0c0-2.78-4.995-8.896-4.995-8.896S0 10.874 0 13.653Z"/><path d="M24.12 7.17a2.529 2.529 0 0 0-1.795-1.054.231.231 0 0 0-.238.123l-.271.496a.115.115 0 0 0 .102.17 1.746 1.746 0 0 1 1.556.713l1.849 2.494a.414.414 0 1 0 .68-.475L24.12 7.17ZM30.305 9.929a.272.272 0 0 0-.381 0l-2.718 2.718a.264.264 0 0 0 0 .381.856.856 0 0 0 1.196 0l1.882-1.883a.863.863 0 0 0 .02-1.216ZM32.37 15.38a5.933 5.933 0 0 0-1.861-3.684.24.24 0 0 0-.262-.053.24.24 0 0 0-.078.053l-1.074 1.074a.238.238 0 0 0 0 .333 3.976 3.976 0 0 1 1.285 2.426 3.813 3.813 0 0 1-.476 1.91c-.374.796-.661 1.63-.856 2.487a11.077 11.077 0 0 0-.136 3.88.222.222 0 0 0 .089.15.223.223 0 0 0 .169.041 3 3 0 0 1 .734-.21c.255-.035.513-.035.768 0 .04-.048.204-.116.183-.252a9.27 9.27 0 0 1 .116-3.16c.169-.727.415-1.433.734-2.107a5.599 5.599 0 0 0 .666-2.889ZM16.746 1.175 13.13.183a4.934 4.934 0 0 0-3.004.109l-5.491 1.97c-.367.13-.822.334-.68.68a1.155 1.155 0 0 0 1.162.619l5.485-1.95a3.534 3.534 0 0 1 2.154-.082l3.63.999a.156.156 0 0 0 .19-.116l.278-1.053a.157.157 0 0 0-.108-.184Z"/></g><defs><clipPath id="a"><path fill="#fff" d="M0 0h33.333v24H0z"/></clipPath></defs></svg>